<?xml version="1.0" encoding="UTF-8" standalone="no"?>
<!-- Created with Inkscape (http://www.inkscape.org/) -->

<svg
   xmlns:dc="http://purl.org/dc/elements/1.1/"
   xmlns:cc="http://creativecommons.org/ns#"
   xmlns:rdf="http://www.w3.org/1999/02/22-rdf-syntax-ns#"
   xmlns:svg="http://www.w3.org/2000/svg"
   xmlns="http://www.w3.org/2000/svg"
   xmlns:inkscape="http://www.inkscape.org/namespaces/inkscape"
   version="1.1"
   width="480.0007"
   height="578.09149"
   id="svg2">
  <defs
     id="defs4">
    <inkscape:path-effect
       effect="vonkoch"
       id="path-effect4582" />
  </defs>
  <metadata
     id="metadata7">
    <rdf:RDF>
      <cc:Work
         rdf:about="">
        <dc:format>image/svg+xml</dc:format>
        <dc:type
           rdf:resource="http://purl.org/dc/dcmitype/StillImage" />
        <dc:title></dc:title>
      </cc:Work>
    </rdf:RDF>
  </metadata>
  <text
     x="0.18554688"
     y="83.046875"
     id="WhiteKingText"
     xml:space="preserve"
     style="font-size:40px;font-style:normal;font-weight:normal;line-height:125%;letter-spacing:0px;word-spacing:0px;fill:#000000;fill-opacity:1;stroke:none;font-family:Bitstream Vera Sans"><tspan
       x="0.18554688"
       y="83.046875"
       id="tspan3424"
       style="font-size:100px;font-style:normal;font-variant:normal;font-weight:normal;font-stretch:normal;font-family:Arial;-inkscape-font-specification:Arial">♔</tspan></text>
  <text
     x="88.984375"
     y="83.046875"
     id="WhiteQueenText"
     xml:space="preserve"
     style="font-size:40px;font-style:normal;font-weight:normal;line-height:125%;letter-spacing:0px;word-spacing:0px;fill:#000000;fill-opacity:1;stroke:none;font-family:Bitstream Vera Sans"><tspan
       x="88.984375"
       y="83.046875"
       id="tspan3428"
       style="font-size:100px;font-style:normal;font-variant:normal;font-weight:normal;font-stretch:normal;font-family:Arial;-inkscape-font-specification:Arial">♕</tspan></text>
  <text
     x="170.94727"
     y="82.949219"
     id="WhiteRookText"
     xml:space="preserve"
     style="font-size:40px;font-style:normal;font-weight:normal;line-height:125%;letter-spacing:0px;word-spacing:0px;fill:#000000;fill-opacity:1;stroke:none;font-family:Bitstream Vera Sans"><tspan
       x="170.94727"
       y="82.949219"
       id="tspan3432"
       style="font-size:100px;font-style:normal;font-variant:normal;font-weight:normal;font-stretch:normal;font-family:Arial;-inkscape-font-specification:Arial">♖</tspan></text>
  <text
     x="242.50977"
     y="83.046875"
     id="WhiteBishopText"
     xml:space="preserve"
     style="font-size:40px;font-style:normal;font-weight:normal;line-height:125%;letter-spacing:0px;word-spacing:0px;fill:#000000;fill-opacity:1;stroke:none;font-family:Bitstream Vera Sans"><tspan
       x="242.50977"
       y="83.046875"
       id="tspan3436"
       style="font-size:100px;font-style:normal;font-variant:normal;font-weight:normal;font-stretch:normal;font-family:Arial;-inkscape-font-specification:Arial">♗</tspan></text>
  <text
     x="314.56055"
     y="83.046875"
     id="WhiteKnightText"
     xml:space="preserve"
     style="font-size:40px;font-style:normal;font-weight:normal;line-height:125%;letter-spacing:0px;word-spacing:0px;fill:#000000;fill-opacity:1;stroke:none;font-family:Bitstream Vera Sans"><tspan
       x="314.56055"
       y="83.046875"
       id="tspan3440"
       style="font-size:100px;font-style:normal;font-variant:normal;font-weight:normal;font-stretch:normal;font-family:Arial;-inkscape-font-specification:Arial">♘</tspan></text>
  <text
     x="393.1543"
     y="82.998047"
     id="WhitePawnText"
     xml:space="preserve"
     style="font-size:40px;font-style:normal;font-weight:normal;line-height:125%;letter-spacing:0px;word-spacing:0px;fill:#000000;fill-opacity:1;stroke:none;font-family:Bitstream Vera Sans"><tspan
       x="393.1543"
       y="82.998047"
       id="tspan3444"
       style="font-size:100px;font-style:normal;font-variant:normal;font-weight:normal;font-stretch:normal;font-family:Arial;-inkscape-font-specification:Arial">♙</tspan></text>
  <text
     x="0.18554688"
     y="176.09375"
     id="BlackKingText"
     xml:space="preserve"
     style="font-size:40px;font-style:normal;font-weight:normal;line-height:125%;letter-spacing:0px;word-spacing:0px;fill:#000000;fill-opacity:1;stroke:none;font-family:Bitstream Vera Sans"><tspan
       x="0.18554688"
       y="176.09375"
       id="tspan3448"
       style="font-size:100px;font-style:normal;font-variant:normal;font-weight:normal;font-stretch:normal;font-family:Arial;-inkscape-font-specification:Arial">♚</tspan></text>
  <text
     x="88.984375"
     y="176.09375"
     id="BlackQueenText"
     xml:space="preserve"
     style="font-size:40px;font-style:normal;font-weight:normal;line-height:125%;letter-spacing:0px;word-spacing:0px;fill:#000000;fill-opacity:1;stroke:none;font-family:Bitstream Vera Sans"><tspan
       x="88.984375"
       y="176.09375"
       id="tspan3452"
       style="font-size:100px;font-style:normal;font-variant:normal;font-weight:normal;font-stretch:normal;font-family:Arial;-inkscape-font-specification:Arial">♛</tspan></text>
  <text
     x="170.94727"
     y="175.99609"
     id="BlackRookText"
     xml:space="preserve"
     style="font-size:40px;font-style:normal;font-weight:normal;line-height:125%;letter-spacing:0px;word-spacing:0px;fill:#000000;fill-opacity:1;stroke:none;font-family:Bitstream Vera Sans"><tspan
       x="170.94727"
       y="175.99609"
       id="tspan3456"
       style="font-size:100px;font-style:normal;font-variant:normal;font-weight:normal;font-stretch:normal;font-family:Arial;-inkscape-font-specification:Arial">♜</tspan></text>
  <text
     x="242.50977"
     y="176.09375"
     id="BlackBishopText"
     xml:space="preserve"
     style="font-size:40px;font-style:normal;font-weight:normal;line-height:125%;letter-spacing:0px;word-spacing:0px;fill:#000000;fill-opacity:1;stroke:none;font-family:Bitstream Vera Sans"><tspan
       x="242.50977"
       y="176.09375"
       id="tspan3460"
       style="font-size:100px;font-style:normal;font-variant:normal;font-weight:normal;font-stretch:normal;font-family:Arial;-inkscape-font-specification:Arial">♝</tspan></text>
  <text
     x="314.56055"
     y="176.09375"
     id="BlackKnightText"
     xml:space="preserve"
     style="font-size:40px;font-style:normal;font-weight:normal;line-height:125%;letter-spacing:0px;word-spacing:0px;fill:#000000;fill-opacity:1;stroke:none;font-family:Bitstream Vera Sans"><tspan
       x="314.56055"
       y="176.09375"
       id="tspan3464"
       style="font-size:100px;font-style:normal;font-variant:normal;font-weight:normal;font-stretch:normal;font-family:Arial;-inkscape-font-specification:Arial">♞</tspan></text>
  <text
     x="393.1543"
     y="176.04492"
     id="BlackPawnText"
     xml:space="preserve"
     style="font-size:40px;font-style:normal;font-weight:normal;line-height:125%;letter-spacing:0px;word-spacing:0px;fill:#000000;fill-opacity:1;stroke:none;font-family:Bitstream Vera Sans"><tspan
       x="393.1543"
       y="176.04492"
       id="tspan3468"
       style="font-size:100px;font-style:normal;font-variant:normal;font-weight:normal;font-stretch:normal;font-family:Arial;-inkscape-font-specification:Arial">♟</tspan></text>
  <g
     transform="translate(-119.28141,-447.19299)"
     id="BlackPawn"
     style="font-size:40px;font-style:normal;font-weight:normal;line-height:125%;letter-spacing:0px;word-spacing:0px;fill:#000000;fill-opacity:1;stroke:none;font-family:Bitstream Vera Sans">
    <path
       d="m 527.81653,852.70746 c -0.35809,-1.85547 -0.53713,-3.72721 -0.53711,-5.61524 -2e-5,-5.20832 1.33462,-10.18878 4.00391,-14.9414 2.7018,-4.78513 6.42901,-8.44724 11.18164,-10.98633 1.23694,-0.68356 2.50647,-1.2695 3.80859,-1.75781 -0.9766,-0.94398 -1.80667,-2.03447 -2.49023,-3.27149 -1.36722,-2.44136 -2.05082,-4.9967 -2.05079,-7.66601 -3e-5,-2.70178 0.68357,-5.27339 2.05079,-7.71485 1.3997,-2.4739 3.35283,-4.39447 5.85937,-5.76172 0.87887,-0.45567 1.79033,-0.84629 2.73438,-1.17187 -0.8464,-0.61843 -1.51372,-1.39968 -2.00196,-2.34375 -0.74873,-1.26947 -1.12308,-2.58783 -1.12304,-3.95508 -4e-5,-1.36712 0.35803,-2.6692 1.07421,-3.90625 0.71611,-1.26946 1.70895,-2.24602 2.97852,-2.92969 1.26949,-0.68352 2.57157,-1.02531 3.90625,-1.02539 1.30204,8e-5 2.58784,0.34187 3.85742,1.02539 1.26948,0.68367 2.26232,1.66023 2.97852,2.92969 0.74864,1.23705 1.12299,2.53913 1.12304,3.90625 -5e-5,1.36725 -0.34185,2.68561 -1.02539,3.95508 -0.55343,0.94407 -1.23703,1.7416 -2.05078,2.39258 0.87886,0.29303 1.80659,0.66737 2.78321,1.12304 2.44135,1.36725 4.36192,3.28782 5.76171,5.76172 1.39968,2.44146 2.09955,5.01307 2.09961,7.71485 -6e-5,2.66931 -0.66737,5.22465 -2.00195,7.66601 -0.7162,1.23702 -1.56256,2.32751 -2.53906,3.27149 1.23692,0.52086 2.4739,1.1068 3.71094,1.75781 4.78509,2.53909 8.52857,6.2012 11.23046,10.98633 2.70175,4.75262 4.05266,9.73308 4.05274,14.9414 -8e-5,1.88803 -0.19539,3.75977 -0.58594,5.61524 l -58.78906,0"
       id="path3188"
       style="font-size:100px;font-variant:normal;font-stretch:normal;font-family:Arial;-inkscape-font-specification:Arial" />
  </g>
  <g
     transform="translate(-10.00002,0.375)"
     id="g4326">
    <g
       transform="translate(-109.28134,-447.56797)"
       id="BlackKing"
       style="font-size:40px;font-style:normal;font-weight:normal;line-height:125%;letter-spacing:0px;word-spacing:0px;fill:#000000;fill-opacity:1;stroke:none;font-family:Bitstream Vera Sans">
      <path
         d="m 160.87315,805.49066 c 0.0325,-0.0976 0.0813,-0.19526 0.14649,-0.29297 -1.13937,-1.39969 -2.5391,-2.55529 -4.19922,-3.46679 -2.40889,-1.33459 -4.88285,-2.0019 -7.42188,-2.00196 -2.53909,6e-5 -5.01304,0.66737 -7.42187,2.00196 -2.37632,1.30213 -4.24807,3.17387 -5.61524,5.61523 -1.3672,2.4089 -2.05079,4.91541 -2.05078,7.51953 -1e-5,2.63676 0.66731,5.14326 2.00196,7.51953 1.33461,2.37633 3.20636,4.21552 5.61523,5.51758 0.71612,0.45575 1.44854,0.81383 2.19727,1.07422 l 16.74804,0 0,-23.48633 m 6.88477,23.48633 16.69922,0 c 0.78118,-0.26039 1.52988,-0.61847 2.24609,-1.07422 2.40879,-1.30206 4.26425,-3.14125 5.56641,-5.51758 1.33456,-2.37627 2.00188,-4.88277 2.00195,-7.51953 -7e-5,-2.60412 -0.68367,-5.11063 -2.05078,-7.51953 -1.33471,-2.44136 -3.20645,-4.3131 -5.61523,-5.61523 -2.37637,-1.33459 -4.85033,-2.0019 -7.42188,-2.00196 -2.50657,6e-5 -4.96425,0.66737 -7.37305,2.00196 -1.69276,0.9115 -3.09249,2.0671 -4.19922,3.46679 0.0651,0.0977 0.11389,0.19536 0.14649,0.29297 l 0,23.48633 m -21.92383,5.0293 0,14.79492 36.96289,0 0,-14.79492 -36.96289,0 m -4.00391,18.70117 0,-18.70117 c -1.3672,-0.42316 -2.66929,-0.99282 -3.90625,-1.70899 -2.24611,-1.75779 -4.24806,-4.23174 -6.00585,-7.42187 -1.75783,-3.19008 -2.63673,-6.52666 -2.63672,-10.00977 -1e-5,-3.51558 0.89517,-6.86844 2.68554,-10.05859 1.79035,-3.22261 4.29686,-5.69656 7.51953,-7.42188 3.22264,-1.7252 6.52667,-2.58783 9.91211,-2.58789 2.60414,6e-5 5.1432,0.50462 7.61719,1.51367 l 0,-0.0977 c -4e-5,-1.17182 0.29293,-2.26231 0.87891,-3.27149 0.5859,-1.0416 1.3997,-1.8554 2.4414,-2.4414 0.42314,-0.2278 0.89514,-0.40684 1.41602,-0.53711 l 0,-2.63672 -5.27344,0 0,-3.41797 5.27344,0 0,-4.24805 5.12695,0 0,4.24805 5.27344,0 0,3.41797 -5.27344,0 0,2.63672 c 0.52079,0.13027 0.99279,0.30931 1.41602,0.53711 1.00906,0.586 1.80659,1.3998 2.39258,2.4414 0.61843,1.00918 0.92768,2.09967 0.92773,3.27149 l 0,0.0977 c 2.4739,-1.00905 4.99669,-1.51361 7.56836,-1.51367 3.38535,6e-5 6.68939,0.86269 9.91211,2.58789 3.22258,1.72532 5.72909,4.19927 7.51953,7.42188 1.79029,3.19015 2.68547,6.54301 2.68555,10.05859 -8e-5,3.48311 -0.87899,6.81969 -2.63672,10.00977 -1.75789,3.19013 -3.74356,5.66408 -5.95703,7.42187 -1.2696,0.71617 -2.57169,1.28583 -3.90625,1.70899 l 0,18.70117 -44.97071,0 m 17.91993,-56.10352 c -4e-5,0.81386 0.19527,1.57883 0.58593,2.29492 0.42314,0.68365 0.9928,1.23704 1.70899,1.66016 0.74865,0.39068 1.49735,0.58599 2.24609,0.58594 0.78121,5e-5 1.5299,-0.19526 2.2461,-0.58594 0.74865,-0.42312 1.31831,-0.97651 1.70898,-1.66016 0.39058,-0.71609 0.58589,-1.48106 0.58594,-2.29492 -5e-5,-0.78119 -0.19536,-1.52989 -0.58594,-2.24609 -0.39067,-0.74864 -0.96033,-1.30202 -1.70898,-1.66016 -0.7162,-0.39056 -1.46489,-0.58587 -2.2461,-0.58593 -0.74874,6e-5 -1.49744,0.19537 -2.24609,0.58593 -0.71619,0.35814 -1.28585,0.91152 -1.70899,1.66016 -0.39066,0.7162 -0.58597,1.4649 -0.58593,2.24609 m 20.50781,39.94141 0,9.76562 -31.88477,0 0,-9.76562 31.88477,0 m -21.82617,-10.05859 -13.67188,0 c -0.58596,-0.22784 -1.15562,-0.53709 -1.70898,-0.92774 -1.9857,-1.07419 -3.51565,-2.58786 -4.58985,-4.54101 -1.07423,-1.98565 -1.61134,-4.06898 -1.61132,-6.25 -2e-5,-2.1484 0.55336,-4.21546 1.66015,-6.20118 1.10675,-2.01818 2.62042,-3.5644 4.54102,-4.63867 1.9531,-1.10672 3.97132,-1.6601 6.05469,-1.66015 2.01819,5e-5 4.02014,0.53715 6.00585,1.61132 1.3346,0.74875 2.47393,1.70903 3.41797,2.88086 -0.0651,0.0977 -0.0977,0.17909 -0.0977,0.24414 l 0,19.48243 m 11.76758,-19.48243 c -6e-5,-0.065 -0.0326,-0.14644 -0.0977,-0.24414 0.94396,-1.17183 2.08328,-2.13211 3.41797,-2.88086 1.98562,-1.07417 3.97129,-1.61127 5.95703,-1.61132 2.11582,5e-5 4.13405,0.55343 6.05469,1.66015 1.95305,1.07427 3.483,2.62049 4.58984,4.63867 1.1067,1.98572 1.66008,4.05278 1.66016,6.20118 -8e-5,2.18102 -0.53718,4.26435 -1.61133,6.25 -1.07429,1.95315 -2.60424,3.46682 -4.58985,4.54101 -0.586,0.39065 -1.17194,0.6999 -1.75781,0.92774 l -13.62304,0 0,-19.48243"
         id="path3173"
         style="font-size:100px;font-variant:normal;font-stretch:normal;font-family:Arial;-inkscape-font-specification:Arial" />
    </g>
    <path
       d="m 54.698578,353.55562 c -0.678516,-0.0459 -1.531,-0.31643 -2.063592,-0.65485 -0.59284,-0.3767 -1.089702,-0.85415 -1.468512,-1.41115 -0.08762,-0.12883 -0.231157,-0.40355 -0.313197,-0.59943 -0.471089,-1.12477 -0.499737,-2.33165 -0.08215,-3.46065 0.156803,-0.42394 0.439123,-0.91879 0.724666,-1.27021 0.148394,-0.18263 0.461681,-0.48837 0.634632,-0.61935 0.431314,-0.32665 1.016622,-0.61919 1.578776,-0.78908 0.940466,-0.28422 1.920403,-0.25853 2.85057,0.0747 0.227403,0.0815 0.809487,0.36153 1.031266,0.49617 0.770415,0.46772 1.351289,1.22852 1.697248,2.22297 0.312294,0.89768 0.335869,1.8752 0.06775,2.80914 -0.08143,0.28364 -0.158369,0.48118 -0.30002,0.77029 -0.206674,0.42182 -0.428159,0.72998 -0.772714,1.0751 -0.808013,0.80933 -1.853237,1.28307 -2.995046,1.35749 -0.284149,0.0185 -0.299107,0.0185 -0.589681,-10e-4 l 0,0 z"
       id="path3958"
       style="fill:#ffffff;fill-opacity:1;fill-rule:nonzero;stroke:none" />
    <path
       d="m 34.274863,381.15783 c -0.298537,-0.12907 -0.620513,-0.27529 -0.715502,-0.32493 -0.43276,-0.22617 -1.889163,-1.10097 -2.245198,-1.34861 -1.628774,-1.13287 -3.028022,-2.6191 -4.005055,-4.25403 -1.512932,-2.53168 -2.236066,-5.09287 -2.23612,-7.91987 -3.4e-5,-1.78105 0.271587,-3.35084 0.861279,-4.97764 1.129098,-3.11487 3.115265,-5.74533 5.601948,-7.41918 3.392349,-2.28347 7.302941,-3.17075 11.053281,-2.50789 3.271065,0.57815 6.585361,2.37901 8.670678,4.71132 0.452665,0.50628 0.454405,0.50923 0.382424,0.64843 -0.06292,0.12168 -0.07231,1.66472 -0.07231,11.88639 l 0,11.74656 -8.376315,-0.003 -8.376314,-0.003 -0.542795,-0.23467 0,0 z m 14.877518,-11.9403 c 0,-6.96046 0.01545,-9.75791 0.0545,-9.86992 0.04873,-0.13979 0.0397,-0.1758 -0.0854,-0.34045 -0.424849,-0.55914 -1.45919,-1.5092 -2.238964,-2.05653 -1.458302,-1.02358 -3.284767,-1.77158 -5.144587,-2.10687 -0.711444,-0.12826 -2.404767,-0.1795 -3.148178,-0.0953 -2.51054,0.28446 -5.105245,1.45027 -6.937169,3.1169 -1.991951,1.81221 -3.446194,4.51436 -3.934199,7.3102 -0.338488,1.93924 -0.143772,4.24416 0.522167,6.18108 0.976841,2.84118 2.801274,5.112 5.195453,6.46664 0.135699,0.0768 0.379957,0.2291 0.542795,0.3385 0.162839,0.10939 0.548621,0.32724 0.857295,0.4841 l 0.561225,0.28521 6.877534,0 6.877534,0 0,-9.7136 z"
       id="path3960"
       style="fill:#ffffff;fill-opacity:1;fill-rule:nonzero;stroke:none" />
    <path
       d="m 58.478587,369.63192 c 0,-8.74415 -0.01454,-11.79836 -0.0566,-11.89067 -0.05145,-0.11291 -0.03474,-0.15016 0.183584,-0.40942 1.833573,-2.17731 4.830422,-3.95725 7.990265,-4.74572 2.955478,-0.73748 6.343298,-0.42218 9.227516,0.85879 3.080486,1.36813 5.22231,3.22118 6.843632,5.92094 2.324976,3.87146 2.897535,8.15475 1.64537,12.30896 -0.572828,1.90043 -1.655364,3.90782 -2.917601,5.41024 -1.051582,1.25167 -2.189179,2.18196 -3.868999,3.16392 -0.906873,0.53013 -1.298669,0.72893 -1.911789,0.97005 l -0.456112,0.17937 -8.339635,0 -8.339635,0 0,-11.76646 z m 16.710669,9.01985 c 0.50547,-0.25706 1.66691,-0.94742 2.21314,-1.3155 2.625034,-1.76888 4.444977,-4.80327 4.992201,-8.32348 0.125099,-0.80474 0.125924,-2.7561 0.0015,-3.55284 -0.216154,-1.38416 -0.577573,-2.51732 -1.219729,-3.82424 -1.173933,-2.38919 -2.657572,-3.99536 -4.855352,-5.25634 -2.170562,-1.24537 -4.383611,-1.79203 -6.754119,-1.66839 -3.183385,0.16605 -6.507689,1.79955 -8.538083,4.19546 -0.201556,0.23784 -0.229736,0.29557 -0.185044,0.37907 0.03689,0.0689 0.05272,3.03363 0.05272,9.87258 l 0,9.77406 6.895964,-0.0128 6.895964,-0.0129 0.500836,-0.25469 z"
       id="path3962"
       style="fill:#ffffff;fill-opacity:1;fill-rule:nonzero;stroke:none" />
    <path
       d="m 36.559868,393.84048 0,-7.3797 18.475412,0 18.475413,0 0,7.3797 0,7.3797 -18.475413,0 -18.475412,0 0,-7.3797 z m 34.438587,0.0174 0,-4.88491 -15.963175,0 -15.963175,0 0,4.88491 0,4.8849 15.963175,0 15.963175,0 0,-4.8849 z"
       id="path3964"
       style="fill:#ffffff;fill-opacity:1;fill-rule:nonzero;stroke:none" />
  </g>
  <g
     transform="translate(-10.00002,0.375)"
     id="g4320">
    <g
       transform="translate(-109.28134,-447.56799)"
       id="BlackQueen"
       style="font-size:40px;font-style:normal;font-weight:normal;line-height:125%;letter-spacing:0px;word-spacing:0px;fill:#000000;fill-opacity:1;stroke:none;font-family:Bitstream Vera Sans">
      <path
         d="m 224.5255,802.9516 c -3.09246,-0.0651 -4.834,-1.64383 -5.22461,-4.73633 -1e-5,-0.9114 0.22785,-1.77403 0.68359,-2.58789 0.48827,-0.8463 1.17186,-1.49734 2.05078,-1.95312 0.87889,-0.45567 1.79035,-0.68354 2.73438,-0.6836 0.91144,6e-5 1.80662,0.22793 2.68554,0.6836 0.87889,0.45578 1.54621,1.10682 2.00196,1.95312 0.45571,0.81386 0.68357,1.67649 0.68359,2.58789 -0.13023,2.08339 -1.12307,3.48312 -2.97851,4.19922 l 11.66992,24.70703 -2.53906,-34.27734 c -2.70185,6e-5 -4.34573,-1.51361 -4.93165,-4.54102 -2e-5,-0.91139 0.22785,-1.77402 0.6836,-2.58789 0.48826,-0.81373 1.15557,-1.4485 2.00195,-1.9043 0.87888,-0.45566 1.82289,-0.68352 2.83203,-0.68359 0.91143,7e-5 1.79034,0.22793 2.63672,0.68359 0.87888,0.4558 1.54619,1.09057 2.00195,1.9043 0.48825,0.81387 0.73239,1.6765 0.73243,2.58789 -0.0651,1.46491 -0.84639,2.75071 -2.34375,3.85742 l 9.22851,36.52344 2.09961,-40.03906 c -2.18103,-0.9765 -3.30407,-2.24603 -3.36914,-3.8086 -4e-5,-0.91138 0.2441,-1.79029 0.73242,-2.63671 0.48824,-0.84629 1.15556,-1.48105 2.00196,-1.9043 0.87886,-0.42311 1.75776,-0.63469 2.63671,-0.63477 0.94397,8e-5 1.83915,0.21166 2.68555,0.63477 0.87886,0.42325 1.56245,1.05801 2.05078,1.9043 0.48823,0.84642 0.73237,1.72533 0.73242,2.63671 -0.0977,1.75788 -1.23702,3.02741 -3.41796,3.8086 l 1.85546,40.13672 9.03321,-36.13282 c -1.49745,-1.52988 -2.24615,-2.97845 -2.2461,-4.3457 -5e-5,-0.87884 0.22781,-1.72519 0.6836,-2.53906 0.48822,-0.84629 1.17182,-1.49733 2.05078,-1.95313 0.87885,-0.45566 1.75775,-0.68352 2.63672,-0.68359 0.9765,7e-5 1.90423,0.22793 2.7832,0.68359 0.87884,0.4558 1.54616,1.10684 2.00195,1.95313 0.48822,0.81387 0.73236,1.66022 0.73243,2.53906 -0.35814,2.76699 -1.93692,4.41087 -4.73633,4.93164 l -4.49219,33.88672 12.54883,-25.14648 c -1.39981,-1.10672 -2.09968,-2.35998 -2.09961,-3.75977 -7e-5,-0.9114 0.2278,-1.77403 0.68359,-2.58789 0.48822,-0.8463 1.15553,-1.48106 2.00196,-1.9043 0.87883,-0.45567 1.77401,-0.68353 2.68554,-0.68359 0.97649,6e-5 1.88795,0.22792 2.73438,0.68359 0.87883,0.42324 1.54614,1.058 2.00195,1.9043 0.4882,0.81386 0.73234,1.67649 0.73242,2.58789 -0.42325,3.05995 -2.24617,4.58989 -5.46875,4.58984 l -7.8125,22.60743 0,27.29492 -42.04101,0 0,-27.29492 -7.03125,-22.46094 m 46.28906,32.37305 0,-3.8086 -35.49805,0 0,3.8086 35.49805,0 m 0,14.55078 0,-3.85742 -35.49805,0 0,3.85742 35.49805,0"
         id="path3176"
         style="font-size:100px;font-variant:normal;font-stretch:normal;font-family:Arial;-inkscape-font-specification:Arial" />
    </g>
    <path
       d="m 126.04442,400.38277 0,-1.91907 17.74268,0 17.74267,0 0,1.91907 0,1.91907 -17.74267,0 -17.74268,0 0,-1.91907 z"
       id="path3966"
       style="fill:#ffffff;fill-opacity:1;fill-rule:nonzero;stroke:none" />
    <path
       d="m 126.04442,385.85595 0,-1.88418 17.74268,0 17.74267,0 0,1.88418 0,1.88418 -17.74267,0 -17.74268,0 0,-1.88418 z"
       id="path3968"
       style="fill:#ffffff;fill-opacity:1;fill-rule:nonzero;stroke:none" />
  </g>
  <g
     transform="translate(-10.00002,0.375)"
     id="g4313">
    <g
       transform="translate(-109.28133,-447.56799)"
       id="BlackRook"
       style="font-size:40px;font-style:normal;font-weight:normal;line-height:125%;letter-spacing:0px;word-spacing:0px;fill:#000000;fill-opacity:1;stroke:none;font-family:Bitstream Vera Sans">
      <path
         d="m 350.67783,796.16449 0,-4.58984 -31.25,0 0,4.58984 31.25,0 m 3.61328,47.70508 0,-5.41992 -38.47657,0 0,5.41992 38.47657,0 m -26.17188,-64.20899 13.52539,0 0,7.56836 8.34961,0 0,-7.56836 13.1836,0 0,7.91016 -5.61524,0 0,7.03125 -4.49219,7.32422 0,28.56445 4.49219,7.27539 0,6.98242 5.61524,0 0,7.95899 -56.29883,0 0,-7.95899 5.61523,0 0,-6.98242 4.54102,-7.42187 0.0488,0 0,-28.36914 -0.0488,0 -4.54102,-7.37305 0,-7.03125 -5.61523,0 0,-7.91016 12.93945,0 0,7.56836 8.30078,0 0,-7.56836 m 32.37305,70.3125 0,-2.68554 -50.87891,0 0,2.68554 50.87891,0"
         id="path3179"
         style="font-size:100px;font-variant:normal;font-stretch:normal;font-family:Arial;-inkscape-font-specification:Arial" />
    </g>
    <path
       d="m 206.54401,393.58457 0,-2.70415 19.2256,0 19.22559,0 0,2.70415 0,2.70414 -19.22559,0 -19.2256,0 0,-2.70414 z"
       id="path3970"
       style="fill:#ffffff;fill-opacity:1;fill-rule:nonzero;stroke:none" />
    <path
       d="m 200.35797,401.07454 0,-1.33231 25.41268,0 25.41267,0 0,1.33231 0,1.33232 -25.41267,0 -25.41268,0 0,-1.33232 z"
       id="path3972"
       style="fill:#ffffff;fill-opacity:1;fill-rule:nonzero;stroke:none" />
    <path
       d="m 210.1728,346.29872 0,-2.26799 15.59681,0 15.5968,0 0,2.26799 0,2.26799 -15.5968,0 -15.59681,0 0,-2.26799 z"
       id="path3974"
       style="fill:#ffffff;fill-opacity:1;fill-rule:nonzero;stroke:none" />
  </g>
  <g
     transform="translate(-10.00002,0.375)"
     id="g4308">
    <g
       transform="translate(-109.28133,-447.56799)"
       id="BlackBishop"
       style="font-size:40px;font-style:normal;font-weight:normal;line-height:125%;letter-spacing:0px;word-spacing:0px;fill:#000000;fill-opacity:1;stroke:none;font-family:Bitstream Vera Sans">
      <path
         d="m 395.18954,827.6098 c -3e-5,-1.9531 0.5208,-3.79229 1.5625,-5.51758 0.26039,-0.55335 0.56963,-1.05791 0.92774,-1.51367 -1.95316,-1.23694 -3.51566,-2.88082 -4.6875,-4.93164 -1.33467,-2.34371 -2.01826,-4.81766 -2.05078,-7.42187 l 0,-0.19532 c 0.0325,-2.60412 0.71611,-5.09435 2.05078,-7.4707 1.39971,-2.44135 3.36911,-4.34565 5.9082,-5.71289 0.91142,-0.45567 1.85543,-0.8463 2.83203,-1.17187 -0.84639,-0.58588 -1.54626,-1.35086 -2.09961,-2.29493 -0.71618,-1.26947 -1.07425,-2.57155 -1.07421,-3.90625 -4e-5,-1.39967 0.35803,-2.70175 1.07421,-3.90625 0.74866,-1.23691 1.75778,-2.19719 3.02735,-2.88086 1.26949,-0.68352 2.58784,-1.02531 3.95508,-1.02539 1.33459,8e-5 2.63667,0.34187 3.90625,1.02539 1.26948,0.68367 2.26231,1.64395 2.97851,2.88086 0.74865,1.2045 1.123,2.50658 1.12305,3.90625 -5e-5,1.3347 -0.34185,2.63678 -1.02539,3.90625 -0.52089,0.94407 -1.20448,1.72532 -2.05078,2.34375 0.9114,0.29303 1.83914,0.66738 2.7832,1.12305 2.50646,1.36724 4.47585,3.27154 5.9082,5.71289 1.36713,2.37635 2.067,4.86658 2.09961,7.4707 l 0,0.19532 c -0.0326,2.60421 -0.73248,5.07816 -2.09961,7.42187 -1.20448,2.01827 -2.7507,3.64587 -4.63867,4.88281 0.35802,0.48832 0.66726,1.00915 0.92774,1.5625 1.00905,1.72529 1.51361,3.56448 1.51367,5.51758 -6e-5,1.88805 -0.52089,3.71096 -1.5625,5.46875 l 13.57422,19.62891 -46.875,0 13.23242,-19.72656 c -0.81384,-1.72524 -1.22074,-3.51561 -1.22071,-5.3711 m 14.30665,-10.9375 0,-6.05469 8.39843,0 0,-5.27343 -8.39843,0 0,-6.05469 -5.76172,0 0,6.05469 -8.39844,0 0,5.27343 8.39844,0 0,6.05469 5.76172,0"
         id="path3182"
         style="font-size:100px;font-variant:normal;font-stretch:normal;font-family:Arial;-inkscape-font-specification:Arial" />
    </g>
    <path
       d="m 294.45163,366.05598 0,-3.01817 -4.18706,0 -4.18706,0 0,-2.61692 0,-2.61691 4.18706,0 4.18706,0 0,-3.03562 0,-3.03562 2.87861,0 2.8786,0 0,3.03562 0,3.03562 4.18707,0 4.18706,0 0,2.61691 0,2.61692 -4.18706,0 -4.18707,0 0,3.01817 0,3.01818 -2.8786,0 -2.87861,0 0,-3.01818 z"
       id="path3976"
       style="fill:#ffffff;fill-opacity:1;fill-rule:nonzero;stroke:none" />
  </g>
  <g
     transform="translate(-10.00002,0.375)"
     id="g4301">
    <g
       transform="translate(-109.28141,-447.56798)"
       id="BlackKnight"
       style="font-size:40px;font-style:normal;font-weight:normal;line-height:125%;letter-spacing:0px;word-spacing:0px;fill:#000000;fill-opacity:1;stroke:none;font-family:Bitstream Vera Sans">
      <path
         d="m 472.41611,791.47699 c 1.20438,-0.74864 1.8066,-1.75775 1.80664,-3.02734 -4e-5,-0.81374 -0.24418,-1.67637 -0.73242,-2.58789 -0.48832,-0.94395 -0.73246,-1.77402 -0.73243,-2.49024 -3e-5,-1.49732 0.94397,-2.7343 2.83204,-3.71094 2.76688,2.63679 4.26427,4.68757 4.49218,6.15235 0.26037,1.43235 0.39058,2.36009 0.39063,2.7832 -5e-5,1.53001 -0.55343,2.4903 -1.66016,2.88086 l 0.19531,0 c -4e-5,0.0326 -0.0326,0.0489 -0.0976,0.0488 17.44785,11.06776 26.90422,31.46162 28.36914,61.18164 l -47.36328,0 c -0.42321,-1.82292 -0.63479,-3.67838 -0.63477,-5.56641 -2e-5,-5.20832 3.28773,-10.1074 9.86328,-14.69726 6.60803,-4.62237 9.91207,-8.77276 9.91211,-12.45118 -4e-5,-0.26038 -0.0163,-0.50452 -0.0488,-0.73242 -2.14848,5.43623 -5.12699,8.15433 -8.93554,8.1543 l -0.48828,0 c -2.92972,4.75262 -6.071,7.12892 -9.42383,7.12891 -0.13024,10e-6 -0.24417,10e-6 -0.3418,0 l 2.34375,-5.07813 -5.22461,3.90625 c -3.71096,-0.91144 -6.00587,-2.71808 -6.88476,-5.41992 2.86456,-7.4544 4.29685,-14.27405 4.29687,-20.45899 -2e-5,-0.87886 -0.0326,-1.74148 -0.0977,-2.58789 1.56248,-3.54812 3.95506,-7.01492 7.17774,-10.40039 0.0976,-0.32546 0.14646,-0.6347 0.14648,-0.92773 -2e-5,-0.9114 -0.37437,-1.57872 -1.12304,-2.00195 -0.71618,-0.42312 -1.07425,-1.20437 -1.07422,-2.34375 -3e-5,-1.20437 0.32549,-2.8808 0.97656,-5.0293 3.38539,0.87897 5.98955,3.3041 7.8125,7.27539 l 4.24805,0 m -12.54883,12.45117 0,0.78125 c 0.13018,0.97661 0.32549,1.46489 0.58594,1.46485 l 1.02539,0 c 2.24606,4e-5 3.36911,-0.79748 3.36914,-2.39258 -3e-5,-1.10672 0.69984,-2.44136 2.09961,-4.00391 l -0.29297,0 c -3.12503,5e-5 -5.28974,1.04172 -6.49414,3.125 l -0.29297,1.02539 m -5.32227,21.97266 0,1.17187 c -2e-5,0.94404 0.45571,1.41604 1.36719,1.41602 l 0.48828,0 c 2.34373,-0.48826 3.5156,-1.59503 3.51563,-3.32031 l -0.3418,-1.66016 c -2.01825,3e-5 -3.69468,0.79755 -5.0293,2.39258 m 24.31641,-30.51758 2.53906,4.3457 c 12.20697,8.75656 18.40814,25.56969 18.60352,50.43946 l 3.75976,0 c -1.46491,-27.66924 -9.76568,-45.93095 -24.90234,-54.78516"
         id="path3185"
         style="font-size:100px;font-variant:normal;font-stretch:normal;font-family:Arial;-inkscape-font-specification:Arial" />
    </g>
    <path
       d="m 351.08488,358.57873 c -0.0559,-0.0246 -0.1472,-0.12985 -0.19504,-0.2249 -0.10485,-0.2083 -0.2002,-0.56736 -0.26785,-1.00871 -0.0207,-0.13524 -0.0244,-0.22261 -0.0244,-0.58306 l 0,-0.42399 0.1433,-0.50137 c 0.13629,-0.47682 0.14657,-0.50675 0.20996,-0.6113 0.33989,-0.56052 0.77977,-1.07132 1.26896,-1.47355 0.86105,-0.70798 1.96203,-1.17487 3.28144,-1.39157 0.54946,-0.0902 1.00322,-0.12796 1.66419,-0.13833 0.40957,-0.006 0.47838,-0.005 0.4695,0.01 -0.006,0.01 -0.0638,0.0783 -0.12903,0.15298 -1.00238,1.14656 -1.62163,2.18167 -1.84504,3.08406 -0.0578,0.23335 -0.089,0.46278 -0.0981,0.72167 -0.009,0.26737 -0.0249,0.42689 -0.0566,0.58449 -0.0892,0.44264 -0.31014,0.83113 -0.62675,1.1019 -0.47263,0.40418 -1.14039,0.62792 -2.09215,0.70101 -0.32011,0.0246 -1.64697,0.0253 -1.70241,9.3e-4 l 0,0 z"
       id="path3978"
       style="fill:#ffffff;fill-opacity:1;fill-rule:nonzero;stroke:none" />
    <path
       d="m 346.45098,380.90871 c -0.66469,-0.0478 -1.05735,-0.40247 -1.1565,-1.04468 -0.0233,-0.1508 -0.0303,-0.37181 -0.0305,-0.96135 l -2.1e-4,-0.56328 0.0665,-0.0779 c 0.27206,-0.31867 0.61454,-0.65506 0.93027,-0.91373 0.8881,-0.72759 1.91409,-1.17724 3.04639,-1.3351 0.29918,-0.0417 0.6885,-0.0703 0.8846,-0.0649 l 0.0995,0.003 0.16829,0.8156 c 0.1865,0.9038 0.18031,0.86079 0.16009,1.11311 -0.0493,0.61578 -0.25882,1.14455 -0.63031,1.59104 -0.079,0.0949 -0.27685,0.29239 -0.37255,0.3718 -0.57561,0.47763 -1.36206,0.824 -2.3835,1.04973 l -0.11988,0.0265 -0.28139,-10e-4 c -0.15476,-6.9e-4 -0.32612,-0.004 -0.3808,-0.008 l 0,0 z"
       id="path3980"
       style="fill:#ffffff;fill-opacity:1;fill-rule:nonzero;stroke:none" />
    <path
       d="m 390.69524,400.03925 c -0.54496,-22.69957 -6.41312,-38.50455 -17.48664,-47.09752 l -1.08267,-0.84013 -1.12718,-1.93313 c -0.61995,-1.06322 -1.14099,-1.96697 -1.15787,-2.00833 -0.0793,-0.19425 0.26452,-0.001 1.65751,0.93163 7.38202,4.94248 12.85844,12.05371 16.73917,21.73613 2.73594,6.82618 4.58215,14.79857 5.57587,24.07807 0.21664,2.02294 0.59109,6.67343 0.59498,7.38916 l 0.002,0.29925 -1.82672,0 -1.82673,0 -0.0613,-2.55513 0,0 z"
       id="path3990"
       style="fill:#ffffff;fill-opacity:1;fill-rule:nonzero;stroke:none" />
  </g>
  <g
     transform="translate(-10.00002,0.375)"
     id="g4294">
    <g
       transform="translate(-109.28139,-447.56803)"
       id="WhitePawn"
       style="font-size:40px;font-style:normal;font-weight:normal;line-height:125%;letter-spacing:0px;word-spacing:0px;fill:#000000;fill-opacity:1;stroke:none;font-family:Bitstream Vera Sans">
      <path
         d="m 548.17786,710.19769 c -0.94405,1.66021 -1.41605,3.40174 -1.41602,5.22461 -3e-5,1.82296 0.47197,3.54822 1.41602,5.17578 0.94397,1.62765 2.22978,2.89718 3.85742,3.8086 1.66011,0.91149 3.38537,1.36722 5.17578,1.36718 1.85542,4e-5 3.59696,-0.45569 5.22461,-1.36718 1.6601,-0.91142 2.94591,-2.18095 3.85742,-3.8086 0.9114,-1.62756 1.36713,-3.35282 1.36719,-5.17578 -6e-5,-1.82287 -0.47206,-3.5644 -1.41602,-5.22461 -0.91151,-1.69265 -2.19731,-2.97846 -3.85742,-3.85742 -1.6602,-0.87885 -3.38546,-1.3183 -5.17578,-1.31836 -1.75786,6e-5 -3.46684,0.43951 -5.12695,1.31836 -1.62765,0.87896 -2.92973,2.16477 -3.90625,3.85742 m 6.15234,-15.72265 c -4e-5,0.52089 0.13017,1.00918 0.39063,1.46484 0.26037,0.42324 0.61844,0.76504 1.07421,1.02539 0.45569,0.22793 0.92769,0.34186 1.41602,0.3418 0.52079,6e-5 1.00907,-0.11387 1.46484,-0.3418 0.45569,-0.26035 0.81376,-0.60215 1.07422,-1.02539 0.26037,-0.45566 0.39058,-0.94395 0.39063,-1.46484 -5e-5,-0.48822 -0.13026,-0.96022 -0.39063,-1.41602 -0.26046,-0.45566 -0.63481,-0.81373 -1.12304,-1.07422 -0.45578,-0.26035 -0.92778,-0.39055 -1.41602,-0.39062 -0.45577,7e-5 -0.92778,0.13027 -1.41602,0.39062 -0.45577,0.26049 -0.81384,0.61856 -1.07421,1.07422 -0.26046,0.4558 -0.39067,0.9278 -0.39063,1.41602 m 29.44336,65.13672 0,0.0488 -51.9043,0 0,-0.0488 -4.05273,0.0488 c -0.35809,-1.85546 -0.53713,-3.72721 -0.53711,-5.61523 -2e-5,-5.20832 1.33462,-10.18879 4.00391,-14.94141 2.7018,-4.78513 6.42901,-8.44723 11.18164,-10.98633 1.23694,-0.68356 2.50647,-1.26949 3.80859,-1.75781 -0.9766,-0.94397 -1.80667,-2.03447 -2.49023,-3.27148 -1.36722,-2.44137 -2.05082,-4.99671 -2.05079,-7.66602 -3e-5,-2.70177 0.68357,-5.27339 2.05079,-7.71484 1.3997,-2.47391 3.35283,-4.39448 5.85937,-5.76172 0.87887,-0.45567 1.79033,-0.8463 2.73438,-1.17188 -0.8464,-0.61843 -1.51372,-1.39967 -2.00196,-2.34375 -0.74873,-1.26946 -1.12308,-2.58782 -1.12304,-3.95507 -4e-5,-1.36712 0.35803,-2.66921 1.07421,-3.90625 0.71611,-1.26946 1.70895,-2.24603 2.97852,-2.92969 1.26949,-0.68352 2.57157,-1.02532 3.90625,-1.02539 1.30204,7e-5 2.58784,0.34187 3.85742,1.02539 1.26948,0.68366 2.26232,1.66023 2.97852,2.92969 0.74864,1.23704 1.12299,2.53913 1.12304,3.90625 -5e-5,1.36725 -0.34185,2.68561 -1.02539,3.95507 -0.55343,0.94408 -1.23703,1.7416 -2.05078,2.39258 0.87886,0.29303 1.80659,0.66738 2.78321,1.12305 2.44135,1.36724 4.36192,3.28781 5.76171,5.76172 1.39968,2.44145 2.09955,5.01307 2.09961,7.71484 -6e-5,2.66931 -0.66737,5.22465 -2.00195,7.66602 -0.7162,1.23701 -1.56256,2.32751 -2.53906,3.27148 1.23692,0.52087 2.4739,1.10681 3.71094,1.75781 4.78509,2.5391 8.52857,6.2012 11.23046,10.98633 2.70175,4.75262 4.05266,9.73309 4.05274,14.94141 -8e-5,1.88802 -0.19539,3.75977 -0.58594,5.61523 l -2.83203,-0.0488 m -1.66016,-6.39649 c -0.13027,-4.069 -1.23704,-7.94269 -3.32031,-11.62109 -2.24616,-3.93878 -5.37115,-6.96612 -9.375,-9.08203 -3.97141,-2.14841 -8.04041,-3.22263 -12.20703,-3.22266 -4.19926,3e-5 -8.30082,1.07425 -12.30469,3.22266 -3.97138,2.11591 -7.04755,5.14325 -9.22851,9.08203 -2.11591,3.6784 -3.23896,7.55209 -3.36914,11.62109 l 49.80468,0"
         id="path3170"
         style="font-size:100px;font-variant:normal;font-stretch:normal;font-family:Arial;-inkscape-font-specification:Arial" />
    </g>
    <path
       d="m 447.63763,249.72059 c -0.33867,-0.035 -0.67641,-0.12667 -0.99762,-0.27069 -0.33547,-0.15041 -0.7201,-0.4568 -0.98128,-0.78167 -0.33895,-0.4216 -0.54213,-0.93997 -0.59326,-1.51352 -0.0379,-0.42524 0.027,-0.86172 0.18735,-1.26051 0.33838,-0.84138 0.96441,-1.43019 1.82315,-1.71477 0.28824,-0.0955 0.48774,-0.13164 0.77557,-0.14042 0.57211,-0.0175 1.04944,0.11827 1.63325,0.46442 0.36851,0.21849 0.71258,0.55667 0.93508,0.91909 0.48136,0.78403 0.56451,1.70071 0.2316,2.55301 -0.21829,0.55886 -0.63425,1.03938 -1.1897,1.37437 -0.26603,0.16044 -0.70016,0.30196 -1.08765,0.35457 -0.16325,0.0222 -0.58815,0.0315 -0.73649,0.0161 z"
       id="path3992"
       style="fill:#ffffff;fill-opacity:1;fill-rule:nonzero;stroke:none" />
    <path
       d="m 446.78464,278.11988 c -2.30044,-0.25968 -4.64049,-1.38048 -6.24118,-2.98931 -1.5358,-1.54361 -2.52513,-3.48006 -2.92611,-5.72738 -0.13003,-0.72881 -0.11877,-2.43136 0.0213,-3.21396 0.62696,-3.50384 2.82574,-6.39047 5.90283,-7.74944 1.26266,-0.55765 2.44781,-0.85181 3.75979,-0.93321 1.77888,-0.11037 3.52282,0.22479 5.18478,0.99644 2.20241,1.02258 3.60604,2.41019 4.73906,4.68499 0.56078,1.12587 0.87417,2.13886 1.05399,3.40684 0.0859,0.60571 0.0725,2.0454 -0.0252,2.71396 -0.33711,2.30592 -1.45786,4.51286 -3.05029,6.00652 -1.63876,1.53712 -3.88594,2.56379 -6.14969,2.80962 -0.52466,0.057 -1.7437,0.0542 -2.26921,-0.005 l 0,0 z"
       id="path3994"
       style="fill:#ffffff;fill-opacity:1;fill-rule:nonzero;stroke:none" />
    <path
       d="m 423.05186,305.46974 c 0,-0.30001 0.0964,-1.40382 0.18378,-2.10395 0.37433,-2.99976 1.31264,-5.87237 2.84216,-8.70115 1.30327,-2.41034 2.47935,-4.03132 4.10967,-5.66434 1.97599,-1.97925 4.15869,-3.48345 6.92911,-4.77517 5.5269,-2.57694 11.26858,-3.15213 16.89609,-1.69262 1.76959,0.45895 3.26943,1.02662 5.11026,1.93418 2.81275,1.38672 4.68886,2.70228 6.62952,4.64873 2.32692,2.33387 4.11065,5.13092 5.43245,8.51859 0.93294,2.39106 1.4006,4.60072 1.61013,7.60784 l 0.0265,0.37982 -24.88482,0 -24.88482,0 0,-0.15193 z"
       id="path3996"
       style="fill:#ffffff;fill-opacity:1;fill-rule:nonzero;stroke:none" />
  </g>
  <g
     transform="translate(-10.00002,0.375)"
     id="g4289">
    <g
       transform="translate(-109.28134,-447.56805)"
       id="WhiteKnight"
       style="font-size:40px;font-style:normal;font-weight:normal;line-height:125%;letter-spacing:0px;word-spacing:0px;fill:#000000;fill-opacity:1;stroke:#000000;stroke-width:0.75;stroke-miterlimit:4;stroke-opacity:1;stroke-dasharray:none;font-family:Bitstream Vera Sans">
      <path
         d="m 472.80673,698.33246 c 0.13017,-0.26036 0.19528,-0.5696 0.19531,-0.92774 -3e-5,-0.68353 -0.17907,-1.36712 -0.5371,-2.05078 -0.35812,-0.71608 -0.53715,-1.30201 -0.53711,-1.75781 -4e-5,-1.59498 1.13928,-3.92246 3.41796,-6.98242 3.97131,3.38548 5.95699,6.75462 5.95704,10.10742 -5e-5,0.84642 -0.13026,1.70905 -0.39063,2.58789 15.95046,10.51437 24.65813,30.63154 26.12305,60.35156 l -47.36328,0 c -0.42321,-1.82291 -0.63479,-3.67838 -0.63477,-5.5664 -2e-5,-5.20833 3.20635,-10.22134 9.61914,-15.03907 6.41272,-4.81768 9.6191,-8.2682 9.61914,-10.35156 l 0,-0.29297 c -2.92973,3.74352 -5.30603,5.66409 -7.1289,5.76172 -1.49744,4.62242 -4.81774,7.22658 -9.96094,7.8125 l -0.43945,-1.07422 -2.14844,1.46485 c -4.52476,-1.49738 -7.29169,-3.54816 -8.30078,-6.15235 2.53904,-8.10543 3.80857,-15.28316 3.80859,-21.5332 -2e-5,-0.97652 -0.0326,-1.92053 -0.0977,-2.83203 1.56248,-3.54813 3.51561,-7.30789 5.85938,-11.2793 -0.68362,-1.0416 -1.09052,-1.70892 -1.2207,-2.00195 -0.0977,-0.32546 -0.14651,-0.5696 -0.14649,-0.73242 -2e-5,-0.87885 0.53709,-3.10866 1.61133,-6.68946 3.38539,0.87898 5.957,3.27155 7.71484,7.17774 l 4.98047,0 m -12.89062,13.52539 c 1.2044,-2.05073 3.36911,-3.07612 6.49414,-3.07617 l 0.29297,0 c -1.39977,1.49744 -2.09964,2.8158 -2.09961,3.95508 -3e-5,1.59509 -1.12308,2.39262 -3.36914,2.39257 l -1.02539,0 c -0.26045,5e-5 -0.45576,-0.48823 -0.58594,-1.46484 l 0,-0.73242 0.29297,-1.07422 m -0.58594,20.60547 0.3418,1.70898 c -3e-5,1.69273 -1.1719,2.78323 -3.51563,3.27149 l -0.48828,0 c -0.91148,2e-5 -1.36721,-0.48826 -1.36719,-1.46485 l 0,-1.12304 c 1.33462,-1.59503 3.01105,-2.39255 5.0293,-2.39258 m 7.51953,-33.1543 c -1.13935,-3.12494 -2.96227,-5.30592 -5.46875,-6.54297 -0.81383,2.0183 -1.22073,3.62962 -1.2207,4.83399 -3e-5,0.87896 0.22784,1.59511 0.68359,2.14843 0.48826,0.5209 0.7324,1.07428 0.73242,1.66016 -2e-5,0.52089 -0.17906,1.02545 -0.53711,1.51367 -1.92059,3.15761 -3.59702,6.34771 -5.02929,9.57031 0.13018,1.43234 0.19529,2.86463 0.19531,4.29688 -2e-5,6.4128 -1.20445,12.74417 -3.61328,18.99414 0.81378,2.47398 2.89711,4.10158 6.25,4.88281 l 4.73633,-3.51562 -1.70899,3.61328 c 4.3945,-0.3255 7.06377,-2.83201 8.00781,-7.51953 3.41793,-0.13018 6.46155,-3.01104 9.13086,-8.64258 0.35803,0.9766 0.53707,1.95316 0.53711,2.92969 -4e-5,3.90628 -3.10876,8.10549 -9.32617,12.59765 -6.21748,4.49221 -9.3262,8.7728 -9.32617,12.8418 -3e-5,1.75782 0.19528,3.48308 0.58594,5.17578 l 42.72461,-0.0488 c -1.2696,-26.79033 -9.94473,-46.37039 -26.02539,-58.74023 0.0325,6e-5 0.0488,-0.0162 0.0488,-0.0488 l -0.19531,0 c 1.00907,-0.32546 1.51363,-1.18809 1.51367,-2.58789 -4e-5,-0.39056 -0.11397,-1.22064 -0.34179,-2.49023 -0.19536,-1.30202 -1.54627,-3.15749 -4.05274,-5.56641 -1.00915,2.40892 -1.51371,4.28067 -1.51367,5.61523 -4e-5,0.61856 0.14644,1.2045 0.43945,1.75782 0.29293,0.52089 0.43942,1.09055 0.43946,1.70898 -4e-5,0.55345 -0.13025,1.07428 -0.39063,1.5625 l -7.27539,0"
         id="path3167"
         style="font-size:100px;font-variant:normal;font-stretch:normal;stroke:#000000;stroke-width:0.75;stroke-miterlimit:4;stroke-opacity:1;stroke-dasharray:none;font-family:Arial;-inkscape-font-specification:Arial" />
    </g>
    <path
       d="m 352.21839,310.38355 c -0.42066,-1.17325 -0.64051,-5.3155 -0.35517,-6.69191 0.45965,-2.21731 1.78155,-4.39548 4.12999,-6.80526 1.46391,-1.50214 2.4666,-2.36577 4.89845,-4.21912 5.47214,-4.17038 7.83581,-6.84199 8.9729,-10.14187 0.34525,-1.00194 0.37103,-1.17953 0.37024,-2.5506 -8e-4,-1.36766 -0.0812,-1.91676 -0.40436,-2.76307 -0.10761,-0.28179 -0.14811,-0.23122 -0.76022,0.94931 -2.15666,4.15941 -4.52726,6.556 -7.18458,7.2634 -0.32847,0.0874 -0.76105,0.15958 -0.96127,0.16032 -0.3941,0.001 -0.33613,-0.10982 -0.72415,1.39001 -0.36576,1.41379 -1.52674,3.36565 -2.47331,4.15816 -1.24125,1.03923 -2.77881,1.71323 -4.30124,1.88548 l -0.70169,0.0794 0.10634,-0.27002 c 0.0585,-0.14852 0.41867,-0.92713 0.80042,-1.73025 0.38174,-0.80312 0.67603,-1.47826 0.65398,-1.50032 -0.022,-0.022 -1.10101,0.74596 -2.39769,1.70669 -1.29667,0.96073 -2.41545,1.72913 -2.48617,1.70756 -3.1643,-0.9651 -4.81456,-2.138 -5.72084,-4.06602 -0.30918,-0.65777 -0.30716,-0.7886 0.0259,-1.67377 1.04278,-2.77156 2.03145,-6.48678 2.55851,-9.61437 0.52222,-3.09886 0.6171,-4.43057 0.62636,-8.79175 l 0.009,-4.19431 0.60644,-1.30364 c 0.83863,-1.80275 2.44478,-4.82359 3.66614,-6.89524 0.56765,-0.96282 1.06118,-1.93914 1.10705,-2.18995 0.12114,-0.6625 -0.0539,-1.25048 -0.61727,-2.07335 -0.67657,-0.98823 -0.81916,-1.65241 -0.64549,-3.0066 0.13934,-1.08651 0.97731,-3.85906 1.16636,-3.85906 0.196,0 1.60621,0.96854 2.22362,1.5272 1.07734,0.97482 2.24013,2.69131 2.81395,4.15387 l 0.30619,0.78043 3.66477,0 3.66476,0 0.18435,-0.4251 c 0.10946,-0.25239 0.18662,-0.74748 0.18992,-1.21861 0.005,-0.65136 -0.0623,-0.956 -0.37348,-1.7004 -0.63827,-1.52711 -0.52299,-2.99504 0.44928,-5.7206 0.24529,-0.68763 0.4807,-1.30642 0.52314,-1.37509 0.1521,-0.24609 2.40815,2.20968 3.27531,3.56527 0.53104,0.83016 0.69909,1.31578 0.91099,2.63259 0.20072,1.24735 0.2168,2.09025 0.0513,2.68634 -0.13804,0.49712 -0.70837,1.19136 -1.10149,1.34082 -0.25906,0.0985 -0.22672,0.13989 0.67315,0.86149 5.53487,4.43843 10.2847,9.85762 13.88977,15.84714 6.29669,10.46145 10.19083,24.19011 11.14157,39.27917 0.0648,1.02874 0.14475,2.11274 0.17764,2.40889 l 0.0598,0.53846 -21.3191,0 c -16.95261,0 -21.32951,-0.029 -21.36991,-0.1417 z m -4.58206,-20.67232 c 2.26694,-0.6721 3.09277,-1.99007 2.6114,-4.16767 l -0.14722,-0.66602 -0.81088,0.057 c -1.39359,0.098 -2.67986,0.69493 -3.73125,1.73147 l -0.53709,0.5295 0.004,0.92401 c 0.004,0.99955 0.1374,1.37333 0.57526,1.61602 0.3718,0.20607 1.29586,0.19501 2.03577,-0.0244 l 0,0 z m 5.93476,-22.31104 c 0.67439,-0.20296 1.23421,-0.58204 1.48398,-1.00486 0.10615,-0.1797 0.24134,-0.71765 0.30041,-1.19546 0.1356,-1.09667 0.64374,-2.17859 1.52068,-3.23778 l 0.64745,-0.782 -1.23499,0.0674 c -1.40651,0.0768 -2.30145,0.28963 -3.26597,0.77681 -2.26673,1.1449 -3.24433,3.16326 -2.47626,5.11248 l 0.1675,0.4251 1.15996,0 c 0.6778,0 1.38328,-0.0672 1.69724,-0.1617 z"
       id="path3998"
       style="fill:#ffffff;fill-opacity:1;fill-rule:nonzero;stroke:none" />
  </g>
  <g
     transform="translate(-10.00002,0.375)"
     id="g4282">
    <g
       transform="translate(-109.28133,-447.56805)"
       id="WhiteBishop"
       style="font-size:40px;font-style:normal;font-weight:normal;line-height:125%;letter-spacing:0px;word-spacing:0px;fill:#000000;fill-opacity:1;stroke:none;font-family:Bitstream Vera Sans">
      <path
         d="m 396.70322,739.93402 c -1.00915,-1.72524 -1.51371,-3.5156 -1.51368,-5.37109 -3e-5,-1.9531 0.5208,-3.79229 1.5625,-5.51758 0.26039,-0.55336 0.56963,-1.05791 0.92774,-1.51367 -1.95316,-1.23695 -3.51566,-2.88083 -4.6875,-4.93164 -1.33467,-2.34371 -2.01826,-4.81767 -2.05078,-7.42188 l 0,-0.19531 c 0.0325,-2.60412 0.71611,-5.09435 2.05078,-7.4707 1.39971,-2.44136 3.36911,-4.34565 5.9082,-5.71289 0.91142,-0.45568 1.85543,-0.8463 2.83203,-1.17188 -0.84639,-0.58588 -1.54626,-1.35085 -2.09961,-2.29492 -0.71618,-1.26947 -1.07425,-2.57155 -1.07421,-3.90625 -4e-5,-1.39967 0.35803,-2.70176 1.07421,-3.90625 0.74866,-1.23691 1.75778,-2.1972 3.02735,-2.88086 1.26949,-0.68352 2.58784,-1.02532 3.95508,-1.02539 1.33459,7e-5 2.63667,0.34187 3.90625,1.02539 1.26948,0.68366 2.26231,1.64395 2.97851,2.88086 0.74865,1.20449 1.123,2.50658 1.12305,3.90625 -5e-5,1.3347 -0.34185,2.63678 -1.02539,3.90625 -0.52089,0.94407 -1.20448,1.72532 -2.05078,2.34375 0.9114,0.29303 1.83914,0.66737 2.7832,1.12305 2.50646,1.36724 4.47585,3.27153 5.9082,5.71289 1.36713,2.37635 2.067,4.86658 2.09961,7.4707 l 0,0.19531 c -0.0326,2.60421 -0.73248,5.07817 -2.09961,7.42188 -1.20448,2.01826 -2.7507,3.64586 -4.63867,4.88281 0.35802,0.48831 0.66726,1.00914 0.92774,1.5625 1.00905,1.72529 1.51361,3.56448 1.51367,5.51758 -6e-5,1.88804 -0.52089,3.71096 -1.5625,5.46875 -0.0652,0.0977 -0.13027,0.21161 -0.19532,0.34179 l 13.76954,19.28711 -46.875,0 13.23242,-19.72656 0.29297,0 m 12.79297,-16.30859 0,-6.05469 8.39843,0 0,-5.27344 -8.39843,0 0,-6.05469 -5.76172,0 0,6.05469 -8.39844,0 0,5.27344 8.39844,0 0,6.05469 5.76172,0 m 2.14843,16.30859 c 1.95308,-1.46482 2.92964,-3.38539 2.92969,-5.76172 -5e-5,-1.39971 -0.3744,-2.73434 -1.12305,-4.0039 -0.71619,-1.2695 -1.70903,-2.22979 -2.97851,-2.88086 -1.23703,-0.68356 -2.53911,-1.02536 -3.90625,-1.02539 -1.36723,3e-5 -2.68559,0.34183 -3.95508,1.02539 -1.23702,0.65107 -2.22986,1.61136 -2.97852,2.88086 -0.71618,1.26956 -1.07425,2.60419 -1.07421,4.0039 -4e-5,2.08336 1.02535,4.00393 3.07617,5.76172 l -10.83985,16.60156 31.73828,0 -10.88867,-16.60156 m -9.71679,-48.38867 c -0.48832,0.84642 -0.73247,1.7416 -0.73243,2.68555 -4e-5,0.94407 0.22783,1.85553 0.6836,2.73437 0.48824,0.84642 1.15556,1.49746 2.00195,1.95313 0.87886,0.45579 1.79032,0.68365 2.73438,0.68359 0.94396,6e-5 1.85542,-0.2278 2.73437,-0.68359 0.87886,-0.45567 1.54618,-1.10671 2.00195,-1.95313 0.48824,-0.87884 0.73238,-1.7903 0.73243,-2.73437 -5e-5,-0.94395 -0.24419,-1.83913 -0.73243,-2.68555 -0.48833,-0.87884 -1.17192,-1.52988 -2.05078,-1.95313 -0.87895,-0.45565 -1.77413,-0.68352 -2.68554,-0.68359 -0.94406,7e-5 -1.83924,0.22794 -2.68555,0.68359 -0.8464,0.42325 -1.51371,1.07429 -2.00195,1.95313"
         id="path3164"
         style="font-size:100px;font-variant:normal;font-stretch:normal;font-family:Arial;-inkscape-font-specification:Arial" />
    </g>
    <path
       d="m 296.86261,252.00731 c -0.81577,-0.0933 -1.36637,-0.24458 -2.03587,-0.55919 -0.86393,-0.40598 -1.58993,-1.05245 -2.11071,-1.8795 -0.26729,-0.4245 -0.53328,-1.10492 -0.65997,-1.68826 -0.0967,-0.44508 -0.11248,-0.61576 -0.11228,-1.21165 1.8e-4,-0.5017 0.006,-0.60264 0.0453,-0.83045 0.12065,-0.69342 0.32816,-1.2652 0.68427,-1.8855 0.23857,-0.41555 0.47384,-0.72841 0.78873,-1.04886 0.35497,-0.36124 0.69599,-0.60913 1.20103,-0.87302 0.63518,-0.33191 1.16575,-0.51095 1.82874,-0.61712 0.37947,-0.0608 1.25374,-0.0657 1.61317,-0.009 0.96136,0.15124 1.99428,0.57854 2.7124,1.12208 0.33502,0.25357 0.72391,0.665 0.97922,1.03597 0.95466,1.38713 1.23368,3.01352 0.78517,4.57675 -0.20734,0.72266 -0.57811,1.44889 -1.01912,1.99617 -0.75853,0.9413 -2.02092,1.61499 -3.43763,1.83453 -0.20021,0.031 -1.08794,0.0572 -1.26248,0.0373 l 0,0 z"
       id="path4000"
       style="fill:#ffffff;fill-opacity:1;fill-rule:nonzero;stroke:none" />
    <path
       d="m 294.45806,273.01713 0,-3.0182 -4.19431,0 -4.19432,0 0,-2.62145 0,-2.62144 4.19432,0 4.19431,0 0,-3.03238 0,-3.03237 2.8765,0 2.87651,0 0,3.03237 0,3.03238 4.19431,0 4.19431,0 0,2.62144 0,2.62145 -4.19431,0 -4.19431,0 0,3.0182 0,3.01821 -2.87651,0 -2.8765,0 0,-3.01821 z"
       id="path4002"
       style="fill:#ffffff;fill-opacity:1;fill-rule:nonzero;stroke:none" />
    <path
       d="m 281.61439,308.89292 c 0,-0.0172 2.42491,-3.74485 5.38868,-8.28366 l 5.38868,-8.25238 -0.38137,-0.3442 c -0.8074,-0.7287 -1.71533,-1.91423 -2.08928,-2.72807 -0.85972,-1.87105 -0.80117,-4.05922 0.16244,-6.07055 0.80689,-1.6842 1.96839,-2.85132 3.63201,-3.64958 1.2291,-0.58976 2.19698,-0.81273 3.54249,-0.81609 1.43497,-0.004 2.29551,0.20237 3.65586,0.87493 0.91601,0.45289 1.59777,0.94202 2.17605,1.56124 0.94766,1.01475 1.71439,2.48851 2.01723,3.87739 0.13014,0.59683 0.17522,1.91969 0.0875,2.56614 -0.22702,1.67225 -1.04112,3.17046 -2.3253,4.27933 -0.26497,0.2288 -0.47865,0.45028 -0.47484,0.49218 0.005,0.0586 10.51219,16.13904 10.75076,16.45374 0.0429,0.0566 -3.1139,0.0709 -15.73859,0.0709 -8.68576,0 -15.79229,-0.0141 -15.79229,-0.0313 z"
       id="path4004"
       style="fill:#ffffff;fill-opacity:1;fill-rule:nonzero;stroke:none" />
  </g>
  <g
     transform="translate(-10.00002,0.375)"
     id="g4274">
    <g
       transform="translate(-109.28133,-447.56805)"
       id="WhiteRook"
       style="font-size:40px;font-style:normal;font-weight:normal;line-height:125%;letter-spacing:0px;word-spacing:0px;fill:#000000;fill-opacity:1;stroke:none;font-family:Bitstream Vera Sans">
      <path
         d="m 328.11923,686.61371 13.52539,0 0,7.56836 8.34961,0 0,-7.56836 13.1836,0 0,7.91015 -5.61524,0 0,7.03125 -4.49219,7.32422 0,28.56446 4.49219,7.27539 0,6.98242 5.61524,0 0,7.95898 -56.29883,0 0,-7.95898 5.61523,0 0,-6.98242 4.54102,-7.42188 0.0488,0 0,-28.36914 -0.0488,0 -4.54102,-7.37305 0,-7.03125 -5.61523,0 0,-7.91015 12.93945,0 0,7.56836 8.30078,0 0,-7.56836 m 32.37305,70.3125 0,-2.68555 -50.87891,0 0,2.68555 50.87891,0 m -9.76563,-48.92578 4.00391,-6.39649 0,-4.63867 -39.35547,0 0,4.63867 4.00391,6.39649 31.34765,0 m -31.34765,31.73828 -3.56446,5.66406 0,6.25 38.47657,0 0,-6.25 -3.61328,-5.66406 -31.29883,0 m 31.29883,-2.53906 0,-26.61133 0.0488,-0.0977 -31.34765,0 0,26.70899 31.29883,0"
         id="path3161"
         style="font-size:100px;font-variant:normal;font-stretch:normal;font-family:Arial;-inkscape-font-specification:Arial" />
    </g>
    <path
       d="m 200.3336,308.01074 0,-1.32259 25.42996,0 25.42996,0 0,1.32259 0,1.3226 -25.42996,0 -25.42996,0 0,-1.3226 z"
       id="path4006"
       style="fill:#ffffff;fill-opacity:1;fill-rule:nonzero;stroke:none" />
    <path
       d="m 206.54591,300.96691 9e-5,-3.11613 1.77778,-2.82555 1.77778,-2.82555 15.64528,0 15.64528,0 1.79266,2.80551 1.79266,2.80552 0.002,3.13616 0.002,3.13616 -19.21776,0 -19.21775,0 1e-4,-3.11612 0,0 z"
       id="path4008"
       style="fill:#ffffff;fill-opacity:1;fill-rule:nonzero;stroke:none" />
    <path
       d="m 210.02201,260.27934 c -0.0438,-0.0672 -0.945,-1.50478 -2.00256,-3.19471 l -1.92285,-3.07261 0,-2.30695 0,-2.30695 19.66265,0 19.66265,0 0,2.32616 0,2.32616 -1.98297,3.16734 -1.98297,3.16733 -15.67712,0.008 -15.67712,0.008 -0.0797,-0.12211 0,0 z"
       id="path4010"
       style="fill:#ffffff;fill-opacity:1;fill-rule:nonzero;stroke:none" />
    <path
       d="m 210.10792,276.28165 0,-13.34877 15.63877,0 15.63878,0 -0.0117,13.34877 -0.0117,13.34877 -15.62711,0 -15.62711,0 0,-13.34877 z"
       id="path4012"
       style="fill:#ffffff;fill-opacity:1;fill-rule:nonzero;stroke:none" />
  </g>
  <g
     transform="translate(-10.00002,0.375)"
     id="g4263">
    <g
       transform="translate(-109.28134,-447.56805)"
       id="WhiteQueen"
       style="font-size:40px;font-style:normal;font-weight:normal;line-height:125%;letter-spacing:0px;word-spacing:0px;fill:#000000;fill-opacity:1;stroke:none;font-family:Bitstream Vera Sans">
      <path
         d="m 224.5255,709.90472 c -3.09246,-0.0651 -4.834,-1.64382 -5.22461,-4.73632 -1e-5,-0.91141 0.22785,-1.77404 0.68359,-2.58789 0.48827,-0.8463 1.17186,-1.49734 2.05078,-1.95313 0.87889,-0.45567 1.79035,-0.68353 2.73438,-0.68359 0.91144,6e-5 1.80662,0.22792 2.68554,0.68359 0.87889,0.45579 1.54621,1.10683 2.00196,1.95313 0.45571,0.81385 0.68357,1.67648 0.68359,2.58789 -0.13023,2.08338 -1.12307,3.48312 -2.97851,4.19921 l 11.66992,24.70704 -2.53906,-34.27735 c -2.70185,6e-5 -4.34573,-1.51361 -4.93165,-4.54101 -2e-5,-0.9114 0.22785,-1.77403 0.6836,-2.58789 0.48826,-0.81374 1.15557,-1.4485 2.00195,-1.9043 0.87888,-0.45566 1.82289,-0.68353 2.83203,-0.68359 0.91143,6e-5 1.79034,0.22793 2.63672,0.68359 0.87888,0.4558 1.54619,1.09056 2.00195,1.9043 0.48825,0.81386 0.73239,1.67649 0.73243,2.58789 -0.0651,1.4649 -0.84639,2.75071 -2.34375,3.85742 l 9.22851,36.52344 2.09961,-40.03907 c -2.18103,-0.97649 -3.30407,-2.24602 -3.36914,-3.80859 -4e-5,-0.91139 0.2441,-1.7903 0.73242,-2.63672 0.48824,-0.84628 1.15556,-1.48105 2.00196,-1.9043 0.87886,-0.4231 1.75776,-0.63469 2.63671,-0.63476 0.94397,7e-5 1.83915,0.21166 2.68555,0.63476 0.87886,0.42325 1.56245,1.05802 2.05078,1.9043 0.48823,0.84642 0.73237,1.72533 0.73242,2.63672 -0.0977,1.75788 -1.23702,3.02741 -3.41796,3.80859 l 1.85546,40.13672 9.03321,-36.13281 c -1.49745,-1.52989 -2.24615,-2.97845 -2.2461,-4.3457 -5e-5,-0.87884 0.22781,-1.7252 0.6836,-2.53907 0.48822,-0.84628 1.17182,-1.49732 2.05078,-1.95312 0.87885,-0.45566 1.75775,-0.68353 2.63672,-0.68359 0.9765,6e-5 1.90423,0.22793 2.7832,0.68359 0.87884,0.4558 1.54616,1.10684 2.00195,1.95312 0.48822,0.81387 0.73236,1.66023 0.73243,2.53907 -0.35814,2.76699 -1.93692,4.41086 -4.73633,4.93164 l -4.49219,33.88672 12.54883,-25.14649 c -1.39981,-1.10672 -2.09968,-2.35997 -2.09961,-3.75976 -7e-5,-0.91141 0.2278,-1.77404 0.68359,-2.58789 0.48822,-0.8463 1.15553,-1.48107 2.00196,-1.9043 0.87883,-0.45567 1.77401,-0.68354 2.68554,-0.6836 0.97649,6e-5 1.88795,0.22793 2.73438,0.6836 0.87883,0.42323 1.54614,1.058 2.00195,1.9043 0.4882,0.81385 0.73234,1.67648 0.73242,2.58789 -0.42325,3.05994 -2.24617,4.58989 -5.46875,4.58984 l -7.8125,22.60742 0,27.29492 -42.04101,0 0,-27.29492 -7.03125,-22.46094 m 46.28906,36.57227 0,-10.98633 -8.83789,3.66211 -17.72461,0 -8.93555,-2.97851 0,10.30273 35.49805,0 m -35.49805,2.34375 0,8.00781 35.49805,0 0,-8.00781 -35.49805,0 m -2.05078,-16.60156 3.75977,2.05078 -11.2793,-25.6836 c 0.22785,-0.0976 0.45571,-0.21153 0.68359,-0.34179 0.58592,-0.32547 1.04165,-0.76492 1.36719,-1.31836 0.3255,-0.58589 0.48826,-1.1881 0.48828,-1.80664 -2e-5,-0.65099 -0.16278,-1.2532 -0.48828,-1.80664 -0.32554,-0.58588 -0.78127,-1.04161 -1.36719,-1.36719 -0.5534,-0.32546 -1.15561,-0.48822 -1.80664,-0.48828 -0.58595,6e-5 -1.17189,0.16282 -1.75781,0.48828 -0.5534,0.32558 -1.00913,0.78131 -1.36719,1.36719 -0.32553,0.55344 -0.48829,1.15565 -0.48828,1.80664 -1e-5,0.61854 0.16275,1.22075 0.48828,1.80664 0.32551,0.55344 0.78124,0.99289 1.36719,1.31836 0.58592,0.32557 1.17186,0.48833 1.75781,0.48828 0.22785,5e-5 0.48827,-0.0162 0.78125,-0.0488 l 7.86133,23.53516 m 7.27539,1.85547 6.64063,1.5625 -9.13086,-37.15821 c 0.19528,-0.065 0.37432,-0.14642 0.53711,-0.24414 0.55335,-0.32546 0.97653,-0.76491 1.26953,-1.31836 0.32549,-0.58587 0.48825,-1.18808 0.48828,-1.80664 -3e-5,-0.61842 -0.16279,-1.22064 -0.48828,-1.80664 -0.293,-0.58587 -0.73245,-1.02532 -1.31836,-1.31836 -0.58597,-0.32545 -1.1719,-0.48821 -1.75781,-0.48828 -0.61852,7e-5 -1.22073,0.16283 -1.80664,0.48828 -0.55342,0.29304 -0.99287,0.73249 -1.31836,1.31836 -0.32555,0.586 -0.48831,1.18822 -0.48828,1.80664 -3e-5,0.61856 0.14645,1.22077 0.43945,1.80664 0.32549,0.55345 0.78122,0.9929 1.36719,1.31836 0.58591,0.32558 1.18812,0.48834 1.80664,0.48828 0.22783,6e-5 0.47197,-0.0162 0.73242,-0.0488 l 3.02734,35.40039 m 17.91992,1.17187 5.61524,-1.31836 4.6875,-35.20508 c 0.1627,0.0326 0.32546,0.0489 0.48828,0.0488 0.61843,6e-5 1.22064,-0.1627 1.80664,-0.48828 0.61843,-0.32546 1.07416,-0.76491 1.36719,-1.31836 0.32545,-0.58587 0.48821,-1.18809 0.48828,-1.80664 -7e-5,-0.61842 -0.1791,-1.22064 -0.53711,-1.80664 -0.32558,-0.58587 -0.78131,-1.02532 -1.36719,-1.31836 -0.55345,-0.32545 -1.13938,-0.48821 -1.75781,-0.48828 -0.586,7e-5 -1.17193,0.16283 -1.75781,0.48828 -0.586,0.29304 -1.04173,0.73249 -1.36719,1.31836 -0.32558,0.586 -0.48834,1.18822 -0.48828,1.80664 -6e-5,0.61855 0.1627,1.22077 0.48828,1.80664 0.32546,0.55345 0.78119,0.9929 1.36719,1.31836 0.26035,0.16282 0.50449,0.27675 0.73242,0.3418 l -9.76563,36.62109 m -7.71484,0.39063 4.88281,0 -2.34375,-40.72266 c 0.61845,6e-5 1.18811,-0.1627 1.70899,-0.48828 0.55334,-0.32546 0.99279,-0.76491 1.31836,-1.31836 0.35802,-0.58587 0.53706,-1.20436 0.53711,-1.85547 -5e-5,-0.61842 -0.17909,-1.20436 -0.53711,-1.75781 -0.35812,-0.58587 -0.81385,-1.0416 -1.36719,-1.36719 -0.55343,-0.32545 -1.13937,-0.48821 -1.75781,-0.48828 -0.58599,7e-5 -1.1882,0.16283 -1.80664,0.48828 -0.58598,0.32559 -1.04171,0.78132 -1.36719,1.36719 -0.29301,0.55345 -0.4395,1.13939 -0.43945,1.75781 -5e-5,0.65111 0.14644,1.2696 0.43945,1.85547 0.32548,0.55345 0.79748,0.9929 1.41601,1.31836 0.45569,0.26048 0.92769,0.42324 1.41602,0.48828 l -2.09961,40.72266 m 16.60156,-1.36719 5.07813,-2.05078 8.10547,-23.92578 c 0.358,0.0977 0.71607,0.14653 1.07422,0.14648 0.61841,5e-5 1.20435,-0.16271 1.75781,-0.48828 0.58586,-0.35802 1.04159,-0.81375 1.36719,-1.36719 0.32544,-0.55333 0.4882,-1.15554 0.48828,-1.80664 -8e-5,-0.61843 -0.17912,-1.22065 -0.53711,-1.80664 -0.3256,-0.58588 -0.76505,-1.02533 -1.31836,-1.31836 -0.55346,-0.32546 -1.1394,-0.48822 -1.75781,-0.48828 -0.65112,6e-5 -1.26961,0.16282 -1.85547,0.48828 -0.55346,0.29303 -0.99291,0.73248 -1.31836,1.31836 -0.29304,0.58599 -0.43953,1.18821 -0.43946,1.80664 -7e-5,0.6511 0.14642,1.25331 0.43946,1.80664 0.32545,0.55344 0.78118,1.00917 1.36718,1.36719 0.13014,0.0652 0.24407,0.13026 0.3418,0.19531 l -12.79297,26.12305"
         id="path3158"
         style="font-size:100px;font-variant:normal;font-stretch:normal;font-family:Arial;-inkscape-font-specification:Arial" />
    </g>
    <path
       d="m 125.79618,285.61488 -1.80294,-0.98765 -3.91457,-11.74401 -3.91458,-11.74401 -0.78931,-0.0324 c -1.01924,-0.0419 -1.48934,-0.20217 -2.23356,-0.7616 -0.8358,-0.62829 -1.38594,-1.74101 -1.38594,-2.80324 0,-2.00295 1.79827,-3.72228 3.7758,-3.61004 1.59086,0.0903 2.92484,1.19411 3.33988,2.76363 0.10909,0.41253 0.10986,1.27557 0.002,1.69283 -0.26157,1.00734 -0.94967,1.85488 -1.89298,2.3316 -0.28355,0.1433 -0.51565,0.28187 -0.51579,0.30793 -1.3e-4,0.0261 2.47869,5.69175 5.5085,12.59043 6.42213,14.62279 5.71164,12.99373 5.66471,12.98845 -0.0208,-0.002 -0.84912,-0.44869 -1.84073,-0.99189 l 0,0 z"
       id="path4014"
       style="fill:#ffffff;fill-opacity:1;fill-rule:nonzero;stroke:none" />
    <path
       d="m 158.16645,286.56613 c 0.0163,-0.0414 2.8771,-5.88922 6.35729,-12.99511 3.4802,-7.1059 6.32764,-12.94021 6.32764,-12.96516 0,-0.0249 -0.18449,-0.16637 -0.40998,-0.31429 -1.04635,-0.68637 -1.61829,-1.6485 -1.69026,-2.84338 -0.089,-1.47799 0.61753,-2.76495 1.85796,-3.38421 1.12812,-0.56319 2.1824,-0.58257 3.23118,-0.0594 0.74288,0.37058 1.18596,0.78934 1.57413,1.48772 0.26572,0.47807 0.39234,0.84028 0.45749,1.30864 0.3077,2.2123 -1.73977,4.28828 -3.95538,4.01047 -0.23251,-0.0292 -0.4805,-0.0675 -0.55109,-0.0852 -0.12483,-0.0313 -0.13886,-10e-4 -0.51144,1.09573 -0.21069,0.62037 -2.03592,6.00673 -4.05605,11.96968 -2.02014,5.96295 -3.67828,10.84483 -3.68476,10.84863 -0.0159,0.009 -4.74554,1.91346 -4.87464,1.96252 -0.0758,0.0288 -0.0942,0.0195 -0.0721,-0.0366 l 0,0 z"
       id="path4016"
       style="fill:#ffffff;fill-opacity:1;fill-rule:nonzero;stroke:none" />
    <path
       d="m 149.25104,287.51958 c 0.13928,-0.44704 9.69783,-36.36483 9.69397,-36.42667 -0.003,-0.0412 -0.24565,-0.19264 -0.54018,-0.33666 -2.02247,-0.98891 -2.62176,-3.54181 -1.25605,-5.35067 0.33406,-0.44246 0.99771,-0.91687 1.63368,-1.16785 0.34592,-0.13651 0.58135,-0.1701 1.21463,-0.1733 0.77355,-0.004 0.79561,8.7e-4 1.44504,0.31289 1.63272,0.78442 2.45848,2.45219 2.03009,4.10011 -0.23197,0.89233 -0.77083,1.6285 -1.52998,2.09022 -0.61938,0.37671 -1.24863,0.56267 -1.90395,0.56267 -0.52163,0 -0.56479,0.0121 -0.60034,0.16833 -0.0211,0.0926 -1.06641,7.9115 -2.32299,17.37538 -1.25658,9.46387 -2.30296,17.30983 -2.3253,17.43545 l -0.0406,0.2284 -2.66901,0.62408 c -1.46796,0.34324 -2.71498,0.64113 -2.77116,0.66197 -0.0719,0.0267 -0.089,-0.004 -0.0578,-0.10435 l 0,0 z"
       id="path4018"
       style="fill:#ffffff;fill-opacity:1;fill-rule:nonzero;stroke:none" />
    <path
       d="m 134.46764,287.23776 c -2.69973,-0.64011 -3.19779,-0.7785 -3.19827,-0.88865 -3.1e-4,-0.0718 -0.67389,-8.00117 -1.49683,-17.62089 -0.82295,-9.61973 -1.49627,-17.52947 -1.49627,-17.57721 0,-0.0613 -0.14831,-0.0748 -0.50499,-0.0461 -1.00233,0.0808 -2.09255,-0.33677 -2.86346,-1.09681 -1.6502,-1.62694 -1.11344,-4.63338 1.00831,-5.64753 0.96214,-0.45989 1.83223,-0.50673 2.78085,-0.14971 1.08681,0.40903 1.62,0.94377 2.08789,2.09398 0.41169,1.01207 0.25007,2.32685 -0.40267,3.27557 -0.3063,0.44519 -0.82623,0.90696 -1.28023,1.13702 -0.28842,0.14616 -0.3747,0.22697 -0.34444,0.32264 0.0222,0.0702 2.06224,8.35896 4.53341,18.41948 2.47118,10.06051 4.51071,18.35075 4.53228,18.42276 0.024,0.0802 0.001,0.12757 -0.0593,0.12226 -0.0542,-0.005 -1.53753,-0.34983 -3.29626,-0.76683 z"
       id="path4020"
       style="fill:#ffffff;fill-opacity:1;fill-rule:nonzero;stroke:none" />
    <path
       d="m 141.53816,287.66918 c 0,-0.38962 1.97457,-38.94815 2.03818,-39.80078 l 0.0429,-0.5744 -0.3391,-0.0559 c -0.49462,-0.0815 -1.40783,-0.54971 -1.88296,-0.96534 -0.73038,-0.63892 -1.12383,-1.73207 -1.03667,-2.8802 0.10443,-1.37557 0.93312,-2.49007 2.23518,-3.0061 0.42686,-0.16916 0.63757,-0.2004 1.35176,-0.2004 0.81625,0 0.86752,0.0106 1.45452,0.30081 1.01293,0.50079 1.84661,1.56985 2.06694,2.65049 0.36987,1.8141 -1.16166,3.89181 -3.04369,4.12915 l -0.44206,0.0558 0.0227,0.48011 c 0.0125,0.26406 0.52652,9.25711 1.14231,19.98456 0.6158,10.72745 1.11963,19.66457 1.11963,19.86028 l 0,0.35582 -2.36479,0 -2.3648,0 0,-0.33385 z"
       id="path4022"
       style="fill:#ffffff;fill-opacity:1;fill-rule:nonzero;stroke:none" />
    <path
       d="m 126.03472,305.24737 0,-3.98809 17.73597,0 17.73597,0 0,3.98809 0,3.98809 -17.73597,0 -17.73597,0 0,-3.98809 z"
       id="path4024"
       style="fill:#ffffff;fill-opacity:1;fill-rule:nonzero;stroke:none" />
    <path
       d="m 126.03472,293.76148 c 0,-2.82172 0.005,-5.1304 0.0102,-5.1304 0.006,0 2.0121,0.66735 4.45884,1.483 l 4.44861,1.48301 8.88017,0 8.88018,0 4.16648,-1.72674 c 2.29157,-0.94971 4.2702,-1.76911 4.39696,-1.82089 l 0.23047,-0.0942 0,5.46829 0,5.46828 -17.73597,0 -17.73597,0 0,-5.1304 z"
       id="path4026"
       style="fill:#ffffff;fill-opacity:1;fill-rule:nonzero;stroke:none" />
  </g>
  <g
     transform="translate(-10.00002,0.375)"
     id="g4255">
    <g
       transform="translate(-109.28134,-447.56803)"
       id="WhiteKing"
       style="font-size:40px;font-style:normal;font-weight:normal;line-height:125%;letter-spacing:0px;word-spacing:0px;fill:#000000;fill-opacity:1;stroke:none;font-family:Bitstream Vera Sans">
      <path
         d="m 160.87315,712.44379 c 0.0325,-0.0976 0.0813,-0.19527 0.14649,-0.29297 -1.13937,-1.39969 -2.5391,-2.55529 -4.19922,-3.4668 -2.40889,-1.33458 -4.88285,-2.0019 -7.42188,-2.00195 -2.53909,5e-5 -5.01304,0.66737 -7.42187,2.00195 -2.37632,1.30213 -4.24807,3.17388 -5.61524,5.61524 -1.3672,2.40889 -2.05079,4.9154 -2.05078,7.51953 -1e-5,2.63675 0.66731,5.14326 2.00196,7.51953 1.33461,2.37633 3.20636,4.21552 5.61523,5.51758 0.71612,0.45575 1.44854,0.81382 2.19727,1.07421 l 16.74804,0 0,-23.48632 m 6.88477,23.48632 16.69922,0 c 0.78118,-0.26039 1.52988,-0.61846 2.24609,-1.07421 2.40879,-1.30206 4.26425,-3.14125 5.56641,-5.51758 1.33456,-2.37627 2.00188,-4.88278 2.00195,-7.51953 -7e-5,-2.60413 -0.68367,-5.11064 -2.05078,-7.51953 -1.33471,-2.44136 -3.20645,-4.31311 -5.61523,-5.61524 -2.37637,-1.33458 -4.85033,-2.0019 -7.42188,-2.00195 -2.50657,5e-5 -4.96425,0.66737 -7.37305,2.00195 -1.69276,0.91151 -3.09249,2.06711 -4.19922,3.4668 0.0651,0.0977 0.11389,0.19536 0.14649,0.29297 l 0,23.48632 m -21.92383,5.0293 0,14.79492 36.96289,0 0,-14.79492 -36.96289,0 m -4.00391,18.70117 0,-18.70117 c -1.3672,-0.42316 -2.66929,-0.99282 -3.90625,-1.70898 -2.24611,-1.75779 -4.24806,-4.23175 -6.00585,-7.42188 -1.75783,-3.19007 -2.63673,-6.52666 -2.63672,-10.00976 -1e-5,-3.51559 0.89517,-6.86845 2.68554,-10.0586 1.79035,-3.2226 4.29686,-5.69656 7.51953,-7.42187 3.22264,-1.72521 6.52667,-2.58783 9.91211,-2.58789 2.60414,6e-5 5.1432,0.50461 7.61719,1.51367 l 0,-0.0977 c -4e-5,-1.17181 0.29293,-2.26231 0.87891,-3.27148 0.5859,-1.04161 1.3997,-1.85541 2.4414,-2.44141 0.42314,-0.2278 0.89514,-0.40684 1.41602,-0.53711 l 0,-2.63672 -5.27344,0 0,-3.41796 5.27344,0 0,-4.24805 5.12695,0 0,4.24805 5.27344,0 0,3.41796 -5.27344,0 0,2.63672 c 0.52079,0.13027 0.99279,0.30931 1.41602,0.53711 1.00906,0.586 1.80659,1.3998 2.39258,2.44141 0.61843,1.00917 0.92768,2.09967 0.92773,3.27148 l 0,0.0977 c 2.4739,-1.00906 4.99669,-1.51361 7.56836,-1.51367 3.38535,6e-5 6.68939,0.86268 9.91211,2.58789 3.22258,1.72531 5.72909,4.19927 7.51953,7.42187 1.79029,3.19015 2.68547,6.54301 2.68555,10.0586 -8e-5,3.4831 -0.87899,6.81969 -2.63672,10.00976 -1.75789,3.19013 -3.74356,5.66409 -5.95703,7.42188 -1.2696,0.71616 -2.57169,1.28582 -3.90625,1.70898 l 0,18.70117 -44.97071,0 m 17.91993,-56.10351 c -4e-5,0.81386 0.19527,1.57883 0.58593,2.29492 0.42314,0.68365 0.9928,1.23703 1.70899,1.66016 0.74865,0.39067 1.49735,0.58599 2.24609,0.58593 0.78121,6e-5 1.5299,-0.19526 2.2461,-0.58593 0.74865,-0.42313 1.31831,-0.97651 1.70898,-1.66016 0.39058,-0.71609 0.58589,-1.48106 0.58594,-2.29492 -5e-5,-0.7812 -0.19536,-1.52989 -0.58594,-2.2461 -0.39067,-0.74863 -0.96033,-1.30202 -1.70898,-1.66015 -0.7162,-0.39057 -1.46489,-0.58588 -2.2461,-0.58594 -0.74874,6e-5 -1.49744,0.19537 -2.24609,0.58594 -0.71619,0.35813 -1.28585,0.91152 -1.70899,1.66015 -0.39066,0.71621 -0.58597,1.4649 -0.58593,2.2461"
         id="path3154"
         style="font-size:100px;font-variant:normal;font-stretch:normal;font-family:Arial;-inkscape-font-specification:Arial" />
    </g>
    <path
       d="m 54.625273,260.50682 c -0.341305,-0.0347 -0.750675,-0.12403 -1.078192,-0.2352 -0.709161,-0.24071 -1.226989,-0.56525 -1.778206,-1.11445 -0.449078,-0.44744 -0.69527,-0.79942 -0.913663,-1.30628 -0.337929,-0.78428 -0.454794,-1.70738 -0.323766,-2.55738 0.197862,-1.28359 0.947372,-2.44547 1.970801,-3.05511 0.66433,-0.39573 1.386063,-0.6398 2.113544,-0.71473 0.247865,-0.0255 0.804487,-0.01 1.06118,0.0304 0.380971,0.0594 0.814239,0.18237 1.126799,0.31992 0.222126,0.0977 0.638467,0.31154 0.810023,0.41595 0.445245,0.27098 0.858245,0.6746 1.144494,1.1185 0.360188,0.55857 0.614851,1.20428 0.718778,1.82252 0.05308,0.31576 0.06615,0.51917 0.05704,0.88807 -0.01638,0.66385 -0.138973,1.21372 -0.404529,1.81445 -0.582025,1.31664 -1.920107,2.30093 -3.452576,2.53971 -0.15666,0.0244 -0.288627,0.0323 -0.596091,0.0356 -0.217188,0.002 -0.422226,0.001 -0.455639,-0.002 l 0,0 z"
       id="path4028"
       style="fill:#ffffff;fill-opacity:1;fill-rule:nonzero;stroke:none" />
    <path
       d="m 34.211128,288.07809 c -0.61612,-0.26326 -1.873303,-0.97104 -2.703458,-1.52203 -2.039179,-1.35342 -3.623821,-3.1633 -4.801121,-5.48355 -0.721869,-1.42267 -1.249303,-3.07016 -1.495134,-4.6702 -0.156897,-1.02119 -0.157117,-3.30253 -4.1e-4,-4.25263 0.279404,-1.69399 0.653771,-2.87906 1.400984,-4.43488 1.83093,-3.81229 4.833724,-6.44553 8.900286,-7.80494 1.80023,-0.60179 3.601988,-0.83813 5.496929,-0.72104 3.804913,0.23512 7.671366,2.07532 10.212446,4.86052 0.326944,0.35836 0.419295,0.49886 0.399449,0.60775 -0.0142,0.0779 -0.03484,5.43842 -0.04587,11.91229 l -0.02006,11.77068 -8.368264,-10e-4 -8.368263,-0.001 -0.607519,-0.25958 z"
       id="path4030"
       style="fill:#ffffff;fill-opacity:1;fill-rule:nonzero;stroke:none" />
    <path
       d="m 58.466614,276.53901 c -0.0085,-6.49058 -0.03665,-11.84299 -0.06252,-11.89424 -0.05952,-0.11795 1.026629,-1.28186 1.787943,-1.91595 2.187682,-1.82207 5.313658,-3.1643 8.131259,-3.49139 0.742106,-0.0862 2.477743,-0.0862 3.219848,0 3.23197,0.3752 6.653802,2.00185 8.903669,4.23259 1.144985,1.13525 2.020128,2.37002 2.857787,4.03215 1.894286,3.75874 2.164874,7.8348 0.782399,11.78586 -0.302394,0.86423 -1.143305,2.5624 -1.654592,3.34135 -1.029831,1.56896 -2.277012,2.85096 -3.720543,3.82441 -0.865458,0.58363 -2.108674,1.28643 -2.819243,1.59375 l -0.673989,0.2915 -8.368264,5.1e-4 -8.368264,5.1e-4 -0.01549,-11.80105 z"
       id="path4032"
       style="fill:#ffffff;fill-opacity:1;fill-rule:nonzero;stroke:none" />
    <path
       d="m 36.566025,300.79628 0,-7.38879 18.471963,0 18.471963,0 0,7.38879 0,7.38878 -18.471963,0 -18.471963,0 0,-7.38878 z"
       id="path4034"
       style="fill:#ffffff;fill-opacity:1;fill-rule:nonzero;stroke:none" />
  </g>
  <rect
     width="75.000198"
     height="75.000198"
     x="142.5002"
     y="480.59128"
     id="BlackTile"
     style="fill:#bbbbbb;fill-opacity:1;stroke:#bbbbbb;stroke-width:24.99979973;stroke-linecap:butt;stroke-linejoin:round;stroke-miterlimit:4;stroke-opacity:1;stroke-dasharray:none;stroke-dashoffset:0" />
  <rect
     width="75.000198"
     height="75.000198"
     x="22.5"
     y="480.59128"
     id="WhiteTile"
     style="fill:#eeeeee;fill-opacity:1;stroke:#eeeeee;stroke-width:25;stroke-linecap:butt;stroke-linejoin:round;stroke-miterlimit:4;stroke-opacity:1;stroke-dasharray:none;stroke-dashoffset:0" />
  <path
     d="m 262.5005,468.09138 c -3.27241,3e-4 -6.5298,1.34231 -8.84375,3.65625 -2.31394,2.31395 -3.65595,5.57134 -3.65625,8.84375 l 0,75 c 3e-4,3.27241 1.34231,6.5298 3.65625,8.84375 2.31395,2.31394 5.57134,3.65595 8.84375,3.65625 l 75,0 c 3.27241,-3e-4 6.5298,-1.34231 8.84375,-3.65625 2.31394,-2.31395 3.65595,-5.57134 3.65625,-8.84375 l 0,-75 c -3e-4,-3.27241 -1.34231,-6.5298 -3.65625,-8.84375 -2.31395,-2.31394 -5.57134,-3.65595 -8.84375,-3.65625 l -75,0 z m 3.75,5 67.5,0 c 2.94516,2.9e-4 5.8862,1.19871 7.96875,3.28125 2.08254,2.08255 3.28096,5.02359 3.28125,7.96875 l 0,67.5 c -2.9e-4,2.94516 -1.19871,5.8862 -3.28125,7.96875 -2.08255,2.08254 -5.02359,3.28096 -7.96875,3.28125 l -67.5,0 c -2.94516,-2.9e-4 -5.8862,-1.19871 -7.96875,-3.28125 -2.08254,-2.08255 -3.28096,-5.02359 -3.28125,-7.96875 l 0,-67.5 c 2.9e-4,-2.94516 1.19871,-5.8862 3.28125,-7.96875 2.08255,-2.08254 5.02359,-3.28096 7.96875,-3.28125 z"
     id="rect3652-1-4"
     style="font-size:medium;font-style:normal;font-variant:normal;font-weight:normal;font-stretch:normal;text-indent:0;text-align:start;text-decoration:none;line-height:normal;letter-spacing:normal;word-spacing:normal;text-transform:none;direction:ltr;block-progression:tb;writing-mode:lr-tb;text-anchor:start;baseline-shift:baseline;color:#000000;fill:#666666;fill-opacity:1;fill-rule:nonzero;stroke:none;stroke-width:25;marker:none;visibility:visible;display:inline;overflow:visible;enable-background:accumulate;font-family:Sans;-inkscape-font-specification:Sans" />
  <path
     d="m 382.50069,468.09138 c -3.27241,3e-4 -6.5298,1.34231 -8.84375,3.65625 -2.31394,2.31395 -3.65595,5.57134 -3.65625,8.84375 l 0,75 c 3e-4,3.27241 1.34231,6.5298 3.65625,8.84375 2.31395,2.31394 5.57134,3.65595 8.84375,3.65625 l 75,0 c 3.27241,-3e-4 6.5298,-1.34231 8.84375,-3.65625 2.31394,-2.31395 3.65595,-5.57134 3.65625,-8.84375 l 0,-75 c -3e-4,-3.27241 -1.34231,-6.5298 -3.65625,-8.84375 -2.31395,-2.31394 -5.57134,-3.65595 -8.84375,-3.65625 l -75,0 z m 3.75,5 67.5,0 c 2.94516,2.9e-4 5.8862,1.19871 7.96875,3.28125 2.08254,2.08255 3.28096,5.02359 3.28125,7.96875 l 0,67.5 c -2.9e-4,2.94516 -1.19871,5.8862 -3.28125,7.96875 -2.08255,2.08254 -5.02359,3.28096 -7.96875,3.28125 l -67.5,0 c -2.94516,-2.9e-4 -5.8862,-1.19871 -7.96875,-3.28125 -2.08254,-2.08255 -3.28096,-5.02359 -3.28125,-7.96875 l 0,-67.5 c 2.9e-4,-2.94516 1.19871,-5.8862 3.28125,-7.96875 2.08255,-2.08254 5.02359,-3.28096 7.96875,-3.28125 z"
     id="rect3652-1-4-6"
     style="font-size:medium;font-style:normal;font-variant:normal;font-weight:normal;font-stretch:normal;text-indent:0;text-align:start;text-decoration:none;line-height:normal;letter-spacing:normal;word-spacing:normal;text-transform:none;direction:ltr;block-progression:tb;writing-mode:lr-tb;text-anchor:start;baseline-shift:baseline;color:#000000;fill:#ff2a2a;fill-opacity:1;fill-rule:nonzero;stroke:none;stroke-width:25;marker:none;visibility:visible;display:inline;overflow:visible;enable-background:accumulate;font-family:Sans;-inkscape-font-specification:Sans" />
</svg>
