<?xml version="1.0" encoding="UTF-8" standalone="no"?>
<!-- Created with Inkscape (http://www.inkscape.org/) -->

<svg
   xmlns:dc="http://purl.org/dc/elements/1.1/"
   xmlns:cc="http://creativecommons.org/ns#"
   xmlns:rdf="http://www.w3.org/1999/02/22-rdf-syntax-ns#"
   xmlns:svg="http://www.w3.org/2000/svg"
   xmlns="http://www.w3.org/2000/svg"
   xmlns:sodipodi="http://sodipodi.sourceforge.net/DTD/sodipodi-0.dtd"
   xmlns:inkscape="http://www.inkscape.org/namespaces/inkscape"
   version="1.1"
   width="695"
   height="568.11505"
   id="svg2"
   inkscape:version="0.48.1 r9760"
   sodipodi:docname="FreeSerif.svg">
  <sodipodi:namedview
     pagecolor="#ffffff"
     bordercolor="#666666"
     borderopacity="1"
     objecttolerance="10"
     gridtolerance="10"
     guidetolerance="10"
     inkscape:pageopacity="0"
     inkscape:pageshadow="2"
     inkscape:window-width="1440"
     inkscape:window-height="835"
     id="namedview3107"
     showgrid="false"
     inkscape:zoom="0.63825288"
     inkscape:cx="547.62373"
     inkscape:cy="225.42067"
     inkscape:window-x="-4"
     inkscape:window-y="-3"
     inkscape:window-maximized="1"
     inkscape:current-layer="svg2"
     fit-margin-left="10"
     fit-margin-top="10"
     fit-margin-right="10"
     fit-margin-bottom="10" />
  <defs
     id="defs4" />
  <metadata
     id="metadata7">
    <rdf:RDF>
      <cc:Work
         rdf:about="">
        <dc:format>image/svg+xml</dc:format>
        <dc:type
           rdf:resource="http://purl.org/dc/dcmitype/StillImage" />
        <dc:title></dc:title>
      </cc:Work>
    </rdf:RDF>
  </metadata>
  <rect
     width="100"
     height="100"
     x="10"
     y="458.11502"
     id="WhiteTile"
     style="fill:#eeeeee;fill-opacity:1;stroke:#eeeeee;stroke-width:0;stroke-linecap:butt;stroke-linejoin:miter;stroke-miterlimit:4;stroke-opacity:1;stroke-dasharray:none;stroke-dashoffset:0" />
  <rect
     width="100"
     height="100"
     x="125"
     y="458.11502"
     id="BlackTile"
     style="fill:#bbbbbb;fill-opacity:1;stroke:#bbbbbb;stroke-width:0;stroke-linecap:butt;stroke-linejoin:miter;stroke-miterlimit:4;stroke-opacity:1;stroke-dasharray:none;stroke-dashoffset:0" />
  <text
     x="18.309999"
     y="84.305"
     id="WhiteKingText"
     xml:space="preserve"
     style="font-size:40px;font-style:normal;font-weight:normal;line-height:125%;letter-spacing:0px;word-spacing:0px;fill:#000000;fill-opacity:1;stroke:none;font-family:Bitstream Vera Sans"
     sodipodi:linespacing="125%"><tspan
       x="18.309999"
       y="84.305"
       id="tspan3424"
       style="font-size:110px;font-style:normal;font-variant:normal;font-weight:normal;font-stretch:normal;font-family:FreeSerif;-inkscape-font-specification:FreeSerif">♔</tspan></text>
  <text
     x="133.42"
     y="83.534996"
     id="WhiteQueenText"
     xml:space="preserve"
     style="font-size:40px;font-style:normal;font-weight:normal;line-height:125%;letter-spacing:0px;word-spacing:0px;fill:#000000;fill-opacity:1;stroke:none;font-family:Bitstream Vera Sans"
     sodipodi:linespacing="125%"><tspan
       x="133.42"
       y="83.534996"
       id="tspan3428"
       style="font-size:110px;font-style:normal;font-variant:normal;font-weight:normal;font-stretch:normal;font-family:FreeSerif;-inkscape-font-specification:FreeSerif">♕</tspan></text>
  <text
     x="248.31"
     y="80.399994"
     id="WhiteRookText"
     xml:space="preserve"
     style="font-size:40px;font-style:normal;font-weight:normal;line-height:125%;letter-spacing:0px;word-spacing:0px;fill:#000000;fill-opacity:1;stroke:none;font-family:Bitstream Vera Sans"
     sodipodi:linespacing="125%"><tspan
       x="248.31"
       y="80.399994"
       id="tspan3432"
       style="font-size:110px;font-style:normal;font-variant:normal;font-weight:normal;font-stretch:normal;font-family:FreeSerif;-inkscape-font-specification:FreeSerif">♖</tspan></text>
  <text
     x="363.31003"
     y="83.699997"
     id="WhiteBishopText"
     xml:space="preserve"
     style="font-size:40px;font-style:normal;font-weight:normal;line-height:125%;letter-spacing:0px;word-spacing:0px;fill:#000000;fill-opacity:1;stroke:none;font-family:Bitstream Vera Sans"
     sodipodi:linespacing="125%"><tspan
       x="363.31003"
       y="83.699997"
       id="tspan3436"
       style="font-size:110px;font-style:normal;font-variant:normal;font-weight:normal;font-stretch:normal;font-family:FreeSerif;-inkscape-font-specification:FreeSerif">♗</tspan></text>
  <text
     x="478.36502"
     y="80.619995"
     id="WhiteKnightText"
     xml:space="preserve"
     style="font-size:40px;font-style:normal;font-weight:normal;line-height:125%;letter-spacing:0px;word-spacing:0px;fill:#000000;fill-opacity:1;stroke:none;font-family:Bitstream Vera Sans"
     sodipodi:linespacing="125%"><tspan
       x="478.36502"
       y="80.619995"
       id="tspan3440"
       style="font-size:110px;font-style:normal;font-variant:normal;font-weight:normal;font-stretch:normal;font-family:FreeSerif;-inkscape-font-specification:FreeSerif">♘</tspan></text>
  <text
     x="593.36499"
     y="80.454994"
     id="WhitePawnText"
     xml:space="preserve"
     style="font-size:40px;font-style:normal;font-weight:normal;line-height:125%;letter-spacing:0px;word-spacing:0px;fill:#000000;fill-opacity:1;stroke:none;font-family:Bitstream Vera Sans"
     sodipodi:linespacing="125%"><tspan
       x="593.36499"
       y="80.454994"
       id="tspan3444"
       style="font-size:110px;font-style:normal;font-variant:normal;font-weight:normal;font-stretch:normal;font-family:FreeSerif;-inkscape-font-specification:FreeSerif">♙</tspan></text>
  <text
     x="18.365"
     y="199.19499"
     id="BlackKingText"
     xml:space="preserve"
     style="font-size:40px;font-style:normal;font-weight:normal;line-height:125%;letter-spacing:0px;word-spacing:0px;fill:#000000;fill-opacity:1;stroke:none;font-family:Bitstream Vera Sans"
     sodipodi:linespacing="125%"><tspan
       x="18.365"
       y="199.19499"
       id="tspan3448"
       style="font-size:110px;font-style:normal;font-variant:normal;font-weight:normal;font-stretch:normal;font-family:FreeSerif;-inkscape-font-specification:FreeSerif">♚</tspan></text>
  <text
     x="133.31"
     y="198.535"
     id="BlackQueenText"
     xml:space="preserve"
     style="font-size:40px;font-style:normal;font-weight:normal;line-height:125%;letter-spacing:0px;word-spacing:0px;fill:#000000;fill-opacity:1;stroke:none;font-family:Bitstream Vera Sans"
     sodipodi:linespacing="125%"><tspan
       x="133.31"
       y="198.535"
       id="tspan3452"
       style="font-size:110px;font-style:normal;font-variant:normal;font-weight:normal;font-stretch:normal;font-family:FreeSerif;-inkscape-font-specification:FreeSerif">♛</tspan></text>
  <text
     x="248.36501"
     y="195.17999"
     id="BlackRookText"
     xml:space="preserve"
     style="font-size:40px;font-style:normal;font-weight:normal;line-height:125%;letter-spacing:0px;word-spacing:0px;fill:#000000;fill-opacity:1;stroke:none;font-family:Bitstream Vera Sans"
     sodipodi:linespacing="125%"><tspan
       x="248.36501"
       y="195.17999"
       id="tspan3456"
       style="font-size:110px;font-style:normal;font-variant:normal;font-weight:normal;font-stretch:normal;font-family:FreeSerif;-inkscape-font-specification:FreeSerif">♜</tspan></text>
  <text
     x="363.31003"
     y="198.095"
     id="BlackBishopText"
     xml:space="preserve"
     style="font-size:40px;font-style:normal;font-weight:normal;line-height:125%;letter-spacing:0px;word-spacing:0px;fill:#000000;fill-opacity:1;stroke:none;font-family:Bitstream Vera Sans"
     sodipodi:linespacing="125%"><tspan
       x="363.31003"
       y="198.095"
       id="tspan3460"
       style="font-size:110px;font-style:normal;font-variant:normal;font-weight:normal;font-stretch:normal;font-family:FreeSerif;-inkscape-font-specification:FreeSerif">♝</tspan></text>
  <text
     x="479.46503"
     y="195.50999"
     id="BlackKnightText"
     xml:space="preserve"
     style="font-size:40px;font-style:normal;font-weight:normal;line-height:125%;letter-spacing:0px;word-spacing:0px;fill:#000000;fill-opacity:1;stroke:none;font-family:Bitstream Vera Sans"
     sodipodi:linespacing="125%"><tspan
       x="479.46503"
       y="195.50999"
       id="tspan3464"
       style="font-size:110px;font-style:normal;font-variant:normal;font-weight:normal;font-stretch:normal;font-family:FreeSerif;-inkscape-font-specification:FreeSerif">♞</tspan></text>
  <text
     x="593.36499"
     y="195.455"
     id="BlackPawnText"
     xml:space="preserve"
     style="font-size:40px;font-style:normal;font-weight:normal;line-height:125%;letter-spacing:0px;word-spacing:0px;fill:#000000;fill-opacity:1;stroke:none;font-family:Bitstream Vera Sans"
     sodipodi:linespacing="125%"><tspan
       x="593.36499"
       y="195.455"
       id="tspan3468"
       style="font-size:110px;font-style:normal;font-variant:normal;font-weight:normal;font-stretch:normal;font-family:FreeSerif;-inkscape-font-specification:FreeSerif">♟</tspan></text>
  <g
     id="BlackPawn"
     transform="translate(-0.922385,11.607319)"
     inkscape:label="#g4440">
    <path
       d="m 585.92239,331.50769 c 0,33.33333 0,66.66667 0,100 33.33333,0 66.66667,0 99.99999,0 0,-34.28394 0,-70.37691 0,-100 -33.33332,0 -66.66666,0 -99.99999,0 z"
       id="WhiteTile-4-4-13"
       style="font-size:medium;font-style:normal;font-variant:normal;font-weight:normal;font-stretch:normal;text-indent:0;text-align:start;text-decoration:none;line-height:normal;letter-spacing:normal;word-spacing:normal;text-transform:none;direction:ltr;block-progression:tb;writing-mode:lr-tb;text-anchor:start;baseline-shift:baseline;color:#000000;fill:none;stroke:none;stroke-width:25;marker:none;visibility:visible;display:inline;overflow:visible;enable-background:accumulate;font-family:Sans;-inkscape-font-specification:Sans"
       inkscape:connector-curvature="0" />
    <g
       transform="translate(-1.774685,-4.45108)"
       id="BlackPawnText-3"
       style="font-size:40px;font-style:normal;font-weight:normal;line-height:125%;letter-spacing:0px;word-spacing:0px;fill:#000000;fill-opacity:1;stroke:none;font-family:Bitstream Vera Sans">
      <path
         inkscape:connector-curvature="0"
         id="path3249"
         style="font-size:110px;font-variant:normal;font-stretch:normal;font-family:FreeSerif;-inkscape-font-specification:FreeSerif"
         d="m 645.23207,368.35877 c 1.32,-2.2 1.87,-4.29 1.87,-6.27 0,-4.95 -4.29,-8.47 -9.35,-8.47 -5.05999,0 -9.57,3.52 -9.57,8.47 0,1.98 0.66,4.07 1.98,6.27 -5.05999,2.08999 -7.59,5.5 -7.59,10.45 0,4.72999 2.64001,8.8 6.27,9.9 -9.78999,4.83999 -14.74,11.44001 -14.74,24.42 0,2.08999 0,3.85 0.11,5.17 l 46.97,0 c 0.11,-1.32 0.11,-3.08001 0.11,-5.17 0,-13.19999 -5.06001,-19.58001 -14.63,-24.42 3.52,-1.1 6.16,-5.28001 6.16,-9.9 0,-3.96 -1.87,-8.03001 -7.59,-10.45" />
    </g>
  </g>
  <g
     id="WhiteKing"
     transform="translate(-3.0281925,7.0568893)"
     inkscape:label="#g4339">
    <path
       d="m 13.028195,221.05812 c 0,33.33333 0,66.66667 0,100 33.33333,0 66.66667,0 99.999995,0 0,-34.28394 0,-70.37691 0,-100 -33.333325,0 -66.666665,0 -99.999995,0 z"
       id="WhiteTile-4-4"
       style="font-size:medium;font-style:normal;font-variant:normal;font-weight:normal;font-stretch:normal;text-indent:0;text-align:start;text-decoration:none;line-height:normal;letter-spacing:normal;word-spacing:normal;text-transform:none;direction:ltr;block-progression:tb;writing-mode:lr-tb;text-anchor:start;baseline-shift:baseline;color:#000000;fill:none;stroke:none;stroke-width:25;marker:none;visibility:visible;display:inline;overflow:visible;enable-background:accumulate;font-family:Sans;-inkscape-font-specification:Sans"
       inkscape:connector-curvature="0" />
    <g
       transform="translate(0.3005965,3.90052)"
       id="g3343">
      <g
         style="font-size:40px;font-style:normal;font-weight:normal;line-height:125%;letter-spacing:0px;word-spacing:0px;fill:#000000;fill-opacity:1;stroke:none;font-family:Bitstream Vera Sans"
         id="WhiteKingText-9">
        <path
           inkscape:connector-curvature="0"
           d="m 82.417596,252.1976 c -4.949995,0 -9.460002,2.75 -11,4.29 0,-5.72 -0.220006,-8.47001 -6.05,-12.1 l 0,-2.64 4.51,-2.64 0,-3.96 -4.07,0 -1.43,-4.18 -3.3,0 -1.43,4.18 -4.07,0 0,3.96 4.51,2.64 0,2.64 c -5.609995,3.73999 -6.05,5.5 -6.05,12.1 -3.849996,-3.08 -7.260004,-4.29 -10.78,-4.29 -2.969997,0 -13.86,2.09001 -13.86,13.2 0,12.09998 9.900001,7.70002 11.11,30.58 0.22,4.83999 7.590014,7.37 22.22,7.37 14.739985,0 22.11,-2.53001 22.22,-7.37 0.879999,-21.44998 11.11,-19.47002 11.11,-30.58 0,-10.88999 -11.000003,-13.2 -13.64,-13.2 m -19.69,14.08 c -2.859997,-4.95 -4.62,-5.83001 -4.62,-11.33 0,-4.4 1.540003,-6.49 4.73,-6.49 3.079997,0 4.51,2.09 4.51,6.49 0,5.38999 -1.650003,6.27 -4.62,11.33 m 19.58,-10.12 c 5.389994,0 9.79,3.85 9.79,9.9 0,4.72999 -5.390002,10.01 -7.26,12.76 -16.059984,0 -20.13,-1.54001 -20.13,-2.64 1.099999,-12.86999 11.330006,-20.02 17.6,-20.02 m 0.55,27.06 c -0.769999,2.63999 -1.21,5.72 -1.43,9.24 -5.059995,-1.65 -11.330008,-2.42 -18.7,-2.42 -7.369993,0 -13.530005,0.77 -18.7,2.42 -0.22,-3.19 -0.660001,-6.27001 -1.43,-9.24 12.429987,-0.88 16.390003,-0.66001 20.13,-2.31 3.629996,1.42999 6.490013,1.21 20.13,2.31 m -39.71,-27.06 c 6.379993,0 16.500001,7.15001 17.6,20.02 0,2.19999 -9.460011,2.64 -20.13,2.64 -2.419998,-3.41 -7.26,-8.47001 -7.26,-12.76 0,-6.16 4.730005,-9.9 9.79,-9.9 m 19.69,38.28 c 6.049994,0 15.18,0.44 15.18,2.86 0,1.75999 -9.680006,2.09 -15.29,2.09 -4.949995,0 -15.29,-0.66001 -15.29,-2.09 0,-2.31 8.910006,-2.86 15.4,-2.86"
           style="font-size:110px;font-variant:normal;font-stretch:normal;font-family:FreeSerif;-inkscape-font-specification:FreeSerif"
           id="path3216" />
      </g>
      <path
         style="fill:#ffffff;fill-opacity:1;fill-rule:nonzero;stroke:#bbbbbb;stroke-width:0;stroke-linecap:butt;stroke-linejoin:miter;stroke-miterlimit:4;stroke-opacity:1;stroke-dasharray:none;stroke-dashoffset:0"
         d="m 62.470039,265.81298 c -0.358267,-0.60518 -0.72008,-1.17917 -1.665417,-2.64208 -1.139824,-1.76388 -1.445512,-2.28978 -1.77458,-3.05295 -0.62758,-1.45548 -0.901278,-3.00007 -0.901913,-5.08986 -4.91e-4,-1.62019 0.175427,-2.82164 0.561146,-3.83239 0.395592,-1.03663 1.063799,-1.82227 1.912384,-2.24847 0.723549,-0.3634 1.718117,-0.53056 2.673768,-0.4494 0.745548,0.0633 1.110793,0.15797 1.65295,0.42831 1.356786,0.67654 2.110058,2.14619 2.34186,4.56902 0.09184,0.95993 0.06899,2.56917 -0.05092,3.586 -0.16496,1.39886 -0.493916,2.49127 -1.109033,3.68292 -0.331045,0.64132 -0.529652,0.97063 -1.402816,2.32605 -0.928195,1.44084 -1.270962,1.98274 -1.640402,2.59339 -0.179791,0.29718 -0.330516,0.54443 -0.334946,0.54945 -0.0044,0.005 -0.122367,-0.18398 -0.262084,-0.41999 l 0,0 z"
         id="path3255"
         inkscape:connector-curvature="0" />
      <path
         style="fill:#ffffff;fill-opacity:1;fill-rule:nonzero;stroke:#bbbbbb;stroke-width:0;stroke-linecap:butt;stroke-linejoin:miter;stroke-miterlimit:4;stroke-opacity:1;stroke-dasharray:none;stroke-dashoffset:0"
         d="m 40.085429,278.06691 c -0.304947,-0.40545 -0.842238,-1.10726 -1.19398,-1.55958 -3.305377,-4.25044 -4.576191,-6.32679 -5.206594,-8.50693 -0.24357,-0.84235 -0.281088,-1.12785 -0.278002,-2.11553 0.004,-1.27809 0.171309,-2.27204 0.571488,-3.39494 1.348376,-3.78354 4.979143,-6.29263 9.102673,-6.29055 0.848395,4.3e-4 1.341848,0.0483 2.093937,0.20327 3.930062,0.80959 8.009899,3.5963 10.939407,7.47209 2.44338,3.23264 4.026717,7.24343 4.518018,11.44471 0.124305,1.06296 0.103498,1.1792 -0.273234,1.52646 -0.634859,0.58519 -2.356428,1.05915 -4.979134,1.3708 -2.977192,0.35376 -6.438975,0.50797 -12.761252,0.56846 l -1.978879,0.0189 -0.554448,-0.7372 0,0 z"
         id="path3257"
         inkscape:connector-curvature="0" />
      <path
         style="fill:#ffffff;fill-opacity:1;fill-rule:nonzero;stroke:#bbbbbb;stroke-width:0;stroke-linecap:butt;stroke-linejoin:miter;stroke-miterlimit:4;stroke-opacity:1;stroke-dasharray:none;stroke-dashoffset:0"
         d="m 82.664914,278.78348 c -7.638937,-0.0595 -13.351,-0.56023 -16.173559,-1.41785 -0.909237,-0.27627 -1.68324,-0.75149 -1.744311,-1.07096 -0.02441,-0.12766 0.099,-1.27601 0.212811,-1.98036 0.773886,-4.78929 2.906098,-9.10562 6.168572,-12.4873 2.201634,-2.28208 4.869649,-4.04518 7.503272,-4.95839 1.33834,-0.46406 2.490021,-0.66961 3.75184,-0.66961 2.497163,0 4.775747,0.83829 6.551876,2.41043 1.639225,1.45096 2.666996,3.43575 3.033984,5.8591 0.110283,0.72824 0.111722,2.19357 0.0027,2.76918 -0.186862,0.98676 -0.560881,2.02977 -1.12864,3.14742 -0.820721,1.6156 -1.855043,3.11498 -4.018445,5.82522 -0.531545,0.66591 -1.203743,1.52427 -1.493773,1.90748 l -0.527327,0.69674 -0.441299,-0.0107 c -0.242715,-0.006 -1.006688,-0.0151 -1.69772,-0.0204 z"
         id="path3259"
         inkscape:connector-curvature="0" />
      <path
         style="fill:#ffffff;fill-opacity:1;fill-rule:nonzero;stroke:#bbbbbb;stroke-width:0;stroke-linecap:butt;stroke-linejoin:miter;stroke-miterlimit:4;stroke-opacity:1;stroke-dasharray:none;stroke-dashoffset:0"
         d="m 81.065378,292.33 c -0.186569,-0.0598 -0.615435,-0.18726 -0.953036,-0.28328 -4.756132,-1.35274 -10.486004,-2.01869 -17.380794,-2.02008 -7.150505,-10e-4 -13.041754,0.72274 -18.051656,2.21902 -0.333437,0.0996 -0.613827,0.17348 -0.623089,0.16422 -0.0093,-0.009 -0.04528,-0.35673 -0.08004,-0.77215 -0.245596,-2.93541 -0.63242,-5.4145 -1.224097,-7.84506 -0.07117,-0.29236 -0.121818,-0.53914 -0.112551,-0.54841 0.02374,-0.0237 3.009314,-0.22073 7.120444,-0.46981 5.491647,-0.33271 7.118011,-0.46309 8.690398,-0.69666 1.505513,-0.22363 2.806713,-0.55466 3.820853,-0.97203 0.217316,-0.0894 0.424196,-0.16258 0.459733,-0.16254 0.03554,5e-5 0.240651,0.066 0.45581,0.14652 0.978813,0.36641 2.248567,0.66875 3.598631,0.85687 1.423155,0.1983 2.663023,0.30535 7.511217,0.64854 3.584663,0.25374 8.362779,0.61051 8.469758,0.63241 l 0.07012,0.0144 -0.09559,0.34732 c -0.626969,2.27804 -1.059421,5.06486 -1.289665,8.31083 -0.02079,0.29318 -0.03993,0.53431 -0.04252,0.53584 -0.0026,0.002 -0.157358,-0.0461 -0.343927,-0.1059 z"
         id="path3261"
         inkscape:connector-curvature="0" />
      <path
         style="fill:#ffffff;fill-opacity:1;fill-rule:nonzero;stroke:#bbbbbb;stroke-width:0;stroke-linecap:butt;stroke-linejoin:miter;stroke-miterlimit:4;stroke-opacity:1;stroke-dasharray:none;stroke-dashoffset:0"
         d="m 60.631685,299.34673 c -5.223325,-0.16039 -9.839128,-0.64038 -11.880148,-1.2354 -0.700738,-0.20429 -1.144538,-0.44337 -1.271116,-0.68478 -0.02777,-0.053 -0.03373,-0.11001 -0.0226,-0.21649 0.107663,-1.03007 2.076915,-1.79947 5.805115,-2.26811 5.075862,-0.63804 13.627012,-0.65977 18.789085,-0.0477 2.633508,0.31224 4.409545,0.78054 5.311835,1.40061 0.19926,0.13693 0.449814,0.40944 0.536535,0.58353 0.101904,0.20458 0.127764,0.43202 0.06702,0.58946 -0.332622,0.86218 -3.276554,1.46259 -8.547085,1.74317 -0.733519,0.039 -1.538788,0.0726 -2.717379,0.11307 -0.956767,0.0329 -5.220282,0.0488 -6.071261,0.0227 z"
         id="path3263"
         inkscape:connector-curvature="0" />
    </g>
  </g>
  <g
     id="BlackKing"
     transform="translate(0.1745488,8.2836793)"
     inkscape:label="#g4350">
    <path
       d="m 9.8254524,334.83133 c 0,33.33333 0,66.66667 0,100 33.3333296,0 66.6666696,0 99.9999976,0 0,-34.28394 0,-70.37691 0,-100 -33.333328,0 -66.666668,0 -99.9999976,0 z"
       id="WhiteTile-4-4-83"
       style="font-size:medium;font-style:normal;font-variant:normal;font-weight:normal;font-stretch:normal;text-indent:0;text-align:start;text-decoration:none;line-height:normal;letter-spacing:normal;word-spacing:normal;text-transform:none;direction:ltr;block-progression:tb;writing-mode:lr-tb;text-anchor:start;baseline-shift:baseline;color:#000000;fill:none;stroke:none;stroke-width:25;marker:none;visibility:visible;display:inline;overflow:visible;enable-background:accumulate;font-family:Sans;-inkscape-font-specification:Sans"
       inkscape:connector-curvature="0" />
    <g
       transform="translate(-2.8471448,2.56373)"
       id="g3425">
      <g
         style="font-size:40px;font-style:normal;font-weight:normal;line-height:125%;letter-spacing:0px;word-spacing:0px;fill:#000000;fill-opacity:1;stroke:none;font-family:Bitstream Vera Sans"
         id="BlackKingText-8">
        <path
           inkscape:connector-curvature="0"
           d="m 81.977596,371.1576 c 5.939994,0 9.79,3.3 9.79,9.13 0,2.19999 -5.39001,16.72 -15.29,16.72 -2.859997,0 -7.480007,-0.55001 -13.97,-1.65 -6.379994,1.09999 -11.000003,1.65 -13.86,1.65 -10.00999,0 -15.29,-14.63001 -15.29,-16.72 0,-5.83 3.850006,-9.13 9.79,-9.13 3.409996,0 16.5,4.07001 16.5,19.69 0,1.31999 0.880002,1.98 2.97,1.98 1.869998,0 2.86,-0.66001 2.86,-1.98 0,-14.73999 13.200003,-19.69 16.5,-19.69 m -13.86,20.13 c 0,1.86999 2.200004,2.75 6.82,2.75 10.22999,0 14.41,-11.77001 14.41,-13.75 0,-4.07 -3.300005,-6.38 -7.59,-6.38 -3.079997,0 -13.310001,3.30001 -13.64,17.38 m 10.78,16.94 c 0,0.98999 -0.990002,1.54 -3.08,1.54 -1.209999,0 -12.430001,-1.1 -13.2,-1.1 -1.319999,0 -12.430001,1.1 -13.31,1.1 -1.979998,0 -2.97,-0.55001 -2.97,-1.65 0,-1.65 6.820009,-2.75 16.39,-2.75 3.629996,0 16.17,0.22 16.17,2.86 m -25.08,-36.74 c -3.409997,-2.75 -7.040004,-4.18 -10.89,-4.18 -7.369993,0 -13.64,5.61 -13.64,13.09 0,3.07999 1.430003,6.49 4.29,10.34 2.749997,3.62999 6.49,8.03001 6.71,20.13 0.22,4.94999 7.590014,7.48 22.33,7.48 14.849985,0 22.33,-2.53001 22.44,-7.48 0.11,-11.43999 2.860004,-14.63001 6.71,-20.02 2.859997,-3.96 4.29,-7.37001 4.29,-10.45 0,-7.48 -6.160008,-13.09 -13.75,-13.09 -3.739997,0 -7.260004,1.43 -10.67,4.18 0,-6.38 -0.770006,-8.58001 -6.05,-11.99 l 0,-2.53 4.4,-2.75 0,-3.96 -3.96,0 -1.43,-4.07 -3.74,0 -1.32,4.07 -4.07,0 0,3.96 4.51,2.75 0,2.53 c -6.049994,4.17999 -6.16,6.27 -6.16,11.99 m -10.56,2.42 c -3.959996,0 -7.37,2.31 -7.37,6.38 0,1.64999 3.520011,13.75 14.41,13.75 2.859997,0 6.71,-0.33001 6.71,-2.64 0,-13.96999 -10.670003,-17.49 -13.75,-17.49"
           style="font-size:110px;font-variant:normal;font-stretch:normal;font-family:FreeSerif;-inkscape-font-specification:FreeSerif"
           id="path3219" />
      </g>
      <path
         style="fill:#ffffff;fill-opacity:1;fill-rule:nonzero;stroke:#bbbbbb;stroke-width:0;stroke-linecap:butt;stroke-linejoin:miter;stroke-miterlimit:4;stroke-opacity:1;stroke-dasharray:none;stroke-dashoffset:0"
         d="m 48.789687,409.72975 c -1.579464,-0.0967 -2.363784,-0.58019 -2.416428,-1.48958 -0.01254,-0.21665 -0.0028,-0.28678 0.05612,-0.40218 0.574945,-1.12698 4.581073,-1.99002 10.738644,-2.3134 3.617966,-0.19001 8.482493,-0.16888 11.996249,0.0521 5.27968,0.33205 8.486632,1.0149 9.410763,2.00382 0.241203,0.25812 0.312746,0.4401 0.292763,0.74472 -0.06092,0.92868 -1.059808,1.40563 -2.95239,1.40971 -0.812343,0.002 -0.742964,0.007 -10.438295,-0.85127 -2.446465,-0.21667 -2.759602,-0.23684 -3.271704,-0.21075 -0.866213,0.0441 -2.567677,0.1875 -8.430265,0.7104 -4.049386,0.36117 -4.375027,0.38379 -4.985454,0.34642 z"
         id="path3265"
         inkscape:connector-curvature="0" />
      <path
         style="fill:#ffffff;fill-opacity:1;fill-rule:nonzero;stroke:#bbbbbb;stroke-width:0;stroke-linecap:butt;stroke-linejoin:miter;stroke-miterlimit:4;stroke-opacity:1;stroke-dasharray:none;stroke-dashoffset:0"
         d="m 47.27297,396.88806 c -3.90884,-0.56773 -7.476595,-3.36464 -10.470561,-8.20831 -1.457244,-2.35755 -2.909624,-5.727 -3.319486,-7.70105 -0.215467,-1.03776 -0.01325,-2.83488 0.4777,-4.24534 1.206898,-3.46733 4.533772,-5.51431 8.989617,-5.53118 1.093153,-0.004 2.055843,0.16781 3.491826,0.62368 1.751446,0.55602 3.141539,1.22578 4.77182,2.29913 3.925011,2.58415 6.584628,6.35769 7.728999,10.96615 0.416935,1.67902 0.56584,2.85977 0.687049,5.448 0.04057,0.86624 0.04682,0.90457 0.19744,1.21053 0.315405,0.64068 0.916956,0.93995 2.131539,1.06043 1.411878,0.14005 2.674215,-0.17737 3.16383,-0.79556 0.299002,-0.37752 0.347558,-0.59612 0.390481,-1.75794 0.05661,-1.53232 0.1758,-2.61159 0.421748,-3.81902 0.910255,-4.46868 3.241979,-8.26763 6.85143,-11.16267 2.441875,-1.95856 5.340292,-3.38624 8.018598,-3.94974 0.504806,-0.10621 0.714603,-0.12441 1.399501,-0.12144 4.840985,0.021 8.275213,2.42285 9.23507,6.4589 0.297301,1.25008 0.36903,2.71572 0.171865,3.51156 -0.725324,2.92776 -2.63268,6.80815 -4.692972,9.54755 -2.526423,3.35918 -5.344184,5.38783 -8.387219,6.03839 -0.879176,0.18795 -1.353951,0.21998 -2.80767,0.18937 -2.611253,-0.055 -5.657945,-0.40414 -11.042001,-1.26548 l -2.175602,-0.34805 -0.933471,0.15607 c -4.781314,0.79939 -8.199192,1.24235 -10.969802,1.42168 -1.039834,0.0673 -2.782114,0.0539 -3.329729,-0.0257 l 0,0 z m 4.146524,-2.86122 c 2.707811,-0.12102 4.248146,-0.53005 5.060206,-1.34372 0.512412,-0.51342 0.58846,-0.86862 0.514061,-2.40106 -0.169575,-3.49281 -0.928824,-6.32962 -2.36557,-8.83858 -0.712105,-1.24353 -1.451264,-2.20122 -2.531942,-3.28051 -1.954547,-1.95204 -4.306772,-3.31259 -6.855701,-3.96541 -0.859614,-0.22016 -1.38356,-0.29396 -2.080876,-0.29308 -4.280391,0.005 -7.411476,2.7756 -7.257396,6.42098 0.02851,0.67461 0.163871,1.26651 0.542345,2.37161 1.372034,4.00619 3.800945,7.34056 6.764013,9.28553 0.663026,0.43521 1.816667,1.01865 2.542018,1.28558 1.193036,0.43905 2.644802,0.71879 4.018861,0.77439 0.188503,0.008 0.397815,0.0179 0.465137,0.0228 0.06732,0.005 0.600503,-0.0124 1.184844,-0.0385 l 0,0 z m 24.911787,-0.0557 c 2.827986,-0.28488 5.548707,-1.63818 7.79689,-3.87822 2.057413,-2.04997 3.821487,-4.92911 4.777897,-7.79802 0.442526,-1.32743 0.538609,-2.12285 0.371938,-3.07918 -0.240319,-1.37893 -0.761669,-2.39026 -1.691723,-3.28168 -1.35323,-1.29703 -3.419623,-2.03146 -5.712588,-2.03035 -1.484956,7.2e-4 -3.175026,0.46922 -4.960036,1.37494 -3.634757,1.84431 -6.311076,5.04261 -7.698907,9.20048 -0.659946,1.97717 -1.066746,4.42201 -1.07945,6.48744 -0.0047,0.76743 0.0035,0.8511 0.105762,1.07277 0.473565,1.02678 1.595856,1.574 3.830546,1.86774 1.174741,0.15441 3.078673,0.18305 4.259671,0.0641 z"
         id="path3267"
         inkscape:connector-curvature="0" />
    </g>
  </g>
  <g
     id="BlackQueen"
     transform="translate(3.2788,10.499439)"
     inkscape:label="#g4358">
    <path
       d="m 121.7212,332.61557 c 0,33.33333 0,66.66667 0,100 33.33333,0 66.66667,0 100,0 0,-34.28394 0,-70.37691 0,-100 -33.33333,0 -66.66667,0 -100,0 z"
       id="WhiteTile-4-4-50"
       style="font-size:medium;font-style:normal;font-variant:normal;font-weight:normal;font-stretch:normal;text-indent:0;text-align:start;text-decoration:none;line-height:normal;letter-spacing:normal;word-spacing:normal;text-transform:none;direction:ltr;block-progression:tb;writing-mode:lr-tb;text-anchor:start;baseline-shift:baseline;color:#000000;fill:none;stroke:none;stroke-width:25;marker:none;visibility:visible;display:inline;overflow:visible;enable-background:accumulate;font-family:Sans;-inkscape-font-specification:Sans"
       inkscape:connector-curvature="0" />
    <g
       transform="translate(-6.00641,-0.31203)"
       id="g3414">
      <g
         style="font-size:40px;font-style:normal;font-weight:normal;line-height:125%;letter-spacing:0px;word-spacing:0px;fill:#000000;fill-opacity:1;stroke:none;font-family:Bitstream Vera Sans"
         id="BlackQueenText-2">
        <path
           inkscape:connector-curvature="0"
           d="m 177.83761,403.3876 c 8.13999,0 18.15,0.44 18.15,3.52 0,1.09999 -0.88,1.76 -2.53,1.76 -1.65,0 -10.56,-0.88 -15.51,-0.88 -4.83999,0 -14.3,0.88 -15.84,0.88 -1.65,0 -2.53,-0.55001 -2.53,-1.76 0,-2.2 9.68001,-3.52 18.26,-3.52 m -32.01,-42.46 c 1.76,0 2.64,0.88 2.64,2.75 0,1.86999 -0.88,2.75 -2.64,2.75 -1.54,0 -2.75,-1.21001 -2.75,-2.75 0,-1.54 1.21,-2.75 2.75,-2.75 m 14.41,-6.93 c 1.76,0 2.64,0.88 2.64,2.75 0,1.86999 -0.88,2.75 -2.64,2.75 -1.87,0 -2.86,-0.88001 -2.86,-2.75 0,-1.87 0.99,-2.75 2.86,-2.75 m 35.09,0 c 1.87,0 2.75,0.88 2.75,2.75 0,1.86999 -0.88,2.75 -2.75,2.75 -1.76,0 -2.64,-0.88001 -2.64,-2.75 0,-1.43 1.21,-2.75 2.64,-2.75 m 14.3,6.93 c 1.54,0 2.75,1.21 2.75,2.75 0,1.86999 -0.88,2.75 -2.75,2.75 -1.76,0 -2.64,-0.88001 -2.64,-2.75 0,-1.87 0.88,-2.75 2.64,-2.75 m -11,41.91 c 0,-3.3 8.25,-10.23001 8.25,-12.54 0,-3.52 2.86,-7.81002 3.96,-19.91 3.41,-1.54 5.06,-3.85001 5.06,-6.71 0,-3.41 -2.75,-6.16 -6.27,-6.16 -3.29999,0 -6.16,2.75 -6.16,6.16 0.11,0.32999 0.55,4.07 0.55,4.18 0,3.18999 -2.31,7.26 -7.04,12.1 -0.44,-3.63 -0.55,-6.82001 -0.55,-9.35 0,-11.65999 5.06,-8.14001 5.06,-14.08 0,-3.3 -2.75,-6.16 -6.16,-6.16 -3.51999,0 -6.27,2.64 -6.27,6.16 0,0.98999 0.66,3.85 0.66,4.73 0,4.17999 -1.98,10.45 -5.94,18.81 -1.1,-4.95 -2.31,-10.78001 -2.31,-15.84 0,-6.82 2.31,-8.36001 2.31,-10.67 0,-3.3 -2.53,-6.16 -5.94,-6.16 -3.40999,0 -6.16,2.64 -6.16,6.16 0,1.64999 2.31,4.07 2.31,10.67 0,5.16999 -1.43,11.88 -2.31,15.84 -3.95999,-8.25 -6.05,-14.52001 -6.05,-18.81 0,-0.66 0.77,-4.29001 0.77,-4.73 0,-3.3 -2.75,-6.16 -6.16,-6.16 -3.51999,0 -6.27,2.64 -6.27,6.16 0,6.04999 5.06,1.87001 5.06,13.97 0,2.74999 -0.11,5.83 -0.55,9.46 -4.72999,-4.84 -7.04,-8.91001 -7.04,-12.1 0,-0.44 0.55,-3.96001 0.55,-4.18 0,-3.3 -2.86,-6.16 -6.16,-6.16 -3.40999,0 -6.27,2.64 -6.27,6.16 0,2.96999 1.65001,5.28 5.06,6.71 0.77,10.77998 3.96,17.93 3.96,19.91 0,2.52999 8.25,9.02 8.25,12.54 0,2.08999 -2.97,5.5 -2.97,10.67 0,2.96999 10.67002,4.95 23.87,4.95 9.01999,0 23.98,-0.99001 23.98,-4.95 0,-5.06 -3.08,-8.58001 -3.08,-10.67 m -20.79,-52.25 c 1.43,0 2.64,1.32 2.64,2.75 0,1.86999 -0.88,2.75 -2.64,2.75 -1.54,0 -2.75,-1.21001 -2.75,-2.75 0,-1.54 1.21,-2.75 2.75,-2.75 m 19.8,42.9 c 0,1.09999 -0.88,1.65 -2.64,1.65 -1.76,0 -11.22,-0.77 -17.05,-0.77 -6.26999,0 -12.1,0.77 -17.16,0.77 -1.87,0 -2.86,-0.55001 -2.86,-1.54 0,-2.75 13.75001,-3.63 19.91,-3.63 6.16,0 19.8,0.66 19.8,3.52"
           style="font-size:110px;font-variant:normal;font-stretch:normal;font-family:FreeSerif;-inkscape-font-specification:FreeSerif"
           id="path3225" />
      </g>
      <path
         style="fill:#ffffff;fill-opacity:1;fill-rule:nonzero;stroke:#bbbbbb;stroke-width:0;stroke-linecap:butt;stroke-linejoin:miter;stroke-miterlimit:4;stroke-opacity:1;stroke-dasharray:none;stroke-dashoffset:0"
         d="m 177.66794,356.07771 c -0.48449,-0.0317 -0.97397,-0.19412 -1.35797,-0.45068 -0.63892,-0.42688 -1.04719,-1.0643 -1.18415,-1.84879 -0.0305,-0.17479 -0.0305,-0.70652 0,-0.88131 0.10192,-0.58378 0.34439,-1.0713 0.72968,-1.46713 0.16094,-0.16535 0.27857,-0.26414 0.45447,-0.38165 0.48153,-0.32173 1.13231,-0.49363 1.69287,-0.44718 0.69564,0.0576 1.31218,0.38757 1.80535,0.96609 0.25932,0.30418 0.48724,0.7477 0.58276,1.13402 0.0633,0.25588 0.073,0.3466 0.0728,0.67935 -2.3e-4,0.40179 -0.032,0.69216 -0.1098,1.00467 -0.2465,0.98968 -0.93348,1.55564 -2.02503,1.66831 -0.18283,0.0189 -0.54205,0.0321 -0.66099,0.0243 z"
         id="path3269"
         inkscape:connector-curvature="0" />
      <path
         style="fill:#ffffff;fill-opacity:1;fill-rule:nonzero;stroke:#bbbbbb;stroke-width:0;stroke-linecap:butt;stroke-linejoin:miter;stroke-miterlimit:4;stroke-opacity:1;stroke-dasharray:none;stroke-dashoffset:0"
         d="m 194.87086,359.46906 c -0.39112,-0.0417 -0.67493,-0.11743 -0.96088,-0.25633 -0.18713,-0.0909 -0.30712,-0.16813 -0.44071,-0.28363 -0.42899,-0.37088 -0.67753,-0.93312 -0.75381,-1.70517 -0.024,-0.24306 -0.0214,-0.68918 0.005,-0.85071 0.0958,-0.58585 0.35802,-1.11136 0.76984,-1.54269 0.44457,-0.46563 0.99445,-0.74546 1.60085,-0.81462 0.15571,-0.0178 0.55598,-0.008 0.79562,0.0189 0.67123,0.0761 1.14241,0.27823 1.51185,0.64867 0.31559,0.31644 0.50321,0.70386 0.6049,1.24907 0.0822,0.44079 0.0848,1.1325 0.006,1.6035 -0.0624,0.37267 -0.20415,0.74367 -0.38785,1.01488 -0.10482,0.15476 -0.3477,0.39519 -0.5047,0.49962 -0.45056,0.2997 -1.03226,0.44038 -1.80412,0.43633 -0.15895,-8.3e-4 -0.35785,-0.009 -0.442,-0.0178 l 0,0 z"
         id="path3271"
         inkscape:connector-curvature="0" />
      <path
         style="fill:#ffffff;fill-opacity:1;fill-rule:nonzero;stroke:#bbbbbb;stroke-width:0;stroke-linecap:butt;stroke-linejoin:miter;stroke-miterlimit:4;stroke-opacity:1;stroke-dasharray:none;stroke-dashoffset:0"
         d="m 209.10996,366.39184 c -0.35848,-0.0418 -0.63518,-0.11933 -0.91481,-0.25618 -0.21146,-0.10349 -0.35589,-0.20444 -0.50884,-0.35566 -0.46961,-0.4643 -0.68555,-1.12264 -0.68657,-2.09312 -0.001,-0.97879 0.20738,-1.62566 0.67466,-2.094 0.23354,-0.23407 0.50687,-0.39853 0.83901,-0.50482 0.4783,-0.15307 1.16617,-0.19694 1.64447,-0.10487 1.04701,0.20153 1.86795,0.97385 2.1258,1.99987 0.068,0.27044 0.0844,0.41662 0.0827,0.73442 -0.003,0.62395 -0.0937,1.08819 -0.29085,1.49438 -0.34142,0.70354 -0.97895,1.08865 -1.9634,1.18601 -0.26014,0.0257 -0.75563,0.0227 -1.00217,-0.006 l 0,0 z"
         id="path3273"
         inkscape:connector-curvature="0" />
      <path
         style="fill:#ffffff;fill-opacity:1;fill-rule:nonzero;stroke:#bbbbbb;stroke-width:0;stroke-linecap:butt;stroke-linejoin:miter;stroke-miterlimit:4;stroke-opacity:1;stroke-dasharray:none;stroke-dashoffset:0"
         d="m 145.6792,366.42026 c -0.11077,-0.007 -0.30037,-0.0307 -0.40675,-0.0517 -0.41893,-0.0825 -0.83186,-0.27388 -1.17291,-0.54365 -0.11439,-0.0905 -0.34593,-0.32427 -0.43372,-0.43793 -0.31614,-0.40931 -0.49369,-0.84271 -0.56731,-1.38485 -0.0149,-0.10987 -0.0149,-0.53927 0,-0.64915 0.0736,-0.54214 0.25117,-0.97554 0.56731,-1.38484 0.0898,-0.11626 0.32078,-0.34889 0.43812,-0.44123 0.27091,-0.2132 0.58593,-0.37774 0.91313,-0.47693 0.26867,-0.0814 0.51501,-0.11504 0.84389,-0.11508 0.75882,-1e-4 1.34592,0.17185 1.78058,0.52147 0.41381,0.33286 0.67613,0.85222 0.77653,1.53742 0.0579,0.39525 0.0579,0.97229 0,1.36754 -0.19914,1.35911 -1.01554,2.03361 -2.49219,2.05899 -0.10473,0.002 -0.21574,0.002 -0.24668,-9e-5 l 0,0 z"
         id="path3275"
         inkscape:connector-curvature="0" />
      <path
         style="fill:#ffffff;fill-opacity:1;fill-rule:nonzero;stroke:#bbbbbb;stroke-width:0;stroke-linecap:butt;stroke-linejoin:miter;stroke-miterlimit:4;stroke-opacity:1;stroke-dasharray:none;stroke-dashoffset:0"
         d="m 159.90159,359.48338 c -0.68247,-0.0431 -1.21606,-0.21577 -1.63317,-0.52851 -0.11004,-0.0825 -0.29285,-0.26531 -0.3756,-0.3756 -0.27855,-0.37123 -0.43124,-0.8083 -0.49425,-1.4148 -0.0172,-0.16576 -0.0146,-0.70431 0.004,-0.87418 0.0614,-0.55288 0.20477,-0.97423 0.44793,-1.31663 0.16093,-0.22662 0.37854,-0.42577 0.62464,-0.57165 0.3392,-0.20106 0.72873,-0.31822 1.25304,-0.37691 0.19624,-0.022 0.808,-0.022 0.98671,-3e-5 0.65679,0.0807 1.10485,0.26866 1.45729,0.61144 0.16109,0.15668 0.27739,0.31492 0.38057,0.51784 0.17851,0.35109 0.27366,0.73625 0.30935,1.2523 0.0132,0.19134 0.006,0.68285 -0.0131,0.85303 -0.0973,0.8822 -0.40533,1.46468 -0.9702,1.83465 -0.0962,0.063 -0.31958,0.17238 -0.43764,0.21428 -0.27143,0.0963 -0.56574,0.15339 -0.9036,0.17521 -0.15583,0.0101 -0.4735,0.01 -0.63631,-4.4e-4 l 0,0 z"
         id="path3277"
         inkscape:connector-curvature="0" />
      <path
         style="fill:#ffffff;fill-opacity:1;fill-rule:nonzero;stroke:#bbbbbb;stroke-width:0;stroke-linecap:butt;stroke-linejoin:miter;stroke-miterlimit:4;stroke-opacity:1;stroke-dasharray:none;stroke-dashoffset:0"
         d="m 159.79193,395.05569 c -0.89845,-0.13138 -1.53006,-0.47426 -1.73911,-0.94411 -0.10749,-0.24158 -0.12444,-0.64382 -0.0355,-0.84203 0.25334,-0.5645 1.12708,-1.0732 2.62281,-1.52704 3.75934,-1.14066 12.11388,-1.88593 19.37057,-1.72796 8.62097,0.18768 14.93243,1.09164 16.88101,2.41779 0.23067,0.15699 0.53171,0.46173 0.61475,0.6223 0.10248,0.19818 0.13268,0.41979 0.0925,0.67881 -0.0507,0.32668 -0.17351,0.56931 -0.3935,0.77736 -0.45243,0.4279 -1.09826,0.59677 -2.28144,0.59654 -0.63649,-1.4e-4 -1.66636,-0.0521 -4.78661,-0.24136 -6.19082,-0.37561 -9.12307,-0.49475 -12.18666,-0.49518 -2.77389,-3.8e-4 -4.49599,0.0701 -9.12269,0.3732 -3.02109,0.19794 -3.8824,0.24842 -5.31436,0.31148 -1.40415,0.0618 -3.29953,0.0619 -3.72178,2.1e-4 l 0,-10e-6 z"
         id="path3279"
         inkscape:connector-curvature="0" />
      <path
         style="fill:#ffffff;fill-opacity:1;fill-rule:nonzero;stroke:#bbbbbb;stroke-width:0;stroke-linecap:butt;stroke-linejoin:miter;stroke-miterlimit:4;stroke-opacity:1;stroke-dasharray:none;stroke-dashoffset:0"
         d="m 161.29509,408.59261 c -1.01679,-0.15924 -1.55366,-0.60228 -1.67661,-1.38361 -0.063,-0.40043 0.009,-0.64678 0.27062,-0.92678 0.66568,-0.71225 2.38751,-1.33858 5.06139,-1.84116 2.48927,-0.46787 5.41658,-0.77435 9.19193,-0.96236 1.2072,-0.0601 7.48013,-0.0602 8.9669,-6e-5 5.49627,0.22218 8.76824,0.66072 10.81913,1.45009 0.74688,0.28747 1.26205,0.60493 1.62358,1.00051 0.34124,0.37336 0.47158,0.79465 0.39109,1.26404 -0.0891,0.51945 -0.37584,0.89025 -0.879,1.13657 -0.53214,0.26051 -1.01023,0.33338 -1.98389,0.3024 -0.70758,-0.0225 -1.06726,-0.0462 -4.27572,-0.28189 -3.76364,-0.27643 -5.60802,-0.39399 -7.9975,-0.50976 -1.16022,-0.0562 -4.49461,-0.0552 -5.7125,0.002 -2.47988,0.11592 -4.45891,0.23849 -8.4822,0.52534 -4.14589,0.29559 -4.71297,0.31958 -5.31722,0.22495 l 0,10e-6 z"
         id="path3281"
         inkscape:connector-curvature="0" />
    </g>
  </g>
  <g
     id="BlackRook"
     transform="translate(7.490935,6.0679293)"
     inkscape:label="#g4396">
    <path
       d="m 232.50907,337.04708 c 0,33.33333 0,66.66667 0,100 33.33333,0 66.66667,0 99.99999,0 0,-34.28394 0,-70.37691 0,-100 -33.33332,0 -66.66666,0 -99.99999,0 z"
       id="WhiteTile-4-4-41"
       style="font-size:medium;font-style:normal;font-variant:normal;font-weight:normal;font-stretch:normal;text-indent:0;text-align:start;text-decoration:none;line-height:normal;letter-spacing:normal;word-spacing:normal;text-transform:none;direction:ltr;block-progression:tb;writing-mode:lr-tb;text-anchor:start;baseline-shift:baseline;color:#000000;fill:none;stroke:none;stroke-width:25;marker:none;visibility:visible;display:inline;overflow:visible;enable-background:accumulate;font-family:Sans;-inkscape-font-specification:Sans"
       inkscape:connector-curvature="0" />
    <g
       transform="translate(-10.187965,0.86214)"
       id="g3408">
      <g
         style="font-size:40px;font-style:normal;font-weight:normal;line-height:125%;letter-spacing:0px;word-spacing:0px;fill:#000000;fill-opacity:1;stroke:none;font-family:Bitstream Vera Sans"
         id="BlackRookText-2">
        <path
           inkscape:connector-curvature="0"
           d="m 267.23203,418.24994 50.82,0 2.2,-2.09 0,-7.81 -11.11,-11 0,-21.89 8.58,-8.47 0,-9.79 -3.08,-3.08 -7.92,0 -1.87,1.87 0,2.75 -4.18,0 0,-2.75 -1.87,-1.87 -12.21,0 -1.87,1.87 0,2.75 -4.18,0 0,-2.75 -1.98,-1.87 -7.81,0 -3.08,3.08 0,9.79 8.58,8.47 0,21.89 -11.11,11 0,7.81 2.09,2.09 m 12.98,-23.43 24.97,0 0,3.74 -24.97,0 0,-3.74 m 0,-19.8 24.97,0 0,3.74 -24.97,0 0,-3.74"
           style="font-size:110px;font-variant:normal;font-stretch:normal;font-family:FreeSerif;-inkscape-font-specification:FreeSerif"
           id="path3228" />
      </g>
      <path
         style="fill:#ffffff;fill-opacity:1;fill-rule:nonzero;stroke:#bbbbbb;stroke-width:0;stroke-linecap:butt;stroke-linejoin:miter;stroke-miterlimit:4;stroke-opacity:1;stroke-dasharray:none;stroke-dashoffset:0"
         d="m 280.21123,376.8943 0,-1.86055 12.48526,0 12.48525,0 0,1.86055 0,1.86054 -12.48525,0 -12.48526,0 0,-1.86054 z"
         id="path3283"
         inkscape:connector-curvature="0" />
      <path
         style="fill:#ffffff;fill-opacity:1;fill-rule:nonzero;stroke:#bbbbbb;stroke-width:0;stroke-linecap:butt;stroke-linejoin:miter;stroke-miterlimit:4;stroke-opacity:1;stroke-dasharray:none;stroke-dashoffset:0"
         d="m 280.21123,396.69934 0,-1.86055 12.48526,0 12.48525,0 0,1.86055 0,1.86055 -12.48525,0 -12.48526,0 0,-1.86055 z"
         id="path3285"
         inkscape:connector-curvature="0" />
    </g>
  </g>
  <g
     id="BlackBishop"
     transform="translate(3.947905,11.607309)"
     inkscape:label="#g4404">
    <path
       d="m 351.0521,331.5077 c 0,33.33333 0,66.66667 0,100 33.33333,0 66.66667,0 99.99999,0 0,-34.28394 0,-70.37691 0,-100 -33.33332,0 -66.66666,0 -99.99999,0 z"
       id="WhiteTile-4-4-3"
       style="font-size:medium;font-style:normal;font-variant:normal;font-weight:normal;font-stretch:normal;text-indent:0;text-align:start;text-decoration:none;line-height:normal;letter-spacing:normal;word-spacing:normal;text-transform:none;direction:ltr;block-progression:tb;writing-mode:lr-tb;text-anchor:start;baseline-shift:baseline;color:#000000;fill:none;stroke:none;stroke-width:25;marker:none;visibility:visible;display:inline;overflow:visible;enable-background:accumulate;font-family:Sans;-inkscape-font-specification:Sans"
       inkscape:connector-curvature="0" />
    <g
       transform="translate(-6.675505,-1.8599)"
       id="g3400">
      <g
         style="font-size:40px;font-style:normal;font-weight:normal;line-height:125%;letter-spacing:0px;word-spacing:0px;fill:#000000;fill-opacity:1;stroke:none;font-family:Bitstream Vera Sans"
         id="BlackBishopText-0">
        <path
           inkscape:connector-curvature="0"
           d="m 402.3376,392.9376 10.78,0 c 3.73999,0 5.61,0.66 5.61,1.76 0,1.20999 -5.17001,1.87 -11,1.87 -5.83,0 -11,-0.44001 -11,-1.87 0,-1.1 1.87,-1.76 5.61,-1.76 m 5.39,-3.3 c -8.79999,0 -11,-0.33001 -11,-1.76 0,-1.65 2.31,-1.76 4.29,-1.76 l 12.1,0 c 3.73999,0 5.61,0.55 5.61,1.76 0,1.42999 -1.54001,1.76 -11,1.76 m -14.96,1.76 c 0,1.75999 -2.31,6.27 -2.31,7.92 0,2.52999 2.64,4.07 7.81,4.51 -3.63,1.42999 -7.26001,2.2 -10.67,2.2 -0.66,0 -6.49,-0.33 -6.49,-0.33 -4.84,0 -7.04,3.3 -9.02,7.04 2.53,3.29999 4.07,7.37 7.7,8.91 0.99,-5.17 19.91001,-0.55001 27.94,-8.91 8.24999,8.24999 27.06,3.74 27.94,8.91 3.62999,-1.32 5.5,-5.83001 7.7,-8.91 -2.09,-3.96 -4.18001,-7.04 -9.02,-7.04 0,0 -5.83,0.33 -6.49,0.33 -4.07,0 -6.93001,-0.77001 -10.67,-2.2 5.16999,-0.44 7.81,-1.98001 7.81,-4.51 -0.22,-2.09 -2.2,-7.15001 -2.2,-8.47 4.39999,-5.06 6.6,-9.68001 6.6,-13.97 0,-11.10999 -9.68001,-17.27001 -16.39,-18.92 1.54,-1.98 2.42,-3.96001 2.42,-6.16 0,-4.29 -3.41001,-6.71 -7.7,-6.71 -4.4,0 -7.7,2.31 -7.7,6.71 0,2.19999 0.88,4.29 2.42,6.16 -6.05,1.42999 -16.39,8.25001 -16.39,18.92 0,7.58999 6.71,13.64 6.71,14.52 m 16.94,-10.78 -3.96,0 0,-5.06 -3.85,0 0,-4.18 3.85,0 0,-4.73 3.96,0 0,4.73 3.85,0 0,4.18 -3.85,0 0,5.06 m -1.98,-31.02 c 1.87,0 2.75,0.88 2.75,2.64 0,1.75999 -0.88,2.75 -2.75,2.75 -1.54,0 -2.86,-1.21001 -2.86,-2.75 0,-1.43 1.32,-2.64 2.86,-2.64"
           style="font-size:110px;font-variant:normal;font-stretch:normal;font-family:FreeSerif;-inkscape-font-specification:FreeSerif"
           id="path3237" />
      </g>
      <path
         style="fill:#ffffff;fill-opacity:1;fill-rule:nonzero;stroke:#bbbbbb;stroke-width:0;stroke-linecap:butt;stroke-linejoin:miter;stroke-miterlimit:4;stroke-opacity:1;stroke-dasharray:none;stroke-dashoffset:0"
         d="m 406.24921,396.55025 c -0.55013,-0.007 -1.73014,-0.041 -2.33065,-0.0669 -4.03192,-0.17402 -6.42473,-0.64587 -7.0215,-1.38459 -0.10917,-0.13513 -0.15454,-0.25865 -0.15409,-0.41944 10e-4,-0.49276 0.42216,-0.91177 1.20581,-1.20072 0.71173,-0.26244 1.67122,-0.4197 3.07263,-0.50359 0.54531,-0.0326 12.85388,-0.0324 13.40706,2.1e-4 1.06115,0.0626 1.81201,0.15975 2.44945,0.31677 1.18327,0.29146 1.79874,0.74205 1.83018,1.33987 0.0107,0.20325 -0.0214,0.28106 -0.18161,0.44012 -0.32027,0.31802 -0.98229,0.57757 -2.07268,0.8126 -2.25738,0.48657 -5.86497,0.72192 -10.2046,0.66571 l 0,0 z"
         id="path3287"
         inkscape:connector-curvature="0" />
      <path
         style="fill:#ffffff;fill-opacity:1;fill-rule:nonzero;stroke:#bbbbbb;stroke-width:0;stroke-linecap:butt;stroke-linejoin:miter;stroke-miterlimit:4;stroke-opacity:1;stroke-dasharray:none;stroke-dashoffset:0"
         d="m 405.69527,389.61847 c -1.47306,-0.0102 -2.53439,-0.0292 -3.26305,-0.0584 -2.45629,-0.0985 -3.73637,-0.24439 -4.58731,-0.52267 -0.83113,-0.2718 -1.1581,-0.66356 -1.09794,-1.3155 0.0746,-0.80872 0.76989,-1.29242 2.13658,-1.48642 0.79746,-0.1132 0.93002,-0.11486 8.5774,-0.10744 7.2168,0.007 7.03239,0.005 7.88498,0.0823 1.36931,0.12406 2.29162,0.36282 2.82663,0.73172 0.0694,0.0478 0.18394,0.14841 0.25454,0.22346 0.2072,0.22025 0.28622,0.42305 0.28514,0.73178 -0.002,0.59686 -0.3008,0.93325 -1.04668,1.17872 -0.79867,0.26284 -2.24933,0.41688 -4.63059,0.49171 -1.57723,0.0496 -4.54568,0.0701 -7.3397,0.0507 l 0,0 z"
         id="path3289"
         inkscape:connector-curvature="0" />
      <path
         style="fill:#ffffff;fill-opacity:1;fill-rule:nonzero;stroke:#bbbbbb;stroke-width:0;stroke-linecap:butt;stroke-linejoin:miter;stroke-miterlimit:4;stroke-opacity:1;stroke-dasharray:none;stroke-dashoffset:0"
         d="m 405.75303,378.07323 0,-2.52153 -1.92175,0 -1.92175,0 0,-2.08088 0,-2.08087 1.92175,0 1.92175,0 0,-2.36241 0,-2.36241 1.97071,0 1.97071,0 0,2.36241 0,2.36241 1.92175,0 1.92175,0 0,2.08087 0,2.08088 -1.92175,0 -1.92175,0 0,2.52153 0,2.52153 -1.97071,0 -1.97071,0 0,-2.52153 z"
         id="path3291"
         inkscape:connector-curvature="0" />
      <path
         style="fill:#ffffff;fill-opacity:1;fill-rule:nonzero;stroke:#bbbbbb;stroke-width:0;stroke-linecap:butt;stroke-linejoin:miter;stroke-miterlimit:4;stroke-opacity:1;stroke-dasharray:none;stroke-dashoffset:0"
         d="m 407.5302,354.97214 c -0.94486,-0.0818 -1.74651,-0.55412 -2.23862,-1.31885 -0.3931,-0.61087 -0.513,-1.37815 -0.32195,-2.06017 0.19612,-0.7001 0.74839,-1.33441 1.46636,-1.68419 0.48636,-0.23694 0.96109,-0.32505 1.57025,-0.29145 0.54906,0.0303 0.92375,0.11868 1.29829,0.30626 0.22141,0.11089 0.34067,0.19664 0.50981,0.36655 0.23322,0.23429 0.38612,0.4921 0.50177,0.846 0.16521,0.50554 0.19822,1.30541 0.0785,1.90144 -0.22284,1.1092 -0.92273,1.75089 -2.07286,1.90051 -0.20157,0.0262 -0.65567,0.0457 -0.79152,0.0339 l 0,0 z"
         id="path3293"
         inkscape:connector-curvature="0" />
    </g>
  </g>
  <g
     id="BlackKnight"
     transform="translate(-5.13451,7.1757993)"
     inkscape:label="#g4445">
    <path
       d="m 475.13451,335.93921 c 0,33.33333 0,66.66667 0,100 33.33333,0 66.66667,0 100,0 0,-34.28394 0,-70.37691 0,-100 -33.33333,0 -66.66667,0 -100,0 z"
       id="WhiteTile-4-4-59"
       style="font-size:medium;font-style:normal;font-variant:normal;font-weight:normal;font-stretch:normal;text-indent:0;text-align:start;text-decoration:none;line-height:normal;letter-spacing:normal;word-spacing:normal;text-transform:none;direction:ltr;block-progression:tb;writing-mode:lr-tb;text-anchor:start;baseline-shift:baseline;color:#000000;fill:none;stroke:none;stroke-width:25;marker:none;visibility:visible;display:inline;overflow:visible;enable-background:accumulate;font-family:Sans;-inkscape-font-specification:Sans"
       inkscape:connector-curvature="0" />
    <g
       transform="translate(3.56185,-0.01339)"
       id="g3393">
      <g
         style="font-size:40px;font-style:normal;font-weight:normal;line-height:125%;letter-spacing:0px;word-spacing:0px;fill:#000000;fill-opacity:1;stroke:none;font-family:Bitstream Vera Sans"
         id="BlackKnightText-4">
        <path
           inkscape:connector-curvature="0"
           d="m 503.69766,379.1876 c -1.1,0 -1.43,-1.32001 -1.43,-1.98 0,-2.75 3.41,-5.5 6.27,-5.5 0.99,0 2.64,0.33 2.64,1.43 0,2.30999 -4.84,6.05 -7.48,6.05 m -15.18,18.04 c 1.98,4.17999 3.52,5.61 8.14,6.82 1.32,0.32999 2.09,0.55 2.2,0.55 0.88,0 1.76,-0.44001 2.53,-1.43 0,2.30999 0.88,3.41 2.75,3.41 3.41,0 3.74001,-10.23001 16.17,-15.07 -1.21,10.44998 -12.1,12.65001 -12.54,26.84 l 46.42,0 c 0.33,-3.08 0.44,-6.05001 0.44,-9.13 0,-37.61997 -21.01001,-46.97 -27.61,-46.97 -0.66,0 -1.32,0.11 -1.76,0.22 -1.76,-5.5 -2.09001,-6.60001 -6.27,-8.91 -1.1,0 -2.75,1.76 -4.84,5.17 -2.09,-2.09 -6.05001,-3.63 -12.32,-3.63 0.33,1.75999 0.55,3.63 0.55,5.94 0,7.80999 -12.32,27.28 -13.86,36.19 m 6.71,-3.52 c 0.11,0.54999 0.22,0.99 0.22,1.32 0,1.86999 -1.65,3.19 -3.63,3.19 -0.22,-0.44 -0.33,-0.77001 -0.33,-1.1 0,-1.98 1.76,-3.41 3.74,-3.41 m 54.01,16.94 c 0,1.42999 -0.66,2.86 -1.98,2.86 -1.76,0 -2.09,-1.65001 -2.09,-2.97 0,-15.94999 -6.93002,-33.44001 -22.22,-41.14 -0.33,-0.11 -0.33,-0.66001 -0.33,-0.88 0,-1.21 2.09,-1.43 2.09,-1.43 6.48999,0 24.53,14.74002 24.53,43.56"
           style="font-size:110px;font-variant:normal;font-stretch:normal;font-family:FreeSerif;-inkscape-font-specification:FreeSerif"
           id="path3240" />
      </g>
      <path
         style="fill:#ffffff;fill-opacity:1;fill-rule:nonzero;stroke:#bbbbbb;stroke-width:0;stroke-linecap:butt;stroke-linejoin:miter;stroke-miterlimit:4;stroke-opacity:1;stroke-dasharray:none;stroke-dashoffset:0"
         d="m 491.79078,398.1527 c -0.11553,-0.2294 -0.22101,-0.51123 -0.26121,-0.69794 -0.0795,-0.36933 -0.0267,-0.90599 0.1353,-1.37507 0.15964,-0.46215 0.40444,-0.85465 0.76118,-1.22046 0.59022,-0.60522 1.39992,-1.00055 2.27961,-1.11302 0.15066,-0.0193 0.41383,-0.0377 0.47719,-0.0334 l 0.0431,0.003 0.0628,0.30726 c 0.14332,0.70068 0.16387,0.86103 0.14865,1.15982 -0.0384,0.75442 -0.3355,1.41825 -0.87742,1.96067 -0.25193,0.25216 -0.5249,0.45081 -0.857,0.62365 -0.51058,0.26574 -1.1142,0.42093 -1.71946,0.44207 l -0.1615,0.006 -0.0313,-0.0621 0,0 z"
         id="path3295"
         inkscape:connector-curvature="0" />
      <path
         style="fill:#ffffff;fill-opacity:1;fill-rule:nonzero;stroke:#bbbbbb;stroke-width:0;stroke-linecap:butt;stroke-linejoin:miter;stroke-miterlimit:4;stroke-opacity:1;stroke-dasharray:none;stroke-dashoffset:0"
         d="m 503.57689,379.17344 c -0.5299,-0.0428 -0.94536,-0.44562 -1.16636,-1.13078 -0.0919,-0.2848 -0.13226,-0.55105 -0.13171,-0.86786 0.002,-1.27699 0.78024,-2.67274 2.11206,-3.78907 1.06169,-0.88991 2.34692,-1.47971 3.56197,-1.63461 0.83698,-0.1067 1.82643,0.034 2.44809,0.34805 0.34782,0.17573 0.55947,0.371 0.67742,0.62504 0.0649,0.13986 0.0892,0.25572 0.089,0.42481 -4.3e-4,0.36231 -0.11005,0.73855 -0.34864,1.19666 -0.43786,0.84074 -1.28039,1.78484 -2.37178,2.65773 -1.48568,1.18824 -3.16429,2.01462 -4.37073,2.15171 -0.20418,0.0232 -0.36563,0.0291 -0.49933,0.0183 l 0,0 z"
         id="path3297"
         inkscape:connector-curvature="0" />
      <path
         style="fill:#ffffff;fill-opacity:1;fill-rule:nonzero;stroke:#bbbbbb;stroke-width:0;stroke-linecap:butt;stroke-linejoin:miter;stroke-miterlimit:4;stroke-opacity:1;stroke-dasharray:none;stroke-dashoffset:0"
         d="m 546.89343,413.40623 c -0.60812,-0.10481 -0.99493,-0.4047 -1.30564,-1.01223 -0.27491,-0.53755 -0.29129,-0.64226 -0.36688,-2.34497 -0.14249,-3.20994 -0.28591,-5.08397 -0.52608,-6.87433 -2.01372,-15.01098 -9.49717,-27.0809 -20.58214,-33.19656 -0.65884,-0.36349 -1.24422,-0.71672 -1.30085,-0.78495 -0.0566,-0.0682 -0.1071,-0.32976 -0.11214,-0.58115 -0.0116,-0.5795 0.30686,-0.94273 1.08663,-1.23923 1.99862,-0.75998 5.7977,0.91605 9.72202,4.28904 1.02419,0.8803 3.23553,3.14006 4.15025,4.24114 4.36398,5.253 7.71784,11.94456 9.58472,19.12328 1.18017,4.53809 1.77396,8.88044 1.8775,13.73007 0.0546,2.55558 0.0493,2.66281 -0.15816,3.20853 -0.42594,1.12059 -1.12105,1.60478 -2.06923,1.44136 l 0,0 z"
         id="path3299"
         inkscape:connector-curvature="0" />
    </g>
  </g>
  <g
     id="WhiteKnight"
     transform="translate(0.40489,6.2873093)"
     inkscape:label="#g4425">
    <path
       d="m 469.59511,221.8277 c 0,33.33333 0,66.66667 0,100 33.33333,0 66.66667,0 100,0 0,-34.28394 0,-70.37691 0,-100 -33.33333,0 -66.66667,0 -100,0 z"
       id="WhiteTile-4-4-04"
       style="font-size:medium;font-style:normal;font-variant:normal;font-weight:normal;font-stretch:normal;text-indent:0;text-align:start;text-decoration:none;line-height:normal;letter-spacing:normal;word-spacing:normal;text-transform:none;direction:ltr;block-progression:tb;writing-mode:lr-tb;text-anchor:start;baseline-shift:baseline;color:#000000;fill:none;stroke:none;stroke-width:25;marker:none;visibility:visible;display:inline;overflow:visible;enable-background:accumulate;font-family:Sans;-inkscape-font-specification:Sans"
       inkscape:connector-curvature="0" />
    <g
       transform="translate(-3.07755,0.9851)"
       id="g3382">
      <g
         style="font-size:40px;font-style:normal;font-weight:normal;line-height:125%;letter-spacing:0px;word-spacing:0px;fill:#000000;fill-opacity:1;stroke:none;font-family:Bitstream Vera Sans"
         id="WhiteKnightText-4">
        <path
           inkscape:connector-curvature="0"
           d="m 497.75766,277.3876 c -1.54,0 -2.31,0.99 -2.31,3.08 0,1.09999 0.11,1.76 1.1,1.76 1.87,0 2.75,-0.88001 2.75,-2.75 0,-1.43 -0.55,-2.09 -1.54,-2.09 m 7.92,-13.42 c 2.53,0 7.37,-3.19001 7.37,-5.94 0,-1.1 -1.54,-1.54 -2.53,-1.54 -2.75,0 -6.38,2.75 -6.38,5.61 0,0.98999 0.33,1.87 1.54,1.87 m 0.88,-20.68 c 2.53,0.65999 2.86,0.99 4.95,2.09 -1.1,0.76999 -4.07,1.76 -4.84,1.76 0.22,-0.99 0.33,-1.54001 0.33,-1.76 0,-0.66 -0.22,-1.32001 -0.44,-2.09 m 19.25,30.14 c -0.11,-0.55 -0.22,-0.88001 -0.22,-1.43 0,-2.64 2.75,-8.25001 2.75,-10.01 0,-0.88 -0.33,-1.43 -0.99,-1.43 -1.32,0 -5.17,5.28 -6.16,11.66 -5.83,2.52999 -10.45,6.27 -13.75,11.33 -1.65,2.52999 -2.53,3.85 -2.75,3.85 -0.99,0 -1.54,-0.33001 -1.54,-0.99 0,-0.22 0.66,-1.98 0.66,-2.09 0,-0.33 -0.22,-0.66 -0.55,-0.66 -1.98,0 -2.64,1.76 -4.18,1.76 -2.53,0 -5.06,-2.20001 -5.61,-4.29 0.88,-5.94 10.56,-20.24001 13.31,-29.48 4.83999,-3.63 11.11,-1.98001 13.2,-8.36 2.09,1.64999 1.54,7.48 3.41,8.36 l 6.6,0 c 4.06999,0 21.12,12.76002 21.12,40.15 0,2.41999 -0.22,4.95 -0.44,7.48 l -36.3,0 c 0.88,-6.38 11.44,-14.74002 11.44,-25.85 m 2.31,-26.4 c -0.66,0 -1.32,0.11 -1.87,0.22 -1.43,-5.17 -2.42,-6.93001 -6.05,-8.91 -1.32,0 -2.97,1.76 -4.95,5.17 -5.06,-3.41 -9.57,-3.74 -12.21,-3.74 0.44,3.73999 0.66,5.72 0.66,6.16 0,7.69999 -12.32,26.95 -13.86,36.08 2.09,4.39999 4.95,6.6 8.36,6.6 0.77,0 1.54,-0.22001 2.2,-0.55 0.22,1.75999 2.42,3.08 4.84,3.08 3.41,0 3.63001,-9.46001 16.17,-14.85 -1.21,10.99998 -11.55,11.99001 -12.43,27.06 l 46.09,0 c 0.33,-3.08 0.44,-6.16001 0.44,-9.24 0,-37.61997 -20.90001,-47.08 -27.39,-47.08"
           style="font-size:110px;font-variant:normal;font-stretch:normal;font-family:FreeSerif;-inkscape-font-specification:FreeSerif"
           id="path3243" />
      </g>
      <path
         style="fill:#ffffff;fill-opacity:1;fill-rule:nonzero;stroke:#bbbbbb;stroke-width:0;stroke-linecap:butt;stroke-linejoin:miter;stroke-miterlimit:4;stroke-opacity:1;stroke-dasharray:none;stroke-dashoffset:0"
         d="m 506.6797,247.11921 c 0,-0.006 0.0251,-0.12602 0.0558,-0.26623 0.0906,-0.41376 0.16265,-0.76529 0.20902,-1.01995 0.10801,-0.59324 0.0592,-1.00309 -0.24765,-2.08001 -0.0699,-0.24525 -0.12518,-0.4478 -0.12287,-0.45011 0.011,-0.011 0.89876,0.23883 1.28687,0.36217 0.89583,0.28469 1.39642,0.50745 2.58886,1.15202 0.1582,0.0855 0.45565,0.24512 0.66098,0.35467 0.20533,0.10956 0.37516,0.20078 0.37739,0.20273 0.008,0.007 -0.17931,0.12701 -0.34139,0.21898 -1.05908,0.60092 -3.22847,1.37441 -4.25727,1.5179 -0.15715,0.0219 -0.20977,0.0239 -0.20977,0.008 z"
         id="path3301"
         inkscape:connector-curvature="0" />
      <path
         style="fill:#ffffff;fill-opacity:1;fill-rule:nonzero;stroke:#bbbbbb;stroke-width:0;stroke-linecap:butt;stroke-linejoin:miter;stroke-miterlimit:4;stroke-opacity:1;stroke-dasharray:none;stroke-dashoffset:0"
         d="m 514.47197,298.98855 c 0,-0.41306 0.70703,-2.31097 1.22788,-3.29605 0.63577,-1.20241 1.50042,-2.59274 3.58462,-5.76393 0.85464,-1.30037 1.9086,-2.95283 2.34214,-3.67214 1.01208,-1.67922 2.402,-4.51842 2.91731,-5.9592 0.89994,-2.51621 1.36984,-5.09818 1.22968,-6.75673 -0.2065,-2.44333 -0.15786,-2.69675 1.42817,-7.44219 0.58501,-1.75039 1.09407,-3.4375 1.13123,-3.74914 0.12341,-1.03484 -0.28104,-1.83251 -0.92916,-1.83251 -0.95017,0 -2.71149,2.17407 -4.16499,5.14099 -0.88504,1.80659 -1.51179,3.6418 -1.90148,5.56785 -0.10743,0.531 -0.20889,0.97329 -0.22545,0.98287 -0.0166,0.01 -0.4928,0.23498 -1.05831,0.50089 -4.8664,2.28824 -8.89998,5.58391 -11.86367,9.69332 -0.34958,0.48472 -1.13478,1.63043 -1.7449,2.54601 -1.52823,2.29337 -1.6166,2.3996 -1.99399,2.39698 -0.17051,-0.001 -0.49574,-0.0865 -0.72274,-0.18951 -0.58117,-0.26383 -0.61213,-0.4883 -0.23711,-1.71905 0.3547,-1.16404 0.37496,-1.42485 0.12802,-1.64832 -0.40007,-0.36206 -1.45141,-0.0865 -2.56633,0.6727 -1.03194,0.70267 -1.2476,0.8073 -1.82071,0.88333 -0.65355,0.0867 -1.64179,-0.16626 -2.63126,-0.67352 -1.09276,-0.56022 -2.22297,-1.68902 -2.7414,-2.738 l -0.3771,-0.76299 0.26529,-1.04852 c 0.55958,-2.21169 2.14969,-5.66349 5.9864,-12.99518 3.88604,-7.42597 5.81709,-11.57172 6.84259,-14.69031 l 0.25819,-0.78517 0.80739,-0.50188 c 0.44406,-0.27604 0.90234,-0.54995 1.01839,-0.6087 0.61134,-0.30949 2.08885,-0.84388 3.9598,-1.43219 2.45165,-0.77091 3.51906,-1.21115 4.47096,-1.84397 1.17897,-0.78378 2.22115,-2.0961 2.71795,-3.42248 l 0.17548,-0.4685 0.23824,0.22369 c 0.56983,0.53503 0.95121,1.6791 1.73941,5.2178 0.29033,1.30348 0.66356,2.21157 1.07659,2.61945 l 0.27269,0.26929 3.54309,0 c 3.98784,0 3.97275,-0.002 5.45868,0.74423 3.23658,1.62551 7.24549,5.44034 10.17733,9.68463 4.61206,6.67668 7.44021,14.81228 8.30597,23.89335 0.2073,2.17442 0.30031,5.79664 0.20177,7.85819 -0.0982,2.05333 -0.26567,4.42308 -0.35305,4.99428 l -0.0487,0.31825 -18.06246,0 -18.06246,0 0,-0.20792 z m -16.80504,-16.87148 c 0.60872,-0.1832 1.09017,-0.56255 1.35367,-1.06661 0.17127,-0.32763 0.2218,-0.61808 0.25026,-1.4387 0.0321,-0.92459 0.0128,-1.07187 -0.19102,-1.46161 -0.42999,-0.82213 -1.42344,-1.03466 -2.43688,-0.52134 -0.45139,0.22863 -0.57353,0.35299 -0.80893,0.82363 -0.56619,1.13197 -0.57432,3.09771 -0.0148,3.58293 0.3056,0.26502 1.11906,0.30099 1.84773,0.0817 l 0,0 z m 9.46077,-18.39198 c 2.3176,-0.71194 4.84726,-2.7008 5.63774,-4.43247 0.51168,-1.12094 0.37846,-1.89982 -0.40332,-2.35797 -0.5829,-0.34161 -0.96321,-0.43892 -1.76319,-0.45115 -0.86118,-0.0132 -1.55285,0.14515 -2.47635,0.56683 -2.46564,1.12583 -4.17596,3.38717 -3.99856,5.2868 0.1481,1.58605 1.03091,1.99398 3.00368,1.38796 l 0,0 z"
         id="path3303"
         inkscape:connector-curvature="0" />
    </g>
  </g>
  <g
     id="WhitePawn"
     transform="translate(-0.92238,4.0715493)"
     inkscape:label="#g4433">
    <path
       d="m 585.92238,224.04346 c 0,33.33333 0,66.66667 0,100 33.33333,0 66.66667,0 100,0 0,-34.28394 0,-70.37691 0,-100 -33.33333,0 -66.66667,0 -100,0 z"
       id="WhiteTile-4-4-1"
       style="font-size:medium;font-style:normal;font-variant:normal;font-weight:normal;font-stretch:normal;text-indent:0;text-align:start;text-decoration:none;line-height:normal;letter-spacing:normal;word-spacing:normal;text-transform:none;direction:ltr;block-progression:tb;writing-mode:lr-tb;text-anchor:start;baseline-shift:baseline;color:#000000;fill:none;stroke:none;stroke-width:25;marker:none;visibility:visible;display:inline;overflow:visible;enable-background:accumulate;font-family:Sans;-inkscape-font-specification:Sans"
       inkscape:connector-curvature="0" />
    <g
       transform="translate(-1.77469,3.08469)"
       id="g3388">
      <g
         style="font-size:40px;font-style:normal;font-weight:normal;line-height:125%;letter-spacing:0px;word-spacing:0px;fill:#000000;fill-opacity:1;stroke:none;font-family:Bitstream Vera Sans"
         id="WhitePawnText-8">
        <path
           inkscape:connector-curvature="0"
           d="m 633.68207,273.26877 c 0,-1.98 -6.38,-3.30001 -6.38,-9.24 0,-7.04 7.59,-8.14001 7.59,-10.56 0,-2.97 -2.2,-4.18001 -2.2,-6.6 0,-2.42 2.31001,-4.51 4.84,-4.51 2.53,0 5.06,2.09 5.06,4.73 0,2.52999 -2.2,3.3 -2.2,6.38 0,2.63999 7.7,3.3 7.7,10.56 0,7.58999 -6.49,5.94 -6.49,9.24 0,5.27999 15.73,4.51002 15.73,25.63 l -39.27,0 c 0,-21.11998 15.62,-20.46001 15.62,-25.63 m -19.47,30.03 46.97,0 c 0.11,-1.43 0.11,-3.19 0.11,-5.06 0,-13.30999 -5.06001,-19.58001 -14.74,-24.53 3.52,-1.1 6.27,-5.06001 6.27,-9.79 0,-4.95 -2.53,-8.47001 -7.59,-10.56 1.32,-2.2 1.98,-4.29 1.98,-6.27 0,-4.95 -4.4,-8.47 -9.46,-8.47 -4.94999,0 -9.46,3.41 -9.46,8.47 0,1.98 0.55,4.07 1.76,6.27 -4.94999,2.08999 -7.48,5.61 -7.48,10.56 0,4.61999 2.64001,8.69 6.16,9.79 -9.78999,4.94999 -14.63,11.33001 -14.63,24.53 0,2.08999 0,3.74 0.11,5.06"
           style="font-size:110px;font-variant:normal;font-stretch:normal;font-family:FreeSerif;-inkscape-font-specification:FreeSerif"
           id="path3246" />
      </g>
      <path
         style="fill:#ffffff;fill-opacity:1;fill-rule:nonzero;stroke:#bbbbbb;stroke-width:0;stroke-linecap:butt;stroke-linejoin:miter;stroke-miterlimit:4;stroke-opacity:1;stroke-dasharray:none;stroke-dashoffset:0"
         d="m 618.17543,297.16456 c 0.24458,-7.06082 2.60085,-12.61342 6.93248,-16.33652 1.30976,-1.12576 2.11967,-1.7114 4.3899,-3.1743 2.98043,-1.92054 3.52208,-2.37896 3.98468,-3.37241 0.45794,-0.98345 0.23088,-1.66285 -0.84427,-2.52615 -0.29622,-0.23785 -1.07937,-0.86254 -1.74033,-1.3882 -1.85073,-1.47187 -2.73491,-2.65302 -3.26873,-4.3666 -0.19279,-0.61888 -0.22765,-0.9347 -0.22155,-2.00743 0.008,-1.46761 0.16417,-2.23931 0.67574,-3.34654 0.70013,-1.51534 1.82787,-2.73095 3.91836,-4.22366 1.86729,-1.33334 2.29848,-1.68151 2.60296,-2.10183 0.25297,-0.34922 0.28579,-0.47573 0.28579,-1.10175 0,-0.9381 -0.3063,-1.85654 -1.16751,-3.50081 -0.83679,-1.59765 -1.03211,-2.23177 -0.95538,-3.10173 0.22847,-2.59024 2.88646,-4.56902 5.53529,-4.12081 1.60568,0.2717 3.08917,1.36654 3.79973,2.80427 0.29101,0.58881 0.35631,0.8399 0.39595,1.52236 0.0614,1.05804 -0.13627,1.69583 -0.95404,3.07756 -0.94211,1.5918 -1.31924,2.88856 -1.13134,3.89013 0.10572,0.56353 0.80636,1.22363 2.57362,2.42466 2.42276,1.64653 3.57899,2.81273 4.29587,4.33293 0.49631,1.05246 0.64942,1.73634 0.70446,3.14652 0.0866,2.21852 -0.28477,3.63138 -1.30279,4.95679 -0.52089,0.67816 -1.20932,1.20285 -2.50954,1.91263 -1.55138,0.8469 -2.01202,1.1841 -2.30929,1.69044 -0.50812,0.86549 -0.29964,2.03524 0.52551,2.94858 0.54369,0.6018 1.21148,1.08817 3.51586,2.56068 1.13102,0.72273 2.51301,1.65996 3.07109,2.08273 5.27493,3.99601 7.78192,9.18182 8.23712,17.03883 0.0534,0.92127 0.0977,1.75216 0.0985,1.84641 10e-4,0.16264 -0.99664,0.17136 -19.59844,0.17136 l -19.59987,0 0.0602,-1.73814 z"
         id="path3305"
         inkscape:connector-curvature="0" />
    </g>
  </g>
  <g
     id="WhiteBishop"
     transform="translate(0.624275,7.3951893)"
     inkscape:label="#g4414">
    <path
       d="m 354.37573,220.71982 c 0,33.33333 0,66.66667 0,100 33.33333,0 66.66667,0 99.99999,0 0,-34.28394 0,-70.37691 0,-100 -33.33332,0 -66.66666,0 -99.99999,0 z"
       id="WhiteTile-4-4-8"
       style="font-size:medium;font-style:normal;font-variant:normal;font-weight:normal;font-stretch:normal;text-indent:0;text-align:start;text-decoration:none;line-height:normal;letter-spacing:normal;word-spacing:normal;text-transform:none;direction:ltr;block-progression:tb;writing-mode:lr-tb;text-anchor:start;baseline-shift:baseline;color:#000000;fill:none;stroke:none;stroke-width:25;marker:none;visibility:visible;display:inline;overflow:visible;enable-background:accumulate;font-family:Sans;-inkscape-font-specification:Sans"
       inkscape:connector-curvature="0" />
    <g
       transform="translate(-3.351875,2.95722)"
       id="g3373">
      <g
         style="font-size:40px;font-style:normal;font-weight:normal;line-height:125%;letter-spacing:0px;word-spacing:0px;fill:#000000;fill-opacity:1;stroke:none;font-family:Bitstream Vera Sans"
         id="WhiteBishopText-5">
        <path
           inkscape:connector-curvature="0"
           d="m 407.7276,273.5376 c 4.50999,0 8.47,-0.22001 11.88,-0.66 -0.44,0.87999 -0.66,1.76 -0.66,2.64 0,0.98999 0.22,1.98 0.66,2.75 -2.09,-0.66 -6.05001,-0.99 -11.88,-0.99 -4.18,0 -9.79,0.33 -11.88,0.99 0.44,-0.77 0.66,-1.76001 0.66,-2.75 0,-0.88 -0.33,-1.76001 -0.77,-2.64 2.85999,0.43999 9.13,0.66 11.99,0.66 m 0,-39.82 c 1.76,0 3.41,1.43 3.41,3.19 0,1.86999 -1.54,3.3 -3.41,3.3 -1.87,0 -3.41,-1.43001 -3.41,-3.3 0,-1.65 1.65,-3.19 3.41,-3.19 m 0,46.75 c 10.44999,0 12.87,0.66 12.87,2.86 0,0.98999 -4.29001,1.54 -12.87,1.54 -1.76,0 -3.3,0.11 -4.62,0.11 -5.17,0 -8.36,-0.22001 -8.36,-1.65 0,-1.76 1.76001,-2.86 12.98,-2.86 m -0.22,-35.97 c 6.37999,0.65999 17.27,8.8 17.93,15.95 -0.99,7.25999 -1.32002,9.9 -17.82,9.9 -16.38999,0 -16.61,-2.31001 -17.6,-9.9 0.66,-7.26 11.66,-15.29001 17.49,-15.95 m -1.76,20.46 3.96,0 0,-4.84 3.74,0 0,-4.29 -3.74,0 0,-4.73 -3.96,0 0,4.73 -3.74,0 0,4.29 3.74,0 0,4.84 m 1.98,26.4 c -2.86,5.49999 -12.76001,7.48 -21.23,7.48 -0.55,0 -5.61,0.88 -5.83,0.88 -1.32,0 -2.09,-0.66001 -2.31,-2.2 0,-2.09 1.98001,-3.52 12.32,-3.52 13.30998,-0.77 13.64,-6.6 16.83,-6.6 3.18999,0 3.74001,5.61 18.04,6.6 9.89999,0.76999 11.55,1.65 11.55,3.52 0,1.64999 -1.1,2.2 -2.31,2.2 -0.33,0 -5.39,-0.77 -5.94,-0.88 -7.26,-0.22 -18.26001,-1.98001 -21.12,-7.48 m 15.07,-16.39 c 4.39999,-4.95 6.6,-9.46001 6.6,-13.64 0,-10.55999 -13.42001,-18.48001 -16.39,-18.81 1.54,-1.87 2.31,-3.96001 2.31,-6.16 0,-4.18 -3.30001,-6.71 -7.59,-6.71 -4.4,0 -7.7,2.42 -7.7,6.71 0,2.19999 0.88,4.29 2.42,6.16 -3.41,0.32999 -16.39,8.25001 -16.39,18.81 0,8.46999 6.6,12.43 6.6,13.75 0,1.64999 -2.2,7.04 -2.2,8.47 0,2.52999 2.64,4.07 7.81,4.73 -3.85,1.31999 -7.37001,2.09 -10.56,2.09 -0.55,0 -6.27,-0.33 -6.49,-0.33 -3.52,0 -6.6,2.31 -9.02,6.93 1.87,2.52999 4.84,8.14 7.59,8.91 0.99,-4.73 19.58001,-0.55001 27.94,-8.91 7.80999,7.80999 26.84,3.96 27.94,8.91 3.51999,-1.43 5.5,-5.72001 7.59,-8.91 -2.42,-4.62 -5.50001,-6.93 -9.02,-6.93 -0.77,0 -5.72,0.33 -6.49,0.33 -3.3,0 -6.82001,-0.77001 -10.56,-2.09 5.16999,-0.66 7.81,-2.20001 7.81,-4.73 0,-1.76 -2.2,-6.27001 -2.2,-8.58"
           style="font-size:110px;font-variant:normal;font-stretch:normal;font-family:FreeSerif;-inkscape-font-specification:FreeSerif"
           id="path3234" />
      </g>
      <path
         style="fill:#ffffff;fill-opacity:1;fill-rule:nonzero;stroke:#bbbbbb;stroke-width:0;stroke-linecap:butt;stroke-linejoin:miter;stroke-miterlimit:4;stroke-opacity:1;stroke-dasharray:none;stroke-dashoffset:0"
         d="m 407.47963,240.19494 c -0.48784,-0.0441 -0.87494,-0.14642 -1.2701,-0.3358 -0.55432,-0.26567 -0.99002,-0.63712 -1.32744,-1.13169 -0.34846,-0.51077 -0.53021,-1.07087 -0.55609,-1.71367 -0.0267,-0.66339 0.21385,-1.33851 0.69127,-1.94011 0.1247,-0.15714 0.41937,-0.44799 0.58283,-0.5753 0.40391,-0.31455 0.86632,-0.54804 1.32164,-0.66735 0.44493,-0.11658 0.93749,-0.13582 1.39023,-0.0543 0.93415,0.16821 1.78892,0.72438 2.31306,1.50504 0.27153,0.40443 0.44229,0.87217 0.49118,1.34545 0.0202,0.19574 0.008,0.60125 -0.0243,0.79051 -0.11998,0.7088 -0.42224,1.29773 -0.92029,1.79312 -0.51522,0.51246 -1.18613,0.84283 -1.93925,0.95494 -0.16561,0.0246 -0.61151,0.0419 -0.75278,0.0292 l 0,0 z"
         id="path3307"
         inkscape:connector-curvature="0" />
      <path
         style="fill:#ffffff;fill-opacity:1;fill-rule:nonzero;stroke:#bbbbbb;stroke-width:0;stroke-linecap:butt;stroke-linejoin:miter;stroke-miterlimit:4;stroke-opacity:1;stroke-dasharray:none;stroke-dashoffset:0"
         d="m 403.82463,270.2712 c -7.29195,-0.22439 -10.55254,-1.1375 -12.11077,-3.39157 -0.70163,-1.01494 -1.07016,-2.23887 -1.46128,-4.85313 -0.20326,-1.35863 -0.21669,-1.81834 -0.0726,-2.48424 0.46979,-2.17068 1.66748,-4.32583 3.68028,-6.62238 3.37636,-3.85234 8.78897,-7.36318 12.68171,-8.22587 0.78519,-0.17401 0.9566,-0.18544 1.49461,-0.0996 2.51612,0.4013 5.63844,1.85024 8.71393,4.04378 4.07843,2.90886 7.13293,6.55169 8.22136,9.80489 0.44662,1.3349 0.48701,1.94082 0.23426,3.51396 -0.40272,2.5065 -0.77668,3.70445 -1.48543,4.75843 -0.28036,0.41694 -1.01994,1.14329 -1.44665,1.42078 -2.08266,1.35439 -5.28759,1.9585 -11.35077,2.13957 -1.87972,0.0561 -5.19492,0.054 -7.09868,-0.005 l 0,0 z m 5.89989,-7.70612 0,-2.42361 1.86055,0 1.86055,0 0,-2.17879 0,-2.1788 -1.86055,0 -1.86055,0 0,-2.35017 0,-2.35017 -2.00743,0 -2.00743,0 0,2.35017 0,2.35017 -1.86055,0 -1.86055,0 0,2.1788 0,2.17879 1.86055,0 1.86055,0 0,2.42361 0,2.42361 2.00743,0 2.00743,0 0,-2.42361 z"
         id="path3309"
         inkscape:connector-curvature="0" />
      <path
         style="fill:#ffffff;fill-opacity:1;fill-rule:nonzero;stroke:#bbbbbb;stroke-width:0;stroke-linecap:butt;stroke-linejoin:miter;stroke-miterlimit:4;stroke-opacity:1;stroke-dasharray:none;stroke-dashoffset:0"
         d="m 395.98185,278.02354 c 0.33791,-0.67691 0.52642,-1.5597 0.52746,-2.47014 8.4e-4,-0.72677 -0.16761,-1.38809 -0.59085,-2.31975 -0.079,-0.1738 -0.1387,-0.32086 -0.13277,-0.3268 0.006,-0.006 0.17954,0.0119 0.38578,0.0397 1.68456,0.22679 4.44264,0.40829 8.31904,0.54743 1.16756,0.0419 5.93486,0.0416 7.06274,-4.8e-4 3.02648,-0.11289 5.16239,-0.2646 7.35178,-0.52219 0.3542,-0.0417 0.64944,-0.0703 0.65608,-0.0637 0.007,0.007 -0.0368,0.12077 -0.0965,0.25362 -0.42012,0.93492 -0.58999,1.90035 -0.50554,2.87325 0.0665,0.76616 0.30015,1.63933 0.55504,2.07427 0.0344,0.0587 0.0572,0.11213 0.0506,0.11871 -0.007,0.007 -0.13081,-0.0214 -0.27605,-0.0622 -1.66424,-0.4673 -4.445,-0.751 -8.42089,-0.85911 -1.28926,-0.0351 -4.59544,-0.0356 -5.69181,-9.5e-4 -4.21824,0.13335 -7.55178,0.45777 -9.09347,0.885 -0.0944,0.0262 -0.17967,0.0475 -0.18957,0.0475 -0.01,0 0.0301,-0.0964 0.0889,-0.21421 l 0,0 z"
         id="path3311"
         inkscape:connector-curvature="0" />
      <path
         style="fill:#ffffff;fill-opacity:1;fill-rule:nonzero;stroke:#bbbbbb;stroke-width:0;stroke-linecap:butt;stroke-linejoin:miter;stroke-miterlimit:4;stroke-opacity:1;stroke-dasharray:none;stroke-dashoffset:0"
         d="m 400.84286,284.94532 c -3.1844,-0.0718 -4.8481,-0.31739 -5.59728,-0.82615 -0.38525,-0.26162 -0.50763,-0.52074 -0.47169,-0.99878 0.0814,-1.08228 1.10621,-1.71709 3.41279,-2.11396 1.3104,-0.22547 2.7783,-0.35523 5.17771,-0.45773 1.22541,-0.0523 6.07098,-0.0749 7.82455,-0.0365 6.16617,0.13525 8.55416,0.63132 9.20193,1.91158 0.11222,0.22179 0.16195,0.42948 0.17588,0.73459 l 0.0129,0.28153 -0.0767,0.10479 c -0.44105,0.60246 -2.73216,1.00431 -6.79533,1.19188 -1.41732,0.0654 -2.34151,0.0867 -4.83498,0.11135 -1.33972,0.0132 -2.90955,0.0408 -3.48853,0.0613 -1.32755,0.0469 -3.34914,0.063 -4.5412,0.0361 z"
         id="path3313"
         inkscape:connector-curvature="0" />
      <path
         style="fill:#ffffff;fill-opacity:1;fill-rule:nonzero;stroke:#bbbbbb;stroke-width:0;stroke-linecap:butt;stroke-linejoin:miter;stroke-miterlimit:4;stroke-opacity:1;stroke-dasharray:none;stroke-dashoffset:0"
         d="m 380.17195,299.65321 c -0.91514,-0.16363 -1.43255,-0.67991 -1.68992,-1.68623 -0.1158,-0.45276 -0.12246,-0.69182 -0.0291,-1.04267 0.14473,-0.54364 0.39424,-0.91002 0.84803,-1.24526 1.39904,-1.03353 4.42934,-1.54744 9.63247,-1.63357 1.84421,-0.0305 2.64567,-0.0755 3.99164,-0.22395 3.40162,-0.3752 6.29846,-1.21095 8.48534,-2.44804 1.01344,-0.57329 1.86406,-1.19281 3.11702,-2.27016 1.00843,-0.8671 1.24118,-1.04808 1.66628,-1.29566 0.49025,-0.28554 0.7855,-0.36766 1.32197,-0.36769 0.85648,-6e-5 1.3089,0.2321 2.97219,1.52519 1.2208,0.94909 1.63378,1.24315 2.38912,1.70116 2.32697,1.411 5.20614,2.36915 8.76022,2.91527 1.25433,0.19275 2.30669,0.30688 4.75324,0.51551 5.54541,0.47289 8.11061,0.91295 9.49858,1.62949 0.48389,0.24981 0.95649,0.7327 1.06577,1.08898 0.12442,0.4056 0.14975,0.72656 0.089,1.12782 -0.10485,0.69266 -0.49395,1.24458 -1.06761,1.51436 -0.3235,0.15214 -0.95059,0.25771 -1.3112,0.22073 -0.53186,-0.0545 -2.02729,-0.26946 -3.91694,-0.56295 -1.0318,-0.16025 -2.12226,-0.30186 -2.44809,-0.31791 -6.0759,-0.29929 -11.0544,-1.26173 -14.8515,-2.87109 -2.64114,-1.11942 -4.54752,-2.62392 -5.6237,-4.43819 l -0.0949,-0.16004 -0.28978,0.46842 c -1.67089,2.70095 -5.17899,4.69903 -10.35647,5.89865 -2.72412,0.63117 -5.56874,0.972 -9.00573,1.07902 -1.88345,0.0587 -2.17175,0.0908 -5.26984,0.58785 -2.02447,0.32479 -2.28566,0.35362 -2.6361,0.29096 l 0,0 z"
         id="path3315"
         inkscape:connector-curvature="0" />
    </g>
  </g>
  <g
     id="WhiteRook"
     transform="translate(-0.264225,5.1794293)"
     inkscape:label="#g4386">
    <path
       d="m 240.26423,222.93558 c 0,33.33333 0,66.66667 0,100 33.33333,0 66.66667,0 99.99999,0 0,-34.28394 0,-70.37691 0,-100 -33.33332,0 -66.66666,0 -99.99999,0 z"
       id="WhiteTile-4-4-0"
       style="font-size:medium;font-style:normal;font-variant:normal;font-weight:normal;font-stretch:normal;text-indent:0;text-align:start;text-decoration:none;line-height:normal;letter-spacing:normal;word-spacing:normal;text-transform:none;direction:ltr;block-progression:tb;writing-mode:lr-tb;text-anchor:start;baseline-shift:baseline;color:#000000;fill:none;stroke:none;stroke-width:25;marker:none;visibility:visible;display:inline;overflow:visible;enable-background:accumulate;font-family:Sans;-inkscape-font-specification:Sans"
       inkscape:connector-curvature="0" />
    <g
       transform="translate(-2.487805,1.97064)"
       id="g3365">
      <g
         style="font-size:40px;font-style:normal;font-weight:normal;line-height:125%;letter-spacing:0px;word-spacing:0px;fill:#000000;fill-opacity:1;stroke:none;font-family:Bitstream Vera Sans"
         id="WhiteRookText-4">
        <path
           inkscape:connector-curvature="0"
           d="m 280.21203,260.56994 25.08,0 0,19.47 -25.08,0 0,-19.47 m -12.98,42.68 51.04,0 2.09,-2.09 0,-7.59 -11.22,-11.33 0,-22 9.68,-8.47 0,-10.01 -3.19,-3.08 -9.9,0 -1.98,1.87 0,2.86 -3.08,0 0,-2.86 -1.87,-1.87 -12.1,0 -1.87,1.87 0,2.86 -3.19,0 0,-2.86 -1.87,-1.87 -9.9,0 -3.19,3.08 0,10.01 9.68,8.47 0,22 -11.22,11.33 0,7.59 2.09,2.09 m 1.76,-8.69 47.52,0 0,4.29 -47.52,0 0,-4.29 m 10.78,-10.89 25.96,0 7.26,7.04 -40.48,0 7.26,-7.04 m 8.8,-40.37 8.36,0 0,2.86 1.65,1.54 7.15,0 1.65,-1.54 0,-3.08 6.16,0 1.43,1.54 0,6.16 -7.48,6.05 -29.48,0 -7.48,-6.05 0,-6.16 1.43,-1.54 6.16,0 0,3.08 1.65,1.54 7.15,0 1.65,-1.54 0,-2.86"
           style="font-size:110px;font-variant:normal;font-stretch:normal;font-family:FreeSerif;-inkscape-font-specification:FreeSerif"
           id="path3231" />
      </g>
      <path
         style="fill:#ffffff;fill-opacity:1;fill-rule:nonzero;stroke:#bbbbbb;stroke-width:0;stroke-linecap:butt;stroke-linejoin:miter;stroke-miterlimit:4;stroke-opacity:1;stroke-dasharray:none;stroke-dashoffset:0"
         d="m 269.01634,296.7025 0,-2.10535 23.74647,0 23.74646,0 0,2.10535 0,2.10536 -23.74646,0 -23.74647,0 0,-2.10536 z"
         id="path3317"
         inkscape:connector-curvature="0" />
      <path
         style="fill:#ffffff;fill-opacity:1;fill-rule:nonzero;stroke:#bbbbbb;stroke-width:0;stroke-linecap:butt;stroke-linejoin:miter;stroke-miterlimit:4;stroke-opacity:1;stroke-dasharray:none;stroke-dashoffset:0"
         d="m 276.1662,287.18897 3.60518,-3.49675 12.98693,0.002 12.98693,0.002 2.96011,2.87571 c 1.62806,1.58164 3.24833,3.15402 3.60061,3.49417 l 0.64049,0.61846 -20.19271,5.2e-4 -20.19271,5.2e-4 3.60517,-3.49674 z"
         id="path3319"
         inkscape:connector-curvature="0" />
      <path
         style="fill:#ffffff;fill-opacity:1;fill-rule:nonzero;stroke:#bbbbbb;stroke-width:0;stroke-linecap:butt;stroke-linejoin:miter;stroke-miterlimit:4;stroke-opacity:1;stroke-dasharray:none;stroke-dashoffset:0"
         d="m 280.21209,270.31113 0,-9.71125 12.53288,0 12.53288,0 0,9.71125 0,9.71125 -12.53288,0 -12.53288,0 0,-9.71125 z"
         id="path3321"
         inkscape:connector-curvature="0" />
      <path
         style="fill:#ffffff;fill-opacity:1;fill-rule:nonzero;stroke:#bbbbbb;stroke-width:0;stroke-linecap:butt;stroke-linejoin:miter;stroke-miterlimit:4;stroke-opacity:1;stroke-dasharray:none;stroke-dashoffset:0"
         d="m 274.28996,253.79027 -3.7558,-3.03819 0,-3.05027 0,-3.05027 0.71324,-0.76619 0.71324,-0.76619 3.0813,0 3.08129,0 0,1.53717 0,1.53717 0.82011,0.76346 0.82011,0.76345 3.58654,5.8e-4 3.58654,5.8e-4 0.82956,-0.77115 0.82956,-0.77114 0.003,-1.43214 0.003,-1.43213 4.16176,0 4.16175,0 0,1.43674 0,1.43674 0.82011,0.7648 0.82011,0.76481 3.58952,0.002 3.58952,0.002 0.82807,-0.77115 0.82808,-0.77114 10e-4,-1.53006 0.001,-1.53006 3.07473,0 3.07472,0 0.69324,0.74667 0.69324,0.74667 9.2e-4,3.08459 9.1e-4,3.08459 -3.73216,3.02067 -3.73216,3.02067 -14.71503,0.003 -14.71503,0.003 -3.7558,-3.03819 z"
         id="path3323"
         inkscape:connector-curvature="0" />
    </g>
  </g>
  <g
     id="WhiteQueen"
     transform="translate(-3.368475,5.1794293)"
     inkscape:label="#g4371">
    <path
       d="m 128.36848,222.93558 c 0,33.33333 0,66.66667 0,100 33.33332,0 66.66666,0 99.99999,0 0,-34.28394 0,-70.37691 0,-100 -33.33333,0 -66.66667,0 -99.99999,0 z"
       id="WhiteTile-4-4-5"
       style="font-size:medium;font-style:normal;font-variant:normal;font-weight:normal;font-stretch:normal;text-indent:0;text-align:start;text-decoration:none;line-height:normal;letter-spacing:normal;word-spacing:normal;text-transform:none;direction:ltr;block-progression:tb;writing-mode:lr-tb;text-anchor:start;baseline-shift:baseline;color:#000000;fill:none;stroke:none;stroke-width:25;marker:none;visibility:visible;display:inline;overflow:visible;enable-background:accumulate;font-family:Sans;-inkscape-font-specification:Sans"
       inkscape:connector-curvature="0" />
    <g
       transform="translate(0.750865,5.00798)"
       id="g3352">
      <g
         style="font-size:40px;font-style:normal;font-weight:normal;line-height:125%;letter-spacing:0px;word-spacing:0px;fill:#000000;fill-opacity:1;stroke:none;font-family:Bitstream Vera Sans"
         id="WhiteQueenText-1">
        <path
           inkscape:connector-curvature="0"
           d="m 177.61761,278.5976 c -6.92999,0 -15.62,0.77 -17.16,0.77 -1.87,0 -1.98,-0.22001 -1.98,-0.99 0,-3.41 13.86001,-4.51 19.25,-4.51 5.17,0 19.25,1.1 19.25,4.51 0,0.76999 -0.22,0.99 -1.98,0.99 -3.51999,0 -7.04001,-0.77 -17.38,-0.77 m 17.93,4.95 c -0.88,0.76999 -1.32,2.2 -1.32,4.29 0,1.31999 0.22,2.2 0.66,2.53 -4.83999,-0.88 -10.56,-1.21 -17.16,-1.21 -6.59999,0 -12.32,0.33 -17.16,1.21 0.44,-0.33 0.66,-1.21001 0.66,-2.53 0,-2.09 -0.44,-3.52001 -1.32,-4.29 4.95,-0.66 11.99001,-1.1 17.82,-1.1 5.83,0 11.77001,0.33 17.82,1.1 m 0.11,12.54 c 0,1.75999 -5.94001,2.75 -17.93,2.75 -11.98999,0 -17.93,-0.99001 -17.93,-2.75 0,-1.98 3.74002,-3.08 17.93,-3.08 14.29999,0 17.93,1.32 17.93,3.08 m -17.93,-60.61 c 1.76,0 2.64,0.88 2.64,2.64 0,1.86999 -0.88,2.86 -2.64,2.86 -1.87,0 -2.75,-0.99001 -2.75,-2.86 0,-1.76 0.88,-2.64 2.75,-2.64 m -3.85,13.53 c 0,3.95999 -0.77,9.24 -2.31,15.95 -3.95999,-8.47 -5.94,-14.74001 -5.94,-18.92 0,-0.99 0.66,-4.51001 0.66,-4.73 0,-3.3 -2.75,-6.16 -6.16,-6.16 -3.40999,0 -6.27,2.75 -6.27,6.16 0,5.93999 5.06,2.42001 5.06,14.19 0,2.30999 -0.11,5.39 -0.55,9.24 -4.72999,-4.84 -7.04,-8.80001 -7.04,-11.99 0,-0.44 0.55,-3.96001 0.55,-4.29 0,-3.3 -2.75,-6.16 -6.16,-6.16 -3.29999,0 -6.16,2.86 -6.16,6.16 0,2.96999 1.65001,5.28 5.06,6.82 0.33,6.26999 2.53,13.97 3.96,19.8 2.09,5.38999 8.14,8.36 8.14,12.65 0,1.97999 -3.08,5.39 -3.08,9.46 l 0,1.87 c 0,3.51999 14.85001,4.4 23.87,4.4 6.38,0 23.98,-0.55001 23.98,-4.4 l 0,-1.76 c 0,-3.85 -3.08,-7.15001 -3.08,-9.46 0,-2.97 8.25,-10.45001 8.25,-12.65 1.65,-6.82 3.63,-13.64001 3.96,-19.8 3.41,-1.54 5.06,-3.85001 5.06,-6.82 0,-3.3 -2.86,-6.16 -6.27,-6.16 -3.18999,0 -6.05,2.86 -6.05,6.16 0,0.54999 0.55,4.18 0.55,4.29 0,3.18999 -2.42,7.15 -7.15,11.99 -0.33,-3.85 -0.55,-6.93001 -0.55,-9.24 0,-11.87999 5.06,-8.14001 5.06,-14.19 0,-3.3 -2.75,-6.16 -6.27,-6.16 -3.29999,0 -6.05,2.75 -6.05,6.16 0.11,1.20999 0.66,3.52 0.66,4.73 0,4.28999 -1.98,10.56 -5.94,18.92 -1.21,-5.28 -2.42,-11.44001 -2.42,-15.95 0,-6.6 2.42,-8.47001 2.42,-10.56 0,-3.41 -2.64,-6.16 -6.05,-6.16 -3.29999,0 -6.16,2.75 -6.16,6.16 0,1.97999 2.31,4.18 2.31,10.56 l 0.11,-0.11 m 35.53,-3.08 c 1.87,0 2.75,0.88 2.75,2.64 0,1.86999 -0.88,2.86 -2.75,2.86 -1.43,0 -2.64,-1.32001 -2.64,-2.86 0,-1.43 1.32,-2.64 2.64,-2.64 m -14.41,-7.04 c 1.87,0 2.86,0.88 2.86,2.75 0,1.86999 -0.99,2.75 -2.86,2.75 -1.43,0 -2.64,-1.32001 -2.64,-2.75 0,-1.43 1.21,-2.75 2.64,-2.75 m -34.98,0 c 1.76,0 2.64,0.88 2.64,2.75 0,1.86999 -0.88,2.75 -2.64,2.75 -1.87,0 -2.75,-0.88001 -2.75,-2.75 0,-1.87 0.88,-2.75 2.75,-2.75 m -14.41,7.04 c 1.32,0 2.64,1.21 2.64,2.64 0,1.86999 -0.88,2.86 -2.64,2.86 -1.87,0 -2.75,-0.99001 -2.75,-2.86 0,-1.76 0.88,-2.64 2.75,-2.64 m 32.01,7.04 c 2.97,13.96998 2.97001,11.77 5.61,16.72 1.54,-3.08 4.62001,-2.64002 9.57,-17.49 -0.11,1.31999 -0.22,2.64 -0.22,4.07 0,2.96999 0.77,9.46 1.87,15.07 3.96,-2.31 7.70001,-6.05001 11.44,-11.22 -0.88,5.16999 -2.64,14.41 -4.4,14.96 -6.04999,-3.52 -14.08001,-5.17 -23.87,-5.17 -9.78999,0 -17.71,1.65 -23.87,5.17 -1.76,-0.55 -3.08,-7.70001 -4.51,-14.96 3.74,5.16999 7.59001,8.91 11.55,11.22 0.88,-5.06 1.87,-11.11001 1.87,-15.95 0,-1.32 -0.11,-2.42001 -0.22,-3.19 3.96,11.76998 5.39001,12.32 9.57,17.49 0.77,-2.97 3.41001,-2.97002 5.61,-16.72"
           style="font-size:110px;font-variant:normal;font-stretch:normal;font-family:FreeSerif;-inkscape-font-specification:FreeSerif"
           id="path3222" />
      </g>
      <path
         style="fill:#ffffff;fill-opacity:1;fill-rule:nonzero;stroke:#bbbbbb;stroke-width:0;stroke-linecap:butt;stroke-linejoin:miter;stroke-miterlimit:4;stroke-opacity:1;stroke-dasharray:none;stroke-dashoffset:0"
         d="m 159.6992,279.33539 c -0.3086,-0.0188 -0.6813,-0.0859 -0.82928,-0.14937 -0.29775,-0.12763 -0.3842,-0.3333 -0.36022,-0.85697 0.0175,-0.3814 0.16032,-0.66523 0.51141,-1.01606 0.78988,-0.78929 2.30267,-1.42289 4.73615,-1.98362 2.96897,-0.68412 6.51675,-1.12051 11.2099,-1.37887 1.03271,-0.0569 4.46287,-0.0567 5.47015,2.7e-4 3.97405,0.22472 7.07023,0.56616 9.76318,1.07669 4.77071,0.90442 7.04724,2.14061 6.73386,3.65657 -0.0557,0.26964 -0.14426,0.38851 -0.36032,0.48384 -0.32926,0.14529 -0.61857,0.17363 -1.71699,0.16818 -1.16472,-0.006 -1.6509,-0.0321 -4.0853,-0.22101 -5.03006,-0.39036 -8.17777,-0.51839 -12.73834,-0.51813 -4.04048,2.4e-4 -6.89112,0.11218 -13.66033,0.53644 -3.49801,0.21924 -4.02092,0.24185 -4.67387,0.20204 l 0,0 z"
         id="path3325"
         inkscape:connector-curvature="0" />
      <path
         style="fill:#ffffff;fill-opacity:1;fill-rule:nonzero;stroke:#bbbbbb;stroke-width:0;stroke-linecap:butt;stroke-linejoin:miter;stroke-miterlimit:4;stroke-opacity:1;stroke-dasharray:none;stroke-dashoffset:0"
         d="m 174.32666,298.79203 c -4.34922,-0.0717 -8.2378,-0.35731 -10.57678,-0.77698 -2.14353,-0.3846 -3.35625,-0.85882 -3.7838,-1.47962 -0.12378,-0.17972 -0.12839,-0.19713 -0.12839,-0.48514 0,-0.26396 0.0128,-0.3258 0.11027,-0.53149 0.27094,-0.57196 0.92744,-0.99879 2.06255,-1.341 1.96995,-0.5939 4.70134,-0.89047 9.96191,-1.08167 1.67173,-0.0608 9.66644,-0.0613 11.19996,-7.4e-4 5.45753,0.21548 8.43243,0.56189 10.42442,1.21386 1.32647,0.43415 2.02766,1.03226 2.0341,1.73506 0.003,0.36116 -0.16197,0.62402 -0.56613,0.90038 -1.83296,1.2534 -7.84759,1.88984 -17.60489,1.86288 -1.44716,-0.004 -2.85711,-0.011 -3.13322,-0.0155 l 0,0 z"
         id="path3327"
         inkscape:connector-curvature="0" />
      <path
         style="fill:#ffffff;fill-opacity:1;fill-rule:nonzero;stroke:#bbbbbb;stroke-width:0;stroke-linecap:butt;stroke-linejoin:miter;stroke-miterlimit:4;stroke-opacity:1;stroke-dasharray:none;stroke-dashoffset:0"
         d="m 160.7722,290.1652 c 0.14255,-0.19842 0.26519,-0.5104 0.34219,-0.87049 0.20945,-0.97952 0.14894,-2.72879 -0.13296,-3.84356 -0.17232,-0.68145 -0.52625,-1.36936 -0.91258,-1.77373 -0.0764,-0.08 -0.10473,-0.12991 -0.0737,-0.13005 0.0277,-1.3e-4 0.42421,-0.0462 0.88121,-0.1023 3.83082,-0.47061 8.74465,-0.80815 13.67538,-0.93941 1.90147,-0.0506 6.71331,-0.0207 8.55144,0.0532 4.08188,0.16403 7.63389,0.43531 11.1596,0.85228 0.63474,0.0751 1.17759,0.13648 1.20633,0.13648 0.0303,0 -0.0399,0.0996 -0.16737,0.23733 -0.62372,0.674 -0.98672,1.84715 -1.06575,3.44436 -0.0705,1.42461 0.10601,2.53646 0.47022,2.96196 0.0669,0.0782 0.1037,0.14211 0.0818,0.14211 -0.0219,0 -0.40874,-0.0618 -0.85957,-0.13733 -2.84475,-0.47662 -6.09712,-0.77326 -10.53095,-0.9605 -2.06038,-0.087 -9.2946,-0.0867 -11.35576,5.2e-4 -4.41666,0.18684 -7.5393,0.47125 -10.50179,0.95648 -0.47288,0.0775 -0.86624,0.14083 -0.87413,0.14083 -0.008,0 0.04,-0.0757 0.10646,-0.16815 z"
         id="path3329"
         inkscape:connector-curvature="0" />
      <path
         style="fill:#ffffff;fill-opacity:1;fill-rule:nonzero;stroke:#bbbbbb;stroke-width:0;stroke-linecap:butt;stroke-linejoin:miter;stroke-miterlimit:4;stroke-opacity:1;stroke-dasharray:none;stroke-dashoffset:0"
         d="m 153.57386,274.96801 c -0.24034,-0.16072 -0.40773,-0.34144 -0.63395,-0.68446 -0.72654,-1.10166 -1.47129,-3.52728 -2.39575,-7.8029 -0.36532,-1.68958 -1.24025,-6.12492 -1.2135,-6.15167 0.011,-0.011 0.28023,0.3276 0.59833,0.75241 1.41549,1.89031 3.0918,3.83054 4.64425,5.37544 1.9177,1.90838 3.63596,3.30125 5.54807,4.49741 0.54235,0.33928 0.70024,0.4182 0.70024,0.35001 0,-0.013 0.17487,-1.07608 0.3886,-2.36241 0.97819,-5.8873 1.36238,-9.28951 1.45006,-12.84109 0.029,-1.17637 0.0127,-1.68363 -0.10176,-3.15804 l -0.0266,-0.34273 0.22131,0.61202 c 0.12172,0.33662 0.34554,0.96455 0.49738,1.39542 1.81438,5.1486 3.31838,8.2791 5.12801,10.67366 0.48726,0.64477 3.24587,4.01674 3.56097,4.35273 0.0847,0.0903 0.0897,0.0845 0.17079,-0.19584 0.13049,-0.45132 0.40754,-1.00523 0.92817,-1.85568 1.26818,-2.07161 1.76235,-3.12458 2.48024,-5.28479 0.70948,-2.1349 1.41059,-5.11028 1.90439,-8.08178 0.085,-0.51165 0.16869,-0.95644 0.18593,-0.98841 0.0173,-0.032 0.22593,0.83832 0.46374,1.93399 0.72316,3.33177 1.37144,6.04853 1.79559,7.52481 0.5809,2.02183 1.04052,3.08802 2.04732,4.74929 0.14688,0.24236 0.49721,0.84827 0.77851,1.34645 0.28129,0.49819 0.51817,0.91261 0.52639,0.92094 0.008,0.008 0.0875,-0.11285 0.17626,-0.26929 0.31764,-0.56011 0.65714,-0.98229 1.6855,-2.09598 1.69312,-1.8336 2.65257,-3.22704 3.9444,-5.72857 1.02157,-1.97817 2.35284,-5.21305 3.37875,-8.21003 0.17221,-0.5031 0.32083,-0.90701 0.33025,-0.89759 0.009,0.009 -0.022,0.49817 -0.0698,1.08609 -0.24208,2.97638 0.007,6.68295 0.81712,12.18328 0.29652,2.01204 0.89514,5.49158 0.95537,5.55316 0.0445,0.0456 1.02755,-0.56812 1.89792,-1.18484 1.41018,-0.99923 2.64929,-2.06338 4.14473,-3.55949 1.56704,-1.56776 2.99292,-3.22592 4.56436,-5.30793 0.4246,-0.56255 0.77199,-0.98544 0.77199,-0.93976 0,0.10778 -0.23485,1.42936 -0.54453,3.06422 -0.96324,5.08511 -1.91143,8.66723 -2.73644,10.33794 -0.28489,0.57692 -0.62017,1.05831 -0.83708,1.20185 l -0.18933,0.1253 -0.67385,-0.36774 c -4.70782,-2.56919 -10.55188,-4.09305 -17.68807,-4.61226 -3.488,-0.25377 -8.68442,-0.22231 -11.98124,0.0725 -5.38108,0.48126 -9.84404,1.49867 -13.84786,3.15688 -0.8413,0.34843 -2.35798,1.07461 -3.10137,1.48494 -0.25256,0.1394 -0.47349,0.25346 -0.49097,0.25346 -0.0175,0 -0.0862,-0.0364 -0.15283,-0.081 z"
         id="path3331"
         inkscape:connector-curvature="0" />
      <path
         style="fill:#ffffff;fill-opacity:1;fill-rule:nonzero;stroke:#bbbbbb;stroke-width:0;stroke-linecap:butt;stroke-linejoin:miter;stroke-miterlimit:4;stroke-opacity:1;stroke-dasharray:none;stroke-dashoffset:0"
         d="m 177.34126,240.95592 c -0.0774,-0.006 -0.20962,-0.0218 -0.29377,-0.0353 -1.21248,-0.19583 -1.88838,-0.94033 -2.03315,-2.23952 -0.037,-0.33187 -0.0338,-0.83346 0.007,-1.14448 0.18135,-1.374 1.07225,-2.05027 2.70099,-2.05027 1.36228,0 2.18776,0.51704 2.50143,1.56678 0.0905,0.30282 0.13161,0.63707 0.13178,1.07103 2.6e-4,0.65859 -0.0941,1.15288 -0.30482,1.597 -0.10788,0.22737 -0.22931,0.39842 -0.41366,0.58271 -0.22646,0.2264 -0.45345,0.37037 -0.76842,0.48738 -0.39924,0.14832 -0.95376,0.20812 -1.52762,0.16472 z"
         id="path3333"
         inkscape:connector-curvature="0" />
      <path
         style="fill:#ffffff;fill-opacity:1;fill-rule:nonzero;stroke:#bbbbbb;stroke-width:0;stroke-linecap:butt;stroke-linejoin:miter;stroke-miterlimit:4;stroke-opacity:1;stroke-dasharray:none;stroke-dashoffset:0"
         d="m 194.82816,244.37734 c -0.62685,-0.0545 -1.20382,-0.33943 -1.66796,-0.82386 -0.42712,-0.44579 -0.6945,-0.99528 -0.77463,-1.59199 -0.0203,-0.1513 -0.023,-0.46532 -0.005,-0.61234 0.0881,-0.72758 0.47714,-1.41967 1.05971,-1.88504 0.37095,-0.29633 0.76678,-0.47377 1.21717,-0.54564 0.26546,-0.0424 0.81494,-0.0192 1.19298,0.0502 0.8341,0.15322 1.40458,0.5579 1.71806,1.21875 0.16425,0.34624 0.24731,0.7089 0.27359,1.19454 0.0363,0.67073 -0.0569,1.25313 -0.27275,1.70385 -0.35989,0.75161 -1.02559,1.16274 -2.05293,1.26786 -0.17326,0.0177 -0.59092,0.0321 -0.68805,0.0237 l 0,0 z"
         id="path3335"
         inkscape:connector-curvature="0" />
      <path
         style="fill:#ffffff;fill-opacity:1;fill-rule:nonzero;stroke:#bbbbbb;stroke-width:0;stroke-linecap:butt;stroke-linejoin:miter;stroke-miterlimit:4;stroke-opacity:1;stroke-dasharray:none;stroke-dashoffset:0"
         d="m 209.22051,251.41505 c -0.48542,-0.0498 -0.90467,-0.21449 -1.29412,-0.5085 -0.51666,-0.39004 -0.90922,-0.9931 -1.06684,-1.63894 -0.0624,-0.25581 -0.0799,-0.40542 -0.0799,-0.68403 5e-5,-0.27566 0.0144,-0.39047 0.0793,-0.63498 0.24004,-0.90415 1.04051,-1.69322 1.96323,-1.9353 0.22481,-0.059 0.36394,-0.0751 0.64268,-0.0744 1.08786,0.003 1.85402,0.32948 2.27335,0.96947 0.28144,0.42954 0.40777,0.94485 0.40767,1.66293 -1.1e-4,0.79971 -0.14652,1.39279 -0.45932,1.86056 -0.34988,0.52323 -0.89958,0.83689 -1.66198,0.94831 -0.21546,0.0315 -0.65225,0.0504 -0.80412,0.0349 z"
         id="path3337"
         inkscape:connector-curvature="0" />
      <path
         style="fill:#ffffff;fill-opacity:1;fill-rule:nonzero;stroke:#bbbbbb;stroke-width:0;stroke-linecap:butt;stroke-linejoin:miter;stroke-miterlimit:4;stroke-opacity:1;stroke-dasharray:none;stroke-dashoffset:0"
         d="m 145.30401,251.41151 c -0.60786,-0.036 -1.11571,-0.1994 -1.50557,-0.48446 -0.0438,-0.032 -0.13401,-0.11105 -0.20055,-0.17568 -0.4916,-0.4775 -0.72973,-1.18764 -0.72973,-2.17616 0,-0.6092 0.0844,-1.03986 0.28248,-1.44213 0.10422,-0.21161 0.21452,-0.3678 0.36711,-0.51981 0.44793,-0.44624 1.13054,-0.67283 2.03152,-0.67435 0.16774,-2.8e-4 0.29265,0.006 0.37813,0.0189 0.86394,0.13043 1.66423,0.73226 2.06405,1.55217 0.18818,0.38589 0.2611,0.74461 0.24546,1.20753 -0.0211,0.62401 -0.12179,1.08777 -0.32349,1.48973 -0.17172,0.34218 -0.439,0.63975 -0.74967,0.83461 -0.27412,0.17193 -0.66624,0.30143 -1.05885,0.34967 -0.18494,0.0227 -0.58595,0.0328 -0.80089,0.02 z"
         id="path3339"
         inkscape:connector-curvature="0" />
      <path
         style="fill:#ffffff;fill-opacity:1;fill-rule:nonzero;stroke:#bbbbbb;stroke-width:0;stroke-linecap:butt;stroke-linejoin:miter;stroke-miterlimit:4;stroke-opacity:1;stroke-dasharray:none;stroke-dashoffset:0"
         d="m 159.81891,244.37753 c -0.78337,-0.0313 -1.3559,-0.21904 -1.78385,-0.58507 -0.35288,-0.30182 -0.60141,-0.78906 -0.6998,-1.37195 -0.0581,-0.34405 -0.0748,-0.91185 -0.0375,-1.27448 0.11446,-1.11387 0.59195,-1.78139 1.48686,-2.07861 0.29308,-0.0973 0.59134,-0.14651 1.00372,-0.16548 0.79662,-0.0367 1.43997,0.10374 1.9096,0.41671 0.16125,0.10746 0.39888,0.34607 0.5048,0.50689 0.19531,0.29653 0.313,0.60791 0.38168,1.00983 0.0477,0.27947 0.0604,0.44688 0.0607,0.80175 2.6e-4,0.36605 -0.0137,0.54031 -0.0666,0.83396 -0.0997,0.55291 -0.30269,0.96126 -0.63861,1.28482 -0.29459,0.28373 -0.66295,0.46171 -1.16008,0.56048 -0.21165,0.0421 -0.68481,0.0722 -0.96087,0.0611 l 0,0 z"
         id="path3341"
         inkscape:connector-curvature="0" />
    </g>
  </g>
</svg>
