<?xml version="1.0" encoding="UTF-8" standalone="no"?>
<!-- Created with Inkscape (http://www.inkscape.org/) -->

<svg
   xmlns:dc="http://purl.org/dc/elements/1.1/"
   xmlns:cc="http://creativecommons.org/ns#"
   xmlns:rdf="http://www.w3.org/1999/02/22-rdf-syntax-ns#"
   xmlns:svg="http://www.w3.org/2000/svg"
   xmlns="http://www.w3.org/2000/svg"
   xmlns:sodipodi="http://sodipodi.sourceforge.net/DTD/sodipodi-0.dtd"
   xmlns:inkscape="http://www.inkscape.org/namespaces/inkscape"
   version="1.1"
   width="80"
   height="80"
   id="svg2"
   inkscape:version="0.48.3.1 r9886"
   sodipodi:docname="icon.svg"
   inkscape:export-filename="/home/frank/code/equites/trunk/lost+found/resources/icon48.png"
   inkscape:export-xdpi="54"
   inkscape:export-ydpi="54">
  <sodipodi:namedview
     pagecolor="#ffffff"
     bordercolor="#666666"
     borderopacity="1"
     objecttolerance="10"
     gridtolerance="10"
     guidetolerance="10"
     inkscape:pageopacity="0"
     inkscape:pageshadow="2"
     inkscape:window-width="1600"
     inkscape:window-height="853"
     id="namedview3595"
     showgrid="false"
     fit-margin-top="-15"
     fit-margin-left="-15"
     fit-margin-right="-15"
     fit-margin-bottom="-15"
     inkscape:zoom="2.3974017"
     inkscape:cx="10.06807"
     inkscape:cy="31.921581"
     inkscape:window-x="-3"
     inkscape:window-y="-3"
     inkscape:window-maximized="1"
     inkscape:current-layer="svg2"
     showborder="true"
     inkscape:showpageshadow="true" />
  <defs
     id="defs4" />
  <metadata
     id="metadata7">
    <rdf:RDF>
      <cc:Work
         rdf:about="">
        <dc:format>image/svg+xml</dc:format>
        <dc:type
           rdf:resource="http://purl.org/dc/dcmitype/StillImage" />
        <dc:title></dc:title>
      </cc:Work>
    </rdf:RDF>
  </metadata>
  <g
     transform="matrix(1.1,0,0,1.1,-537.64796,-384.53313)"
     id="BlackKnight"
     inkscape:export-filename="/home/frank/code/equites/trunk/lost+found/resources/icon16.png"
     inkscape:export-xdpi="13.09"
     inkscape:export-ydpi="13.09">
    <path
       d="m 475.13451,335.93921 c 0,33.33333 0,66.66667 0,100 33.33333,0 66.66667,0 100,0 0,-34.28394 0,-70.37691 0,-100 -33.33333,0 -66.66667,0 -100,0 z"
       id="WhiteTile-4-4-59"
       style="font-size:medium;font-style:normal;font-variant:normal;font-weight:normal;font-stretch:normal;text-indent:0;text-align:start;text-decoration:none;line-height:normal;letter-spacing:normal;word-spacing:normal;text-transform:none;direction:ltr;block-progression:tb;writing-mode:lr-tb;text-anchor:start;baseline-shift:baseline;color:#000000;fill:none;stroke:none;stroke-width:25;marker:none;visibility:visible;display:inline;overflow:visible;enable-background:accumulate;font-family:Sans;-inkscape-font-specification:Sans"
       inkscape:connector-curvature="0" />
    <g
       transform="translate(3.56185,-0.01339)"
       id="g3393">
      <g
         id="BlackKnightText-4"
         style="font-size:40px;font-style:normal;font-weight:normal;line-height:125%;letter-spacing:0px;word-spacing:0px;fill:#000000;fill-opacity:1;stroke:none;font-family:Bitstream Vera Sans">
        <path
           d="m 503.69766,379.1876 c -1.1,0 -1.43,-1.32001 -1.43,-1.98 0,-2.75 3.41,-5.5 6.27,-5.5 0.99,0 2.64,0.33 2.64,1.43 0,2.30999 -4.84,6.05 -7.48,6.05 m -15.18,18.04 c 1.98,4.17999 3.52,5.61 8.14,6.82 1.32,0.32999 2.09,0.55 2.2,0.55 0.88,0 1.76,-0.44001 2.53,-1.43 0,2.30999 0.88,3.41 2.75,3.41 3.41,0 3.74001,-10.23001 16.17,-15.07 -1.21,10.44998 -12.1,12.65001 -12.54,26.84 l 46.42,0 c 0.33,-3.08 0.44,-6.05001 0.44,-9.13 0,-37.61997 -21.01001,-46.97 -27.61,-46.97 -0.66,0 -1.32,0.11 -1.76,0.22 -1.76,-5.5 -2.09001,-6.60001 -6.27,-8.91 -1.1,0 -2.75,1.76 -4.84,5.17 -2.09,-2.09 -6.05001,-3.63 -12.32,-3.63 0.33,1.75999 0.55,3.63 0.55,5.94 0,7.80999 -12.32,27.28 -13.86,36.19 m 6.71,-3.52 c 0.11,0.54999 0.22,0.99 0.22,1.32 0,1.86999 -1.65,3.19 -3.63,3.19 -0.22,-0.44 -0.33,-0.77001 -0.33,-1.1 0,-1.98 1.76,-3.41 3.74,-3.41 m 54.01,16.94 c 0,1.42999 -0.66,2.86 -1.98,2.86 -1.76,0 -2.09,-1.65001 -2.09,-2.97 0,-15.94999 -6.93002,-33.44001 -22.22,-41.14 -0.33,-0.11 -0.33,-0.66001 -0.33,-0.88 0,-1.21 2.09,-1.43 2.09,-1.43 6.48999,0 24.53,14.74002 24.53,43.56"
           id="path3240"
           style="font-size:110px;font-variant:normal;font-stretch:normal;font-family:FreeSerif;-inkscape-font-specification:FreeSerif"
           inkscape:connector-curvature="0" />
      </g>
      <path
         d="m 491.79078,398.1527 c -0.11553,-0.2294 -0.22101,-0.51123 -0.26121,-0.69794 -0.0795,-0.36933 -0.0267,-0.90599 0.1353,-1.37507 0.15964,-0.46215 0.40444,-0.85465 0.76118,-1.22046 0.59022,-0.60522 1.39992,-1.00055 2.27961,-1.11302 0.15066,-0.0193 0.41383,-0.0377 0.47719,-0.0334 l 0.0431,0.003 0.0628,0.30726 c 0.14332,0.70068 0.16387,0.86103 0.14865,1.15982 -0.0384,0.75442 -0.3355,1.41825 -0.87742,1.96067 -0.25193,0.25216 -0.5249,0.45081 -0.857,0.62365 -0.51058,0.26574 -1.1142,0.42093 -1.71946,0.44207 l -0.1615,0.006 -0.0313,-0.0621 0,0 z"
         id="path3295"
         style="fill:#ffffff;fill-opacity:1;fill-rule:nonzero;stroke:#bbbbbb;stroke-width:0;stroke-linecap:butt;stroke-linejoin:miter;stroke-miterlimit:4;stroke-opacity:1;stroke-dasharray:none;stroke-dashoffset:0"
         inkscape:connector-curvature="0" />
      <path
         d="m 503.57689,379.17344 c -0.5299,-0.0428 -0.94536,-0.44562 -1.16636,-1.13078 -0.0919,-0.2848 -0.13226,-0.55105 -0.13171,-0.86786 0.002,-1.27699 0.78024,-2.67274 2.11206,-3.78907 1.06169,-0.88991 2.34692,-1.47971 3.56197,-1.63461 0.83698,-0.1067 1.82643,0.034 2.44809,0.34805 0.34782,0.17573 0.55947,0.371 0.67742,0.62504 0.0649,0.13986 0.0892,0.25572 0.089,0.42481 -4.3e-4,0.36231 -0.11005,0.73855 -0.34864,1.19666 -0.43786,0.84074 -1.28039,1.78484 -2.37178,2.65773 -1.48568,1.18824 -3.16429,2.01462 -4.37073,2.15171 -0.20418,0.0232 -0.36563,0.0291 -0.49933,0.0183 l 0,0 z"
         id="path3297"
         style="fill:#ffffff;fill-opacity:1;fill-rule:nonzero;stroke:#bbbbbb;stroke-width:0;stroke-linecap:butt;stroke-linejoin:miter;stroke-miterlimit:4;stroke-opacity:1;stroke-dasharray:none;stroke-dashoffset:0"
         inkscape:connector-curvature="0" />
      <path
         d="m 546.89343,413.40623 c -0.60812,-0.10481 -0.99493,-0.4047 -1.30564,-1.01223 -0.27491,-0.53755 -0.29129,-0.64226 -0.36688,-2.34497 -0.14249,-3.20994 -0.28591,-5.08397 -0.52608,-6.87433 -2.01372,-15.01098 -9.49717,-27.0809 -20.58214,-33.19656 -0.65884,-0.36349 -1.24422,-0.71672 -1.30085,-0.78495 -0.0566,-0.0682 -0.1071,-0.32976 -0.11214,-0.58115 -0.0116,-0.5795 0.30686,-0.94273 1.08663,-1.23923 1.99862,-0.75998 5.7977,0.91605 9.72202,4.28904 1.02419,0.8803 3.23553,3.14006 4.15025,4.24114 4.36398,5.253 7.71784,11.94456 9.58472,19.12328 1.18017,4.53809 1.77396,8.88044 1.8775,13.73007 0.0546,2.55558 0.0493,2.66281 -0.15816,3.20853 -0.42594,1.12059 -1.12105,1.60478 -2.06923,1.44136 l 0,0 z"
         id="path3299"
         style="fill:#ffffff;fill-opacity:1;fill-rule:nonzero;stroke:#bbbbbb;stroke-width:0;stroke-linecap:butt;stroke-linejoin:miter;stroke-miterlimit:4;stroke-opacity:1;stroke-dasharray:none;stroke-dashoffset:0"
         inkscape:connector-curvature="0" />
    </g>
  </g>
</svg>
