<?xml version="1.0" encoding="UTF-8" standalone="no"?>
<!-- Created with Inkscape (http://www.inkscape.org/) -->

<svg
   xmlns:dc="http://purl.org/dc/elements/1.1/"
   xmlns:cc="http://creativecommons.org/ns#"
   xmlns:rdf="http://www.w3.org/1999/02/22-rdf-syntax-ns#"
   xmlns:svg="http://www.w3.org/2000/svg"
   xmlns="http://www.w3.org/2000/svg"
   version="1.1"
   width="365"
   height="185"
   id="svg2">
  <metadata
     id="metadata7">
    <rdf:RDF>
      <cc:Work
         rdf:about="">
        <dc:format>image/svg+xml</dc:format>
        <dc:type
           rdf:resource="http://purl.org/dc/dcmitype/StillImage" />
        <dc:title></dc:title>
      </cc:Work>
    </rdf:RDF>
  </metadata>
  <g
     transform="translate(10,10)"
     id="BlackKing">
    <rect
       width="45"
       height="45"
       x="0"
       y="0"
       id="BlackKingTile"
       style="fill:none;stroke:none" />
    <g
       id="layer1-1">
      <path
         d="M 22.5,11.625 22.5,6"
         id="path6570"
         style="fill:none;stroke:#000000;stroke-width:1.5;stroke-linecap:round;stroke-linejoin:miter;stroke-miterlimit:4;stroke-opacity:1;stroke-dasharray:none" />
      <path
         d="m 22.5,25 c 0,0 4.5,-7.5 3,-10.5 0,0 -1,-2.5 -3,-2.5 -2,0 -3,2.5 -3,2.5 -1.5,3 3,10.5 3,10.5"
         id="path5683"
         style="fill:#000000;fill-opacity:1;fill-rule:evenodd;stroke:#000000;stroke-width:1.5;stroke-linecap:butt;stroke-linejoin:miter;stroke-miterlimit:4;stroke-opacity:1;stroke-dasharray:none" />
      <path
         d="m 11.5,37 c 5.5,3.5 15.5,3.5 21,0 l 0,-7 c 0,0 9,-4.5 6,-10.5 -4,-6.5 -13.5,-3.5 -16,4 l 0,3.5 0,-3.5 C 19,16 9.5,13 6.5,19.5 c -3,6 5,10 5,10 l 0,7.5 z"
         id="path5681"
         style="fill:#000000;fill-opacity:1;fill-rule:evenodd;stroke:#000000;stroke-width:1.5;stroke-linecap:round;stroke-linejoin:round;stroke-miterlimit:4;stroke-opacity:1;stroke-dasharray:none" />
      <path
         d="m 20,8 5,0"
         id="path6572"
         style="fill:none;stroke:#000000;stroke-width:1.5;stroke-linecap:round;stroke-linejoin:miter;stroke-miterlimit:4;stroke-opacity:1;stroke-dasharray:none" />
      <path
         d="M 11.5,29.5 C 17,27 27,27 32.5,30"
         id="path6574"
         style="fill:none;stroke:#ffffff;stroke-width:1.5;stroke-linecap:round;stroke-linejoin:miter;stroke-miterlimit:4;stroke-opacity:1;stroke-dasharray:none" />
      <path
         d="M 11.5,37 C 17,34.5 27,34.5 32.5,37"
         id="path6576"
         style="fill:none;stroke:#ffffff;stroke-width:1.5;stroke-linecap:round;stroke-linejoin:round;stroke-miterlimit:4;stroke-opacity:1;stroke-dasharray:none" />
      <path
         d="m 11.5,33.5 c 5.5,-2 15.5,-2 21,0"
         id="path6578"
         style="fill:none;stroke:#ffffff;stroke-width:1.5;stroke-linecap:round;stroke-linejoin:round;stroke-miterlimit:4;stroke-opacity:1;stroke-dasharray:none" />
      <path
         d="m 32,29.5 c 0,0 8.5,-4 6.026,-9.653 C 34.147,13.997 25,18 22.5,24.5 L 22.512,26.597 22.5,24.5 C 20,18 9.9064,13.997 6.9975,19.847 c -2.4975,5.653 4.8485,9 4.8485,9"
         id="path5638"
         style="fill:none;stroke:#ffffff;stroke-width:1.5;stroke-linecap:round;stroke-linejoin:round;stroke-miterlimit:4;stroke-opacity:1;stroke-dasharray:none" />
    </g>
  </g>
  <g
     transform="translate(70,10)"
     id="BlackQueen">
    <rect
       width="45"
       height="45"
       x="0"
       y="0"
       id="BlackQueenTile"
       style="fill:none;stroke:none" />
    <g
       id="layer1-82">
      <path
         d="m 8,12 a 2,2 0 1 1 -4,0 2,2 0 1 1 4,0 z"
         id="path5571-8"
         style="fill:#000000;fill-opacity:1;stroke:#000000;stroke-width:1;stroke-linecap:round;stroke-linejoin:round;stroke-miterlimit:4;stroke-opacity:1;stroke-dasharray:none" />
      <path
         d="m 9,13 a 2,2 0 1 1 -4,0 2,2 0 1 1 4,0 z"
         transform="translate(15.5,-5.5)"
         id="path5573-1"
         style="fill:#000000;fill-opacity:1;stroke:#000000;stroke-width:1;stroke-linecap:round;stroke-linejoin:round;stroke-miterlimit:4;stroke-opacity:1;stroke-dasharray:none" />
      <path
         d="m 9,13 a 2,2 0 1 1 -4,0 2,2 0 1 1 4,0 z"
         transform="translate(32,-1)"
         id="path5575-1"
         style="fill:#000000;fill-opacity:1;stroke:#000000;stroke-width:1;stroke-linecap:round;stroke-linejoin:round;stroke-miterlimit:4;stroke-opacity:1;stroke-dasharray:none" />
      <path
         d="m 9,13 a 2,2 0 1 1 -4,0 2,2 0 1 1 4,0 z"
         transform="translate(7,-4.5)"
         id="path5577-6"
         style="fill:#000000;fill-opacity:1;stroke:#000000;stroke-width:1;stroke-linecap:round;stroke-linejoin:round;stroke-miterlimit:4;stroke-opacity:1;stroke-dasharray:none" />
      <path
         d="m 9,13 a 2,2 0 1 1 -4,0 2,2 0 1 1 4,0 z"
         transform="translate(24,-4)"
         id="path5579-2"
         style="fill:#000000;fill-opacity:1;stroke:#000000;stroke-width:1;stroke-linecap:round;stroke-linejoin:round;stroke-miterlimit:4;stroke-opacity:1;stroke-dasharray:none" />
      <path
         d="m 9,26 c 8.5,-1.5 21,-1.5 27,0 l 2,-12 -7,11 0,-14 -5.5,13.5 -3,-15 -3,15 L 14,10.5 14,25 7,14 9,26 z"
         id="path5581-9"
         style="fill:#000000;fill-opacity:1;fill-rule:evenodd;stroke:#000000;stroke-width:1px;stroke-linecap:butt;stroke-linejoin:round;stroke-opacity:1" />
      <path
         d="m 9,26 c 0,2 1.5,2 2.5,4 1,1.5 1,1 0.5,3.5 -1.5,1 -1.5,2.5 -1.5,2.5 -1.5,1.5 0.5,2.5 0.5,2.5 6.5,1 16.5,1 23,0 0,0 1.5,-1 0,-2.5 0,0 0.5,-1.5 -1,-2.5 -0.5,-2.5 -0.5,-2 0.5,-3.5 1,-2 2.5,-2 2.5,-4 -8.5,-1.5 -18.5,-1.5 -27,0 z"
         id="path5583-2"
         style="fill:#000000;fill-opacity:1;fill-rule:evenodd;stroke:#000000;stroke-width:1px;stroke-linecap:butt;stroke-linejoin:round;stroke-opacity:1" />
      <path
         d="M 11.5,30 C 15,29 30,29 33.5,30"
         id="path5585-2"
         style="fill:none;stroke:#ffffff;stroke-width:1px;stroke-linecap:round;stroke-linejoin:round;stroke-opacity:1" />
      <path
         d="m 12,33.5 c 6,-1 15,-1 21,0"
         id="path5587-1"
         style="fill:none;stroke:#ffffff;stroke-width:1px;stroke-linecap:round;stroke-linejoin:round;stroke-opacity:1" />
      <path
         d="M 10.5,36 C 15.5,35 29,35 34,36"
         id="path5589-8"
         style="fill:none;stroke:#ffffff;stroke-width:1px;stroke-linecap:round;stroke-linejoin:round;stroke-opacity:1" />
    </g>
  </g>
  <g
     transform="translate(130,10)"
     id="BlackRook">
    <rect
       width="45"
       height="45"
       x="0"
       y="0"
       id="BlackRookTile"
       style="fill:none;stroke:none" />
    <g
       id="layer1-71"
       style="display:inline">
      <path
         d="m 9,39 27,0 0,-3 -27,0 0,3 z"
         id="path3119-5"
         style="fill:#000000;fill-opacity:1;fill-rule:evenodd;stroke:#000000;stroke-width:1.5;stroke-linecap:butt;stroke-linejoin:round;stroke-miterlimit:4;stroke-opacity:1;stroke-dasharray:none" />
      <path
         d="m 12.5,32 1.5,-2.5 17,0 1.5,2.5 -20,0 z"
         id="path3123-6"
         style="fill:#000000;fill-opacity:1;fill-rule:evenodd;stroke:#000000;stroke-width:1.5;stroke-linecap:butt;stroke-linejoin:round;stroke-miterlimit:4;stroke-opacity:1;stroke-dasharray:none" />
      <path
         d="m 12,36 0,-4 21,0 0,4 -21,0 z"
         id="path3121-1"
         style="fill:#000000;fill-opacity:1;fill-rule:evenodd;stroke:#000000;stroke-width:1.5;stroke-linecap:butt;stroke-linejoin:round;stroke-miterlimit:4;stroke-opacity:1;stroke-dasharray:none" />
      <path
         d="m 14,29.5 0,-13 17,0 0,13 -17,0 z"
         id="path3125-2"
         style="fill:#000000;fill-opacity:1;fill-rule:evenodd;stroke:#000000;stroke-width:1.5;stroke-linecap:butt;stroke-linejoin:miter;stroke-miterlimit:4;stroke-opacity:1;stroke-dasharray:none" />
      <path
         d="m 14,16.5 -3,-2.5 23,0 -3,2.5 -17,0 z"
         id="path3127-5"
         style="fill:#000000;fill-opacity:1;fill-rule:evenodd;stroke:#000000;stroke-width:1.5;stroke-linecap:butt;stroke-linejoin:round;stroke-miterlimit:4;stroke-opacity:1;stroke-dasharray:none" />
      <path
         d="m 11,14 0,-5 4,0 0,2 5,0 0,-2 5,0 0,2 5,0 0,-2 4,0 0,5 -23,0 z"
         id="path3129-6"
         style="fill:#000000;fill-opacity:1;fill-rule:evenodd;stroke:#000000;stroke-width:1.5;stroke-linecap:butt;stroke-linejoin:round;stroke-miterlimit:4;stroke-opacity:1;stroke-dasharray:none" />
      <path
         d="m 12,35.5 21,0 0,0"
         id="path4967"
         style="fill:none;stroke:#ffffff;stroke-width:1px;stroke-linecap:round;stroke-linejoin:miter;stroke-opacity:1" />
      <path
         d="m 13,31.5 19,0"
         id="path4969"
         style="fill:none;stroke:#ffffff;stroke-width:1px;stroke-linecap:round;stroke-linejoin:miter;stroke-opacity:1" />
      <path
         d="m 14,29.5 17,0"
         id="path4971"
         style="fill:none;stroke:#ffffff;stroke-width:1px;stroke-linecap:round;stroke-linejoin:miter;stroke-opacity:1" />
      <path
         d="m 14,16.5 17,0"
         id="path5050"
         style="fill:none;stroke:#ffffff;stroke-width:1px;stroke-linecap:round;stroke-linejoin:miter;stroke-opacity:1" />
      <path
         d="m 11,14 23,0"
         id="path5052"
         style="fill:none;stroke:#ffffff;stroke-width:1px;stroke-linecap:round;stroke-linejoin:miter;stroke-opacity:1" />
    </g>
  </g>
  <g
     transform="translate(190,10)"
     id="BlackBishop">
    <rect
       width="45"
       height="45"
       x="0"
       y="0"
       id="BlackBishopTile"
       style="fill:none;stroke:none" />
    <g
       id="layer1-3"
       style="display:inline">
      <path
         d="m 9,36 c 3.385,-0.972 10.115,0.431 13.5,-2 3.385,2.431 10.115,1.028 13.5,2 0,0 1.646,0.542 3,2 -0.677,0.972 -1.646,0.986 -3,0.5 -3.385,-0.972 -10.115,0.458 -13.5,-1 C 19.115,38.958 12.385,37.528 9,38.5 7.6459,38.986 6.6771,38.972 6,38 7.3541,36.055 9,36 9,36 z"
         id="path4582"
         style="fill:#000000;fill-opacity:1;fill-rule:evenodd;stroke:#000000;stroke-width:1.5;stroke-linecap:butt;stroke-linejoin:round;stroke-miterlimit:4;stroke-opacity:1;stroke-dasharray:none" />
      <path
         d="m 15,32 c 2.5,2.5 12.5,2.5 15,0 0.5,-1.5 0,-2 0,-2 0,-2.5 -2.5,-4 -2.5,-4 5.5,-1.5 6,-11.5 -5,-15.5 -11,4 -10.5,14 -5,15.5 0,0 -2.5,1.5 -2.5,4 0,0 -0.5,0.5 0,2 z"
         id="path4584"
         style="fill:#000000;fill-opacity:1;fill-rule:evenodd;stroke:#000000;stroke-width:1.5;stroke-linecap:butt;stroke-linejoin:round;stroke-miterlimit:4;stroke-opacity:1;stroke-dasharray:none" />
      <path
         d="m 25,10 a 2.5,2.5 0 1 1 -5,0 2.5,2.5 0 1 1 5,0 z"
         transform="translate(0,-2)"
         id="path4586"
         style="fill:#000000;fill-opacity:1;stroke:#000000;stroke-width:1.5;stroke-linecap:butt;stroke-linejoin:round;stroke-miterlimit:4;stroke-opacity:1;stroke-dasharray:none" />
      <path
         d="m 17.5,26 10,0"
         id="path4588"
         style="fill:none;stroke:#ffffff;stroke-width:1.5;stroke-linecap:round;stroke-linejoin:miter;stroke-miterlimit:4;stroke-opacity:1;stroke-dasharray:none" />
      <path
         d="m 15,30 15,0"
         id="path4590"
         style="fill:none;stroke:#ffffff;stroke-width:1.5;stroke-linecap:round;stroke-linejoin:miter;stroke-miterlimit:4;stroke-opacity:1;stroke-dasharray:none" />
      <path
         d="m 22.5,15.5 0,5"
         id="path4592"
         style="fill:none;stroke:#ffffff;stroke-width:1.5;stroke-linecap:round;stroke-linejoin:miter;stroke-miterlimit:4;stroke-opacity:1;stroke-dasharray:none" />
      <path
         d="m 20,18 5,0"
         id="path4594"
         style="fill:none;stroke:#ffffff;stroke-width:1.5;stroke-linecap:round;stroke-linejoin:miter;stroke-miterlimit:4;stroke-opacity:1;stroke-dasharray:none" />
    </g>
  </g>
  <g
     transform="translate(250,10)"
     id="BlackKnight">
    <rect
       width="45"
       height="45"
       x="0"
       y="0"
       id="BlackKnightTile"
       style="fill:none;stroke:none" />
    <g
       id="layer1-8">
      <path
         d="m 22,10 c 10.5,1 16.5,8 16,29 l -23,0 c 0,-9 10,-6.5 8,-21"
         id="path3491"
         style="fill:#000000;fill-opacity:1;fill-rule:evenodd;stroke:#000000;stroke-width:1px;stroke-linecap:round;stroke-linejoin:miter;stroke-opacity:1" />
      <path
         d="m 24,18 c 0.384,2.911 -5.553,7.369 -8,9 -3,2 -2.819,4.343 -5,4 -1.0417,-0.944 1.413,-3.038 0,-3 -1,0 0.187,1.232 -1,2 -1,0 -4.0032,1 -4,-4 0,-2 6,-12 6,-12 0,0 1.886,-1.902 2,-3.5 -0.726,-0.9944 -0.5,-2 -0.5,-3 1,-1 3,2.5 3,2.5 l 2,0 c 0,0 0.782,-1.9919 2.5,-3 1,0 1,3 1,3"
         id="path3495"
         style="fill:#000000;fill-opacity:1;fill-rule:evenodd;stroke:#000000;stroke-width:1px;stroke-linecap:round;stroke-linejoin:round;stroke-opacity:1" />
      <path
         d="m 9,23.5 a 0.5,0.5 0 1 1 -1,0 0.5,0.5 0 1 1 1,0 z"
         transform="translate(0.5,2)"
         id="path3499"
         style="fill:#000000;fill-opacity:1;stroke:#ffffff;stroke-width:1;stroke-linecap:round;stroke-linejoin:round;stroke-miterlimit:4;stroke-opacity:1;stroke-dasharray:none" />
      <path
         d="m 15,15.5 a 0.5,1.5 0 1 1 -1,0 0.5,1.5 0 1 1 1,0 z"
         transform="matrix(0.866,0.5,-0.5,0.866,9.6926,-5.1734)"
         id="path3501"
         style="fill:#000000;fill-opacity:1;stroke:#ffffff;stroke-width:1;stroke-linecap:round;stroke-linejoin:round;stroke-miterlimit:4;stroke-opacity:1;stroke-dasharray:none" />
      <path
         d="m 24.55,10.4 -0.3,1.1 0.55,0.1 c 3.101,0.477 6.324,2.234 8.575,6.494 2.251,4.259 2.922,10.963 2.425,20.906 l -0.05,0.5 1.75,0 0,-0.5 C 38.003,28.943 36.624,22.147 34.25,17.656 31.876,13.166 28.461,11.023 25.063,10.5 L 24.55,10.4 z"
         id="path8049"
         style="fill:#ffffff;fill-opacity:1;fill-rule:evenodd;stroke:none" />
    </g>
  </g>
  <g
     transform="translate(310,10)"
     id="BlackPawn">
    <rect
       width="45"
       height="45"
       x="0"
       y="0"
       id="BlackPawnTile"
       style="fill:none;stroke:none" />
    <g
       id="layer1-44">
      <path
         d="m 22,9 c -2.208,0 -4,1.792 -4,4 0,0.885 0.294,1.712 0.781,2.375 C 16.829,16.497 15.5,18.588 15.5,21 c 0,2.034 0.942,3.839 2.406,5.031 C 14.907,27.089 10.5,31.578 10.5,39.5 l 23,0 C 33.5,31.578 29.093,27.089 26.094,26.031 27.558,24.839 28.5,23.034 28.5,21 28.5,18.588 27.171,16.497 25.219,15.375 25.706,14.712 26,13.885 26,13 26,10.792 24.208,9 22,9 z"
         id="path3194-0"
         style="fill:#000000;fill-opacity:1;fill-rule:nonzero;stroke:#000000;stroke-width:1;stroke-linecap:round;stroke-linejoin:miter;stroke-miterlimit:4;stroke-opacity:1;stroke-dasharray:none;stroke-dashoffset:10" />
    </g>
  </g>
  <g
     transform="translate(10,70)"
     id="WhiteKing">
    <rect
       width="45"
       height="45"
       x="0"
       y="0"
       id="WhiteKingTile"
       style="fill:none;stroke:none" />
    <g
       id="g3988"
       style="fill-opacity:1;fill-rule:evenodd;stroke:#000000;stroke-width:1.5;stroke-linejoin:miter;stroke-miterlimit:4;stroke-opacity:1;stroke-dasharray:none">
      <path
         d="M 22.5,11.625 22.5,6"
         id="path3990"
         style="fill:none;stroke-linecap:round" />
      <path
         d="m 22.5,25 c 0,0 4.5,-7.5 3,-10.5 0,0 -1,-2.5 -3,-2.5 -2,0 -3,2.5 -3,2.5 -1.5,3 3,10.5 3,10.5"
         id="path3992"
         style="fill:#ffffff;stroke-linecap:butt" />
      <path
         d="m 11.5,37 c 5.5,3.5 15.5,3.5 21,0 l 0,-7 c 0,0 9,-4.5 6,-10.5 -4,-6.5 -13.5,-3.5 -16,4 l 0,3.5 0,-3.5 C 19,16 9.5,13 6.5,19.5 c -3,6 5,10 5,10 l 0,7.5 z"
         id="path3994"
         style="fill:#ffffff;stroke-linecap:round;stroke-linejoin:round" />
      <path
         d="m 20,8 5,0"
         id="path3996"
         style="fill:none;stroke-linecap:round" />
      <path
         d="M 11.5,29.5 C 17,27 27,27 32.5,30"
         id="path3998"
         style="fill:none;stroke-linecap:round" />
      <path
         d="M 11.5,37 C 17,34.5 27,34.5 32.5,37"
         id="path4000"
         style="fill:none;stroke-linecap:round;stroke-linejoin:round" />
      <path
         d="m 11.5,33.5 c 5.5,-2 15.5,-2 21,0"
         id="path4002"
         style="fill:none;stroke-linecap:round;stroke-linejoin:round" />
    </g>
  </g>
  <g
     transform="translate(70,70)"
     id="WhiteQueen">
    <rect
       width="45"
       height="45"
       x="0"
       y="0"
       id="WhiteQueenTile"
       style="fill:none;stroke:none" />
    <g
       id="layer1-80">
      <path
         d="m 9,13 a 2,2 0 1 1 -4,0 2,2 0 1 1 4,0 z"
         transform="translate(-1,-1)"
         id="path5571"
         style="fill:#ffffff;fill-opacity:1;stroke:#000000;stroke-width:1.5;stroke-linecap:round;stroke-linejoin:round;stroke-miterlimit:4;stroke-opacity:1;stroke-dasharray:none" />
      <path
         d="m 9,13 a 2,2 0 1 1 -4,0 2,2 0 1 1 4,0 z"
         transform="translate(15.5,-5.5)"
         id="path5573"
         style="fill:#ffffff;fill-opacity:1;stroke:#000000;stroke-width:1.5;stroke-linecap:round;stroke-linejoin:round;stroke-miterlimit:4;stroke-opacity:1;stroke-dasharray:none" />
      <path
         d="m 9,13 a 2,2 0 1 1 -4,0 2,2 0 1 1 4,0 z"
         transform="translate(32,-1)"
         id="path5575"
         style="fill:#ffffff;fill-opacity:1;stroke:#000000;stroke-width:1.5;stroke-linecap:round;stroke-linejoin:round;stroke-miterlimit:4;stroke-opacity:1;stroke-dasharray:none" />
      <path
         d="m 9,13 a 2,2 0 1 1 -4,0 2,2 0 1 1 4,0 z"
         transform="translate(7,-4.5)"
         id="path5577"
         style="fill:#ffffff;fill-opacity:1;stroke:#000000;stroke-width:1.5;stroke-linecap:round;stroke-linejoin:round;stroke-miterlimit:4;stroke-opacity:1;stroke-dasharray:none" />
      <path
         d="m 9,13 a 2,2 0 1 1 -4,0 2,2 0 1 1 4,0 z"
         transform="translate(24,-4)"
         id="path5579"
         style="fill:#ffffff;fill-opacity:1;stroke:#000000;stroke-width:1.5;stroke-linecap:round;stroke-linejoin:round;stroke-miterlimit:4;stroke-opacity:1;stroke-dasharray:none" />
      <path
         d="m 9,26 c 8.5,-1.5 21,-1.5 27,0 l 2,-12 -7,11 0,-14 -5.5,13.5 -3,-15 -3,15 L 14,10.5 14,25 7,14 9,26 z"
         id="path5581"
         style="fill:#ffffff;fill-opacity:1;fill-rule:evenodd;stroke:#000000;stroke-width:1.5;stroke-linecap:butt;stroke-linejoin:round;stroke-miterlimit:4;stroke-opacity:1;stroke-dasharray:none" />
      <path
         d="m 9,26 c 0,2 1.5,2 2.5,4 1,1.5 1,1 0.5,3.5 -1.5,1 -1.5,2.5 -1.5,2.5 -1.5,1.5 0.5,2.5 0.5,2.5 6.5,1 16.5,1 23,0 0,0 1.5,-1 0,-2.5 0,0 0.5,-1.5 -1,-2.5 -0.5,-2.5 -0.5,-2 0.5,-3.5 1,-2 2.5,-2 2.5,-4 -8.5,-1.5 -18.5,-1.5 -27,0 z"
         id="path5583"
         style="fill:#ffffff;fill-opacity:1;fill-rule:evenodd;stroke:#000000;stroke-width:1.5;stroke-linecap:butt;stroke-linejoin:round;stroke-miterlimit:4;stroke-opacity:1;stroke-dasharray:none" />
      <path
         d="M 11.5,30 C 15,29 30,29 33.5,30"
         id="path5585"
         style="fill:none;stroke:#000000;stroke-width:1px;stroke-linecap:round;stroke-linejoin:round;stroke-opacity:1" />
      <path
         d="m 12,33.5 c 6,-1 15,-1 21,0"
         id="path5587"
         style="fill:none;stroke:#000000;stroke-width:1px;stroke-linecap:round;stroke-linejoin:round;stroke-opacity:1" />
      <path
         d="M 10.5,36 C 15.5,35 29,35 34,36"
         id="path5589"
         style="fill:none;stroke:#000000;stroke-width:1px;stroke-linecap:round;stroke-linejoin:round;stroke-opacity:1" />
    </g>
  </g>
  <g
     transform="translate(130,70)"
     id="WhiteRook">
    <rect
       width="45"
       height="45"
       x="0"
       y="0"
       id="WhiteRookTile"
       style="fill:none;stroke:none" />
    <g
       id="layer1-4"
       style="display:inline">
      <path
         d="m 9,39 27,0 0,-3 -27,0 0,3 z"
         id="path3119"
         style="fill:#ffffff;fill-opacity:1;fill-rule:evenodd;stroke:#000000;stroke-width:1.5;stroke-linecap:butt;stroke-linejoin:round;stroke-miterlimit:4;stroke-opacity:1;stroke-dasharray:none" />
      <path
         d="m 12,36 0,-4 21,0 0,4 -21,0 z"
         id="path3121"
         style="fill:#ffffff;fill-opacity:1;fill-rule:evenodd;stroke:#000000;stroke-width:1.5;stroke-linecap:butt;stroke-linejoin:round;stroke-miterlimit:4;stroke-opacity:1;stroke-dasharray:none" />
      <path
         d="m 11,14 0,-5 4,0 0,2 5,0 0,-2 5,0 0,2 5,0 0,-2 4,0 0,5"
         id="path3129"
         style="fill:#ffffff;fill-opacity:1;fill-rule:evenodd;stroke:#000000;stroke-width:1.5;stroke-linecap:butt;stroke-linejoin:round;stroke-miterlimit:4;stroke-opacity:1;stroke-dasharray:none" />
      <path
         d="m 34,14 -3,3 -17,0 -3,-3"
         id="path3127"
         style="fill:#ffffff;fill-opacity:1;fill-rule:evenodd;stroke:#000000;stroke-width:1.5;stroke-linecap:round;stroke-linejoin:round;stroke-miterlimit:4;stroke-opacity:1;stroke-dasharray:none" />
      <path
         d="m 31,17 0,12.5 -17,0 0,-12.5"
         id="path3125"
         style="fill:#ffffff;fill-opacity:1;fill-rule:evenodd;stroke:#000000;stroke-width:1.5;stroke-linecap:butt;stroke-linejoin:miter;stroke-miterlimit:4;stroke-opacity:1;stroke-dasharray:none" />
      <path
         d="m 31,29.5 1.5,2.5 -20,0 1.5,-2.5"
         id="path3123"
         style="fill:#ffffff;fill-opacity:1;fill-rule:evenodd;stroke:#000000;stroke-width:1.5;stroke-linecap:round;stroke-linejoin:round;stroke-miterlimit:4;stroke-opacity:1;stroke-dasharray:none" />
      <path
         d="m 11,14 23,0"
         id="path5175"
         style="fill:none;stroke:#000000;stroke-width:1px;stroke-linecap:round;stroke-linejoin:miter;stroke-opacity:1" />
    </g>
  </g>
  <g
     transform="translate(190,70)"
     id="WhiteBishop">
    <rect
       width="45"
       height="45"
       x="0"
       y="0"
       id="WhiteBishopTile"
       style="fill:none;stroke:none" />
    <g
       id="g3335">
      <g
         id="layer1-7"
         style="display:inline">
        <path
           d="m 9,36 c 3.385,-0.972 10.115,0.431 13.5,-2 3.385,2.431 10.115,1.028 13.5,2 0,0 1.646,0.542 3,2 -0.677,0.972 -1.646,0.986 -3,0.5 -3.385,-0.972 -10.115,0.458 -13.5,-1 C 19.115,38.958 12.385,37.528 9,38.5 7.6459,38.986 6.6771,38.972 6,38 7.3541,36.055 9,36 9,36 z"
           id="path4582-3"
           style="fill:#ffffff;fill-opacity:1;fill-rule:evenodd;stroke:#000000;stroke-width:1.5;stroke-linecap:butt;stroke-linejoin:round;stroke-miterlimit:4;stroke-opacity:1;stroke-dasharray:none" />
        <path
           d="m 15,32 c 2.5,2.5 12.5,2.5 15,0 0.5,-1.5 0,-2 0,-2 0,-2.5 -2.5,-4 -2.5,-4 5.5,-1.5 6,-11.5 -5,-15.5 -11,4 -10.5,14 -5,15.5 0,0 -2.5,1.5 -2.5,4 0,0 -0.5,0.5 0,2 z"
           id="path4584-3"
           style="fill:#ffffff;fill-opacity:1;fill-rule:evenodd;stroke:#000000;stroke-width:1.5;stroke-linecap:butt;stroke-linejoin:round;stroke-miterlimit:4;stroke-opacity:1;stroke-dasharray:none" />
        <path
           d="m 25,10 a 2.5,2.5 0 1 1 -5,0 2.5,2.5 0 1 1 5,0 z"
           transform="translate(0,-2)"
           id="path4586-7"
           style="fill:#ffffff;fill-opacity:1;stroke:#000000;stroke-width:1.5;stroke-linecap:butt;stroke-linejoin:round;stroke-miterlimit:4;stroke-opacity:1;stroke-dasharray:none" />
        <path
           d="m 17.5,26 10,0"
           id="path4588-9"
           style="fill:none;stroke:#000000;stroke-width:1.5;stroke-linecap:butt;stroke-linejoin:miter;stroke-miterlimit:4;stroke-opacity:1;stroke-dasharray:none" />
        <path
           d="m 15,30 15,0"
           id="path4590-0"
           style="fill:none;stroke:#000000;stroke-width:1.5;stroke-linecap:butt;stroke-linejoin:miter;stroke-miterlimit:4;stroke-opacity:1;stroke-dasharray:none" />
        <path
           d="m 22.5,15.5 0,5"
           id="path4592-5"
           style="fill:none;stroke:#000000;stroke-width:1.5;stroke-linecap:round;stroke-linejoin:miter;stroke-miterlimit:4;stroke-opacity:1;stroke-dasharray:none" />
        <path
           d="m 20,18 5,0"
           id="path4594-5"
           style="fill:none;stroke:#000000;stroke-width:1.5;stroke-linecap:round;stroke-linejoin:miter;stroke-miterlimit:4;stroke-opacity:1;stroke-dasharray:none" />
      </g>
      <g
         id="layer2"
         style="display:inline" />
    </g>
  </g>
  <g
     transform="translate(250,70)"
     id="WhiteKnight">
    <rect
       width="45"
       height="45"
       x="0"
       y="0"
       id="WhiteKnightTile"
       style="fill:none;stroke:none" />
    <g
       id="layer1-79">
      <path
         d="m 22,10 c 10.5,1 16.5,8 16,29 l -23,0 c 0,-9 10,-6.5 8,-21"
         id="path3491-8"
         style="fill:#ffffff;fill-opacity:1;fill-rule:evenodd;stroke:#000000;stroke-width:1.5;stroke-linecap:round;stroke-linejoin:miter;stroke-miterlimit:4;stroke-opacity:1;stroke-dasharray:none" />
      <path
         d="m 24,18 c 0.384,2.911 -5.553,7.369 -8,9 -3,2 -2.819,4.343 -5,4 -1.0417,-0.944 1.413,-3.038 0,-3 -1,0 0.187,1.232 -1,2 -1,0 -4.0032,1 -4,-4 0,-2 6,-12 6,-12 0,0 1.886,-1.902 2,-3.5 -0.726,-0.9944 -0.5,-2 -0.5,-3 1,-1 3,2.5 3,2.5 l 2,0 c 0,0 0.782,-1.9919 2.5,-3 1,0 1,3 1,3"
         id="path3495-0"
         style="fill:#ffffff;fill-opacity:1;fill-rule:evenodd;stroke:#000000;stroke-width:1.5;stroke-linecap:round;stroke-linejoin:round;stroke-miterlimit:4;stroke-opacity:1;stroke-dasharray:none" />
      <path
         d="m 9,23.5 a 0.5,0.5 0 1 1 -1,0 0.5,0.5 0 1 1 1,0 z"
         transform="translate(0.5,2)"
         id="path3499-2"
         style="fill:#000000;fill-opacity:1;stroke:#000000;stroke-width:1.5;stroke-linecap:round;stroke-linejoin:round;stroke-miterlimit:4;stroke-opacity:1;stroke-dasharray:none" />
      <path
         d="m 15,15.5 a 0.5,1.5 0 1 1 -1,0 0.5,1.5 0 1 1 1,0 z"
         transform="matrix(0.866,0.5,-0.5,0.866,9.6926,-5.1734)"
         id="path3501-2"
         style="fill:#000000;fill-opacity:1;stroke:#000000;stroke-width:1.5;stroke-linecap:round;stroke-linejoin:round;stroke-miterlimit:4;stroke-opacity:1;stroke-dasharray:none" />
      <path
         d="M 37,39 C 38,19 31.5,11.5 25,10.5"
         id="path8049-6"
         style="fill:none;stroke:#000000;stroke-width:1;stroke-linecap:round;stroke-linejoin:miter;stroke-miterlimit:4;stroke-opacity:1;stroke-dasharray:none" />
    </g>
  </g>
  <g
     transform="translate(310,70)"
     id="WhitePawn">
    <rect
       width="45"
       height="45"
       x="0"
       y="0"
       id="WhiteTile-1-7-8-31"
       style="fill:none;stroke:none" />
    <g
       id="layer1-76">
      <path
         d="m 22,9 c -2.208,0 -4,1.792 -4,4 0,0.885 0.294,1.712 0.781,2.375 C 16.829,16.497 15.5,18.588 15.5,21 c 0,2.034 0.942,3.839 2.406,5.031 C 14.907,27.089 10.5,31.578 10.5,39.5 l 23,0 C 33.5,31.578 29.093,27.089 26.094,26.031 27.558,24.839 28.5,23.034 28.5,21 28.5,18.588 27.171,16.497 25.219,15.375 25.706,14.712 26,13.885 26,13 26,10.792 24.208,9 22,9 z"
         id="path3194"
         style="fill:#ffffff;fill-opacity:1;fill-rule:nonzero;stroke:#000000;stroke-width:1.5;stroke-linecap:round;stroke-linejoin:miter;stroke-miterlimit:4;stroke-opacity:1;stroke-dasharray:none;stroke-dashoffset:10" />
    </g>
  </g>
  <rect
     width="45"
     height="45"
     x="10"
     y="130"
     id="WhiteTile"
     style="fill:#ffce9e;fill-opacity:1;stroke:none" />
  <rect
     width="45"
     height="45"
     x="70"
     y="130"
     id="BlackTile"
     style="fill:#d18b47;fill-opacity:1;stroke:none" />
</svg>
